<svg xmlns="http://www.w3.org/2000/svg" viewBox="0 0 512 512">
  <style>
    .sun { fill: #fff; fill-opacity: .35; }
    .gate { fill: #fff; }
  </style>
  <g fill-rule="evenodd">
    <path
      d="M355.655932,747.878368 C325.026064,760.835125 291.349755,768 256,768 C218.730818,768 183.321746,760.035921 151.381796,745.716775 L153.462476,626.515094 L162.899619,626.67982 L167.088197,386.716373 L157.651053,386.551647 L159.60221,274.769958 C189.355833,262.667499 221.899278,256 256,256 C288.187292,256 318.987165,261.94025 347.363133,272.784265 L349.384456,388.585937 L341.911803,388.716373 L346.100381,628.67982 L353.573033,628.549384 L355.655929,747.878395 Z M417.02215,711.028191 L415.56359,627.467335 L426.088197,627.283627 L421.899619,387.32018 L411.375013,387.503888 L409.97794,307.465678 C471.942601,354.187786 512,428.41594 512,512 C512,592.372666 474.96157,664.094544 417.02215,711.028191 Z M90.0493284,706.933178 C34.946329,659.977377 0,590.069765 0,512 C0,430.717459 37.8817786,358.282682 96.9536056,311.387398 L95.660496,385.469598 L87.100381,385.32018 L82.9118034,625.283627 L91.4719185,625.433045 L90.0493284,706.933178 Z"
      class="sun"/>
    <path
      d="M455.602321,69.7797835 L444.434173,100.992835 C426.50644,104.106651 408.547081,106.775249 390.556098,108.998629 L391.036069,136.496112 L397.674536,136.380237 L397.948589,152.08072 C407.858814,150.752882 417.76754,149.287346 427.674766,147.684112 L417.606664,175.684112 C409.01012,177.169866 400.405134,178.537362 391.791707,179.786601 L395.705565,404.011407 L402.873225,403.886295 L405.120378,532.625563 L363.126775,533.358564 L360.879622,404.619296 L366.709982,404.517527 L362.852721,183.535154 C331.347591,187.128819 299.730018,189.147287 268,189.590558 L268,205.614953 L240,205.614953 L240,189.573194 C208.072943,189.088128 176.123141,187.01211 144.150596,183.345138 L140.290322,404.500077 L147.120378,404.619296 L144.873225,533.358564 L102.879622,532.625563 L105.126775,403.886295 L111.294739,403.993958 L115.21168,179.592539 C106.94042,178.396113 98.6676384,177.093304 90.393336,175.684112 L80.3252336,147.684112 C89.9091858,149.217466 99.4855932,150.624865 109.054456,151.906308 L109.325464,136.380237 L115.963931,136.496112 L116.449672,108.668062 C99.1607839,106.512243 81.8661689,103.953834 64.5658269,100.992835 L53.1119738,68.9812862 C40.6641547,66.3653028 28.2139898,63.5098585 15.7614791,60.4149533 L0.977570093,0.414953271 C86.6380616,20.4149533 171.888087,30.4149533 256.727646,30.4149533 C341.567204,30.4149533 426.332132,20.4149533 511.02243,0.414953271 L496.238521,60.4149533 C482.707364,63.8277414 469.161964,66.9493515 455.602321,69.7797835 Z M145.397641,111.902004 L144.959515,137.002232 L151.319068,137.113238 L150.976844,156.71921 C180.724484,159.564513 210.39887,161.186869 240,161.586278 L240,117.222143 C208.48497,116.790716 176.95085,115.017336 145.397641,111.902004 Z M268,117.252245 L268,161.599119 C297.355085,161.229587 326.697047,159.655077 356.025886,156.875589 L355.680932,137.113238 L362.040485,137.002232 L361.607374,112.189318 C330.499113,115.20307 299.296655,116.890712 268,117.252245 Z"
      class="gate"/>
  </g>
</svg>
