<?xml version="1.0" standalone="no"?>
<!DOCTYPE svg PUBLIC "-//W3C//DTD SVG 20010904//EN"
 "http://www.w3.org/TR/2001/REC-SVG-20010904/DTD/svg10.dtd">
<svg version="1.0" xmlns="http://www.w3.org/2000/svg"
 width="700.000000pt" height="700.000000pt" viewBox="0 0 700.000000 700.000000"
 preserveAspectRatio="xMidYMid meet">
<metadata>
Created by potrace 1.11, written by Peter Selinger 2001-2013
</metadata>
<g transform="translate(0.000000,700.000000) scale(0.100000,-0.100000)"
fill="#000000" stroke="none">
<path d="M62 6799 c26 -105 50 -201 52 -213 6 -25 80 -325 93 -376 9 -34 11
-35 99 -57 49 -12 100 -24 114 -27 14 -2 88 -18 166 -36 l141 -32 78 -219 c43
-121 79 -219 80 -219 1 0 40 -6 86 -14 88 -15 143 -24 194 -31 17 -3 39 -7 50
-9 11 -2 61 -9 110 -15 50 -7 100 -14 110 -16 11 -2 51 -6 88 -10 l68 -8 -2
-184 c-1 -122 -5 -186 -13 -191 -6 -4 -27 -7 -46 -7 l-35 -1 -2 -49 c0 -28 -2
-76 -2 -107 -1 -51 -3 -56 -21 -53 -20 4 -231 35 -265 40 -11 1 -40 5 -64 10
-29 5 -42 4 -40 -3 107 -297 136 -373 149 -377 8 -2 33 -6 55 -9 53 -6 115
-16 140 -21 11 -2 43 -7 70 -11 28 -3 52 -8 56 -9 3 -2 4 -37 3 -77 -1 -40 -5
-257 -9 -483 -3 -225 -8 -502 -10 -615 -4 -194 -7 -404 -20 -1160 -12 -663
-13 -719 -19 -728 -3 -5 -21 -8 -41 -5 -19 2 -35 0 -36 -4 -1 -11 -5 -196 -13
-683 -4 -234 -9 -507 -11 -608 l-4 -182 288 0 288 0 2 203 c2 111 5 276 6 367
2 91 6 330 10 533 l7 367 -47 0 -46 0 6 372 c5 357 9 576 20 1153 3 143 8 420
11 615 3 195 7 434 9 530 2 96 4 215 4 264 l1 89 73 -7 c39 -3 83 -8 97 -10
25 -4 113 -12 230 -22 36 -2 90 -7 120 -9 164 -14 358 -24 590 -31 107 -3 196
-7 197 -8 2 -1 3 -50 4 -109 l2 -107 191 2 191 3 0 102 c0 56 2 104 5 106 3 3
100 8 215 11 116 3 237 8 270 11 33 2 107 7 165 10 201 12 348 25 583 51 l57
6 1 -39 c4 -186 8 -389 13 -738 4 -225 9 -495 11 -600 2 -104 7 -365 10 -580
4 -214 8 -460 10 -545 3 -143 6 -461 5 -502 0 -14 -9 -18 -38 -18 l-38 0 1
-102 c2 -57 6 -301 10 -543 7 -378 10 -597 14 -782 l1 -43 288 0 287 0 -2 52
c-1 51 -7 371 -18 1068 -3 184 -8 341 -10 348 -3 8 -17 11 -39 9 -62 -7 -55
-91 -71 858 -3 149 -7 407 -10 575 -11 620 -27 1522 -27 1565 0 57 2 75 10 73
7 -2 98 9 146 17 11 3 58 11 104 19 46 7 86 17 90 21 4 3 37 89 73 191 l67
185 -41 -6 c-23 -4 -53 -8 -67 -11 -100 -15 -295 -42 -297 -40 -1 1 -3 48 -4
103 -2 62 -7 104 -13 106 -6 2 -26 3 -43 1 -18 -1 -33 -1 -34 0 0 0 -3 85 -5
189 -4 150 -3 187 8 188 7 0 20 2 28 4 13 2 102 14 223 30 127 17 468 73 473
78 3 3 28 72 124 342 30 84 31 85 115 101 17 3 50 10 75 15 25 6 56 13 70 15
14 3 33 7 42 10 10 3 28 7 40 10 13 2 72 17 132 32 l110 27 48 190 c26 105 50
201 53 215 2 14 26 109 51 213 26 103 45 190 41 193 -3 3 -109 -17 -236 -46
-127 -28 -243 -53 -258 -56 -15 -3 -98 -18 -183 -34 -193 -36 -188 -36 -345
-61 -71 -12 -139 -23 -150 -25 -10 -2 -37 -6 -60 -9 -22 -3 -65 -10 -95 -15
-30 -5 -80 -12 -110 -15 -30 -4 -66 -8 -80 -10 -44 -7 -104 -15 -150 -20 -25
-3 -54 -7 -65 -9 -11 -2 -56 -7 -100 -11 -44 -3 -91 -8 -105 -10 -14 -2 -59
-7 -100 -10 -41 -4 -86 -9 -100 -10 -14 -2 -68 -6 -120 -10 -52 -4 -111 -8
-130 -10 -65 -6 -244 -17 -315 -20 -590 -24 -1004 -24 -1525 0 -98 4 -270 15
-315 20 -22 2 -84 7 -138 10 -53 4 -105 8 -115 9 -9 2 -51 7 -92 10 -41 4 -91
9 -110 11 -19 2 -64 6 -100 10 -36 3 -83 8 -105 11 -22 3 -56 7 -75 9 -82 10
-198 26 -218 30 -11 2 -47 6 -79 10 -32 3 -65 8 -73 10 -8 2 -35 6 -60 9 -25
3 -56 8 -70 11 -13 2 -42 7 -65 10 -22 4 -53 8 -70 11 -36 6 -302 52 -330 58
-11 2 -94 18 -185 36 -91 17 -178 35 -195 40 -16 5 -43 11 -60 14 -16 3 -61
12 -100 21 -113 25 -119 26 -151 31 l-30 5 48 -192z m2103 -1344 c39 -3 88 -8
110 -10 22 -2 85 -7 140 -10 55 -3 120 -8 145 -10 77 -8 390 -20 640 -26 l85
-1 -2 -277 c-1 -152 -2 -288 -2 -303 l-1 -27 -167 4 c-157 3 -335 11 -498 20
-38 3 -113 7 -165 10 -52 3 -111 8 -130 10 -19 2 -71 7 -115 10 -44 3 -94 8
-111 10 l-31 5 1 133 1 132 -30 1 c-16 1 -35 2 -41 3 -8 1 -11 48 -8 164 1 89
3 166 3 170 1 5 25 6 54 3 28 -3 84 -8 122 -11z m2778 1 c1 -6 3 -83 2 -170
l0 -160 -40 0 -40 -1 0 -132 c0 -72 -2 -133 -5 -136 -3 -3 -52 -8 -110 -12
-58 -3 -116 -8 -130 -10 -14 -2 -72 -6 -130 -10 -58 -3 -132 -8 -165 -10 -95
-8 -254 -14 -465 -20 l-196 -5 1 304 0 304 100 1 c195 3 532 16 648 26 26 2
93 6 150 10 56 3 118 7 137 10 19 2 73 7 120 11 47 3 86 7 88 8 7 7 32 1 35
-8z"/>
<path d="M3298 3495 c-2 -1 -41 -5 -88 -9 -166 -12 -228 -21 -430 -62 -184
-37 -458 -119 -567 -170 l-33 -15 -1 -132 c0 -73 -2 -199 -4 -282 -1 -82 -6
-325 -10 -540 -4 -214 -8 -427 -9 -473 -1 -45 1 -86 4 -91 3 -4 23 -8 45 -8
86 -1 81 3 79 -62 -1 -33 -5 -221 -8 -418 -3 -197 -9 -504 -12 -683 -3 -179
-7 -376 -8 -438 l-2 -112 1225 2 1225 3 -3 155 c-7 418 -10 566 -16 940 -4
223 -8 444 -9 493 -1 53 2 88 9 89 11 1 52 5 76 7 14 1 16 18 13 134 -1 72 -5
294 -8 492 -13 796 -17 950 -24 956 -29 27 -495 156 -627 174 -22 3 -65 10
-95 15 -30 5 -82 12 -115 16 -33 3 -73 8 -90 11 -32 5 -512 13 -517 8z"/>
<path d="M5606 2733 c1 -32 5 -245 9 -473 4 -228 8 -446 9 -485 l1 -70 67 0
c37 -1 69 -3 72 -5 2 -3 7 -156 10 -340 17 -976 23 -1320 25 -1347 1 -10 128
-13 601 -13 l600 0 -4 130 c-5 157 -16 267 -41 425 -8 50 -17 101 -20 115 -3
14 -12 57 -20 95 -69 336 -242 762 -439 1077 -49 78 -181 269 -204 294 -9 11
-35 42 -57 69 -92 116 -254 287 -385 406 -46 42 -216 179 -222 179 -2 0 -3
-26 -2 -57z"/>
<path d="M1273 2699 c-273 -232 -476 -454 -664 -729 -371 -541 -583 -1187
-604 -1843 l-5 -127 580 0 580 0 1 53 c2 95 7 357 14 782 4 231 9 474 10 540
2 66 3 173 4 238 l1 117 60 0 60 0 1 133 c0 137 7 554 12 760 2 64 2 117 1
117 -2 0 -24 -18 -51 -41z"/>
</g>
</svg>
