<?xml version="1.0" encoding="utf-8"?>
<!-- Generator: Adobe Illustrator 22.0.0, SVG Export Plug-In . SVG Version: 6.00 Build 0)  -->
<svg version="1.1" id="Layer_1" xmlns="http://www.w3.org/2000/svg" xmlns:xlink="http://www.w3.org/1999/xlink" x="0px" y="0px"
	 viewBox="0 0 500 500" style="enable-background:new 0 0 500 500;" xml:space="preserve">
<style type="text/css">
	.st0{fill:#ED2939;}
</style>
<g>
	<g>
		<path class="st0" d="M302,296.1l6,0l-3,41.9h33.8c0-29.7-14.6-56-37.1-72.1L302,296.1z"/>
		<path class="st0" d="M192.2,296.1l6,0l0.2-30.2C176,282,161.4,308.3,161.4,338h33.8L192.2,296.1z"/>
		<path class="st0" d="M216.3,296.3l6.1,0l-3.7,41.8h62.9l-3.7-41.8l6.1,0l-0.3-40.4c-10.3-4.2-21.6-6.5-33.5-6.5
			c-11.9,0-23.2,2.3-33.5,6.5L216.3,296.3z"/>
	</g>
	<path d="M338.8,160.6c-24.3,9.1-55.8,14.1-88.7,14.1s-64.4-5-88.7-14.1l3.8,20.3c4.9,1.5,10,2.9,15.3,4.1l0,0l1.7,9.3
		c6.8,1.6,13.8,2.9,21,4l-0.1,9.9l-2.7,0l0,4.8c-3.4-0.6-6.8-1.2-10.2-1.9v0l1,10c3.9,0.8,7.8,1.4,11.8,2l-0.6,77.2l-5.7,0l2.7,37.6
		l2.7,0v0l4.7,0l7.6,0.1l3.3-37.6l-5.7,0l0.6-76c10.6,1.2,21.5,1.9,32.7,2.1v5.4h9.6v-5.4c11.2-0.2,22.1-0.9,32.7-2.1l0.6,76l-5.7,0
		l3.3,37.6l7.6-0.1l4.7,0v0l2.7,0l2.7-37.6l-5.7,0l-0.6-77.2c4-0.6,8-1.3,11.8-2l1-10v0c-3.4,0.7-6.8,1.3-10.2,1.9l0-4.8l-2.7,0
		l-0.1-9.9c7.2-1.1,14.3-2.4,21-4l1.7-9.3l0,0c5.3-1.2,10.4-2.6,15.3-4.1L338.8,160.6z M215.4,215.1l0.1-6.7l-2.7,0l0.1-8.7
		c10.5,1.2,21.4,1.9,32.5,2.1V217C235.1,216.8,225.1,216.2,215.4,215.1z M287.5,208.4l-2.7,0l0.1,6.7c-9.7,1.1-19.7,1.7-29.9,1.8
		v-15.2c11-0.2,21.9-0.9,32.5-2.1L287.5,208.4z"/>
</g>
</svg>
