<?xml version="1.0" encoding="utf-8"?>
<!-- Generator: Adobe Illustrator 22.0.0, SVG Export Plug-In . SVG Version: 6.00 Build 0)  -->
<svg version="1.1" id="Layer_1" xmlns="http://www.w3.org/2000/svg" xmlns:xlink="http://www.w3.org/1999/xlink" x="0px" y="0px"
	 viewBox="0 0 1306 1996" style="enable-background:new 0 0 1306 1996;" xml:space="preserve">
<style type="text/css">
	.st0{fill:#ED2939;}
	.st1{fill:#FFFFFF;}
</style>
<rect x="3" y="-1" width="650" height="500"/>
<rect x="653" y="499" class="st0" width="650" height="500"/>
<rect x="653" y="1499" width="650" height="500"/>
<rect x="3" y="1499" class="st1" width="650" height="500"/>
<rect x="653" y="999" class="st1" width="650" height="500"/>
<rect x="653" y="-1" class="st1" width="650" height="500"/>
<g>
	<g>
		<g>
			<path class="st0" d="M270.1,249.9l6,0l0.2-30.2c-22.4,16.1-37.1,42.4-37.1,72.1h33.8L270.1,249.9z"/>
			<path class="st0" d="M379.9,250l6,0l-3,41.9h33.8c0-29.7-14.6-56-37.1-72.1L379.9,250z"/>
			<path class="st0" d="M294.2,250.1l6.1,0l-3.7,41.8h62.9l-3.7-41.8l6.1,0l-0.3-40.4c-10.3-4.2-21.6-6.5-33.5-6.5
				c-11.9,0-23.2,2.3-33.5,6.5L294.2,250.1z"/>
		</g>
		<path class="st1" d="M416.7,114.4c-24.3,9.1-55.8,14.1-88.7,14.1s-64.4-5-88.7-14.1l3.8,20.3c4.9,1.5,10,2.9,15.3,4.1l0,0l1.7,9.3
			c6.8,1.6,13.8,2.9,21,4l-0.1,9.9l-2.7,0l0,4.8c-3.4-0.6-6.8-1.2-10.2-1.9v0l1,10c3.9,0.8,7.8,1.4,11.8,2l-0.6,77.2l-5.7,0
			l2.7,37.6l2.7,0v0l4.7,0l7.6,0.1l3.3-37.6l-5.7,0l0.6-76c10.6,1.2,21.5,1.9,32.7,2.1v5.4h9.6v-5.4c11.2-0.2,22.1-0.9,32.7-2.1
			l0.6,76l-5.7,0l3.3,37.6l7.6-0.1l4.7,0v0l2.7,0l2.7-37.6l-5.7,0l-0.6-77.2c4-0.6,8-1.3,11.8-2l1-10v0c-3.4,0.7-6.8,1.3-10.2,1.9
			l0-4.8l-2.7,0l-0.1-9.9c7.2-1.1,14.3-2.4,21-4l1.7-9.3l0,0c5.3-1.2,10.4-2.6,15.3-4.1L416.7,114.4z M293.3,168.9l0.1-6.7l-2.7,0
			l0.1-8.7c10.5,1.2,21.4,1.9,32.5,2.1v15.2C313,170.6,303,170,293.3,168.9z M365.3,162.2l-2.7,0l0.1,6.7
			c-9.7,1.1-19.7,1.7-29.9,1.8v-15.2c11-0.2,21.9-0.9,32.5-2.1L365.3,162.2z"/>
	</g>
	<g>
		<g>
			<path class="st1" d="M228.5,347c-0.7,1-1.7,1.7-2.9,2.2c-1.2,0.4-2.5,0.7-3.9,0.7c-0.5,0-1,0-1.7,0c-0.6,0-1.1-0.1-1.5-0.2
				c-0.6-0.2-1-0.5-1-0.9v-3.5c0-0.1,0-0.3,0-0.4c0-0.1,0-0.2,0.1-0.3c0.1-0.1,0.1-0.1,0.2-0.1c0.1,0,0.3,0,0.5,0.1
				c0.4,0.1,1,0.2,1.5,0.2c0.6,0,1.1,0,1.5,0c1,0,1.8-0.4,2.4-1.1c0.6-0.7,0.9-2.1,0.9-4.1v-25.6c0-0.2,0.1-0.3,0.2-0.4
				c0.1-0.1,0.3-0.2,0.4-0.2h4.2c0.2,0,0.3,0.1,0.4,0.2c0.1,0.1,0.2,0.2,0.2,0.4v25.4c0,1.5-0.1,2.9-0.4,4.3
				C229.5,345.1,229.1,346.2,228.5,347z"/>
			<path class="st1" d="M263.3,349.5c-0.2,0-0.4,0-0.5-0.1c-0.1,0-0.2-0.2-0.3-0.4l-3.4-8.6h-15.5l-3.4,8.6
				c-0.1,0.2-0.1,0.4-0.2,0.4c-0.1,0-0.3,0.1-0.5,0.1h-4.4c-0.6,0-0.8-0.2-0.6-0.7l13.9-34.7c0.1-0.3,0.2-0.4,0.2-0.5
				c0,0,0.2-0.1,0.5-0.1h4.4c0.3,0,0.5,0,0.5,0.1c0.1,0,0.1,0.2,0.2,0.5l13.9,34.7c0.2,0.4,0,0.7-0.6,0.7H263.3z M245.5,335.4h11.6
				l-5.8-14.7L245.5,335.4z"/>
			<path class="st1" d="M278.6,334.9v14c0,0.4-0.2,0.6-0.6,0.6h-4.2c-0.4,0-0.6-0.2-0.6-0.6v-34.7c0-0.2,0.1-0.3,0.2-0.4
				c0.1-0.1,0.2-0.2,0.4-0.2h9.6c3.5,0,6.3,0.9,8.4,2.6c2,1.7,3.1,4.4,3.1,8c0,1.7-0.3,3.3-0.9,4.6c-0.6,1.4-1.4,2.5-2.5,3.4
				c-1.1,0.9-2.3,1.6-3.8,2c-1.4,0.5-3,0.7-4.7,0.7H278.6z M278.6,318.5v11.4h3.9c2.1,0,3.8-0.5,5.1-1.4c1.2-0.9,1.9-2.4,1.9-4.5
				c0-1.8-0.5-3.2-1.5-4.1c-1-0.9-2.3-1.4-3.9-1.4H278.6z"/>
			<path class="st1" d="M321,349.5c-0.2,0-0.4,0-0.5-0.1c-0.1,0-0.2-0.2-0.3-0.4l-3.4-8.6h-15.5l-3.4,8.6c-0.1,0.2-0.1,0.4-0.2,0.4
				c-0.1,0-0.3,0.1-0.5,0.1h-4.4c-0.6,0-0.8-0.2-0.6-0.7l13.9-34.7c0.1-0.3,0.2-0.4,0.2-0.5c0,0,0.2-0.1,0.5-0.1h4.4
				c0.3,0,0.5,0,0.5,0.1c0.1,0,0.1,0.2,0.2,0.5l13.9,34.7c0.2,0.4,0,0.7-0.6,0.7H321z M303.3,335.4h11.6l-5.8-14.7L303.3,335.4z"/>
			<path class="st1" d="M351.8,349.5c-0.3,0-0.4,0-0.6-0.1c-0.1-0.1-0.3-0.3-0.5-0.6l-15-25.8v25.8c0,0.3,0,0.5-0.1,0.6
				c-0.1,0.1-0.3,0.1-0.6,0.1h-4c-0.3,0-0.4,0-0.6-0.1c-0.1-0.1-0.2-0.3-0.2-0.6v-34.4c0-0.4,0.1-0.6,0.2-0.7
				c0.1-0.1,0.4-0.2,0.7-0.2h4.4c0.3,0,0.4,0,0.6,0.1c0.1,0.1,0.3,0.3,0.5,0.6l15,25.7v-25.7c0-0.3,0-0.5,0.1-0.6
				c0.1-0.1,0.3-0.1,0.6-0.1h4c0.3,0,0.5,0,0.6,0.1c0.1,0.1,0.1,0.3,0.1,0.6v34.4c0,0.4-0.1,0.6-0.2,0.7c-0.1,0.1-0.3,0.2-0.7,0.2
				H351.8z"/>
			<path class="st1" d="M366.9,349.5c-0.6,0-1-0.1-1.1-0.2c-0.1-0.1-0.2-0.5-0.2-1.2v-33.3c0-0.6,0.1-1,0.2-1.1
				c0.1-0.1,0.5-0.2,1.1-0.2h16.9c0.3,0,0.6,0.1,0.6,0.2c0.1,0.1,0.1,0.3,0.1,0.6v3.5c0,0.3,0,0.5-0.1,0.6c-0.1,0.1-0.3,0.2-0.6,0.2
				h-12.9v9.7h12.3c0.5,0,0.7,0.3,0.7,0.8v3.6c0,0.5-0.2,0.8-0.7,0.8h-12.3v10.9h13.5c0.4,0,0.7,0.3,0.7,0.8v3.6
				c0,0.5-0.2,0.8-0.7,0.8H366.9z"/>
			<path class="st1" d="M409.1,346.9c-0.8,0.9-1.9,1.6-3.2,2.3c-1.3,0.6-2.6,1-4.1,1.1c-0.8,0.1-1.6,0.1-2.5,0
				c-0.9-0.1-1.8-0.2-2.7-0.3c-0.9-0.1-1.7-0.3-2.4-0.5c-0.7-0.2-1.2-0.3-1.5-0.5c-0.5-0.2-0.8-0.4-0.9-0.5c-0.1-0.1-0.1-0.3,0-0.7
				l0.3-3.5c0-0.3,0.1-0.4,0.2-0.5c0.1-0.1,0.4,0,0.7,0.1c0.4,0.2,0.9,0.3,1.6,0.5c0.7,0.2,1.5,0.4,2.3,0.5c0.9,0.1,1.7,0.2,2.6,0.3
				c0.9,0,1.7,0,2.4-0.2c0.9-0.2,1.7-0.5,2.2-0.9c0.6-0.4,1-0.8,1.4-1.3c0.3-0.5,0.6-1,0.7-1.6c0.1-0.6,0.2-1.2,0.2-1.8
				c0-0.6-0.4-1.4-1.2-2.5c-0.8-1-1.9-2-3.4-2.9c-1.8-1-3.3-2-4.6-2.9c-1.3-0.9-2.4-1.8-3.2-2.7c-0.8-0.9-1.5-1.8-1.9-2.8
				c-0.4-1-0.6-2-0.6-3.1c0-1.3,0.3-2.5,0.8-3.7c0.6-1.2,1.3-2.2,2.3-3.1c1-0.9,2.1-1.6,3.5-2.1c1.3-0.5,2.8-0.8,4.5-0.8
				c1.7,0,3,0.1,4.1,0.3c1.1,0.2,2,0.5,2.7,0.7c0.3,0.1,0.6,0.3,0.6,0.4c0.1,0.1,0.1,0.3,0,0.5l-0.6,3.1c-0.1,0.3-0.2,0.6-0.3,0.7
				c-0.1,0.1-0.4,0.1-0.7,0c-0.5-0.2-1-0.3-1.6-0.5c-0.6-0.1-1.2-0.3-1.8-0.4c-0.6-0.1-1.2-0.2-1.7-0.2c-0.6,0-1.1,0-1.5,0
				c-1.8,0.3-3,0.9-3.7,1.7c-0.7,0.9-1.1,2-1.1,3.3c0,0.8,0.4,1.7,1.2,2.6c0.8,1,2,1.9,3.6,2.9c2,1.2,3.6,2.3,4.9,3.2
				c1.3,1,2.3,1.9,3,2.7c0.7,0.9,1.3,1.8,1.6,2.6c0.3,0.9,0.5,1.9,0.5,2.9C411.9,342.5,411,344.9,409.1,346.9z"/>
			<path class="st1" d="M420.3,349.5c-0.6,0-1-0.1-1.1-0.2c-0.1-0.1-0.2-0.5-0.2-1.2v-33.3c0-0.6,0.1-1,0.2-1.1
				c0.1-0.1,0.5-0.2,1.1-0.2h16.9c0.3,0,0.6,0.1,0.6,0.2c0.1,0.1,0.1,0.3,0.1,0.6v3.5c0,0.3,0,0.5-0.1,0.6c-0.1,0.1-0.3,0.2-0.6,0.2
				h-12.9v9.7h12.3c0.5,0,0.7,0.3,0.7,0.8v3.6c0,0.5-0.2,0.8-0.7,0.8h-12.3v10.9h13.5c0.4,0,0.7,0.3,0.7,0.8v3.6
				c0,0.5-0.2,0.8-0.7,0.8H420.3z"/>
			<path class="st1" d="M256,382.7c0,0.3-0.1,0.4-0.4,0.4h-1.3c-0.3,0-0.4-0.1-0.4-0.4v-20.2c0-0.4,0-0.7,0.1-0.8
				c0.1-0.1,0.3-0.1,0.7-0.1h5.2c2.1,0,3.8,0.5,5,1.5c1.2,1.1,1.9,2.6,1.9,4.6c0,1-0.2,1.9-0.5,2.7c-0.4,0.8-0.9,1.4-1.5,2
				c-0.6,0.5-1.4,0.9-2.3,1.2c-0.9,0.3-1.8,0.4-2.8,0.3H256V382.7z M264.6,367.7c0-1.4-0.4-2.4-1.1-3.2c-0.7-0.7-1.8-1.1-3.2-1.1
				H256v8.7h2.3c0.9,0,1.8,0,2.5-0.1c0.7-0.1,1.4-0.3,1.9-0.6c0.5-0.3,1-0.7,1.3-1.3C264.4,369.4,264.6,368.7,264.6,367.7z"/>
			<path class="st1" d="M282.8,382.7c0,0.3-0.1,0.4-0.4,0.4h-1.2c-0.3,0-0.4-0.1-0.4-0.4v-8.9c0-0.9-0.1-1.7-0.2-2.4
				c-0.2-0.6-0.4-1.2-0.7-1.6c-0.3-0.4-0.7-0.7-1.1-0.9c-0.4-0.2-0.9-0.3-1.5-0.3c-1.6,0-2.8,0.4-3.6,1.1c-0.8,0.8-1.3,1.8-1.3,3.1
				v9.7c0,0.3-0.1,0.4-0.4,0.4h-1.2c-0.3,0-0.4-0.1-0.4-0.4v-22.3c0-0.3,0.1-0.4,0.4-0.4h1.2c0.3,0,0.4,0.1,0.4,0.4v8.4
				c0.5-0.6,1.2-1.1,2-1.3c0.8-0.3,1.8-0.4,3-0.4c1.9,0,3.2,0.6,4.1,1.7c0.9,1.1,1.3,2.8,1.3,5V382.7z"/>
			<path class="st1" d="M295.3,369.2c-0.3-0.1-0.8-0.2-1.4-0.2c-1.4,0-2.5,0.7-3.2,2.1c-0.5,1.1-0.8,2.5-0.8,4.2v7.3
				c0,0.3-0.1,0.4-0.4,0.4h-1.1c-0.3,0-0.4-0.1-0.4-0.4v-11.8c0-0.7,0-1.3,0-1.7c0-0.4,0-0.9,0-1.4c0-0.3,0.1-0.4,0.4-0.4h1.1
				c0.3,0,0.4,0.1,0.4,0.4v2.8c0.9-2.4,2.3-3.7,4.2-3.7c0.4,0,0.9,0.1,1.3,0.2c0.1,0,0.2,0.1,0.3,0.2c0.1,0.1,0.1,0.2,0.1,0.4v1.2
				c0,0.1,0,0.2-0.1,0.2C295.5,369.2,295.4,369.2,295.3,369.2z"/>
			<path class="st1" d="M299.2,369.9c-0.1,0.1-0.2,0.1-0.3,0c-0.1,0-0.1-0.1-0.1-0.2v-1.1c0-0.3,0.1-0.5,0.4-0.6
				c0.7-0.4,1.4-0.6,2.2-0.8c0.8-0.1,1.6-0.2,2.5-0.2c1.9,0,3.3,0.5,4.2,1.4c0.9,0.9,1.3,2.3,1.3,4.2v7.3c0,0.6,0,1.1,0,1.6
				c0,0.5,0,0.9,0.1,1.3c0,0.3-0.1,0.4-0.4,0.4h-1c-0.3,0-0.4-0.1-0.4-0.4v-2.2c-0.4,1-1.1,1.7-2,2.3c-1,0.5-2,0.8-3.1,0.8
				c-2,0-3.4-0.6-4.3-1.7c-0.3-0.4-0.5-0.8-0.7-1.3c-0.2-0.5-0.2-1-0.2-1.5c0-1.2,0.3-2.2,0.8-3c0.6-0.9,1.4-1.5,2.5-1.9
				c1.4-0.5,3.5-0.8,6.4-0.8h0.4v-0.9c0-1.2-0.3-2.1-0.8-2.8c-0.6-0.6-1.5-1-2.8-1c-0.9,0-1.7,0.1-2.5,0.3
				C300.6,369.1,299.9,369.4,299.2,369.9z M307.4,374.9h-0.6c-1.1,0-2,0-2.9,0.1c-0.8,0.1-1.5,0.3-2.1,0.5c-0.8,0.3-1.4,0.7-1.8,1.3
				c-0.4,0.6-0.6,1.3-0.6,2c0,0.5,0.1,0.9,0.2,1.3c0.2,0.4,0.4,0.7,0.7,1c0.6,0.5,1.4,0.7,2.3,0.7c0.7,0,1.3-0.1,1.9-0.4
				c0.6-0.3,1.1-0.7,1.5-1.2c0.4-0.5,0.8-1.1,1-1.9c0.2-0.7,0.3-1.6,0.3-2.6V374.9z"/>
			<path class="st1" d="M313.5,381.2c1.2,0.5,2.4,0.7,3.7,0.7c1,0,1.9-0.3,2.6-0.8c0.7-0.5,1-1.2,1-2.1c0-0.5-0.2-1-0.6-1.5
				c-0.4-0.5-0.8-0.9-1.4-1.2c-0.6-0.3-1.2-0.6-1.8-0.9c-0.6-0.3-1.2-0.6-1.8-0.9c-0.7-0.4-1.2-0.9-1.5-1.4
				c-0.3-0.6-0.5-1.2-0.5-1.8c0-0.7,0.1-1.3,0.4-1.9c0.3-0.5,0.6-1,1.1-1.4c0.5-0.4,1-0.6,1.6-0.8c0.6-0.2,1.3-0.3,2-0.3
				c0.7,0,1.4,0,1.9,0.1c0.5,0.1,1.1,0.2,1.6,0.3c0.1,0,0.2,0.1,0.3,0.2c0.1,0.1,0.1,0.2,0.1,0.3l-0.1,0.9c0,0.2-0.1,0.3-0.2,0.3
				c-0.1,0-0.2,0-0.3,0c-0.5-0.2-1-0.3-1.4-0.4c-0.5-0.1-1.1-0.1-1.7-0.1c-2.2,0-3.4,0.9-3.4,2.7c0,0.4,0.1,0.8,0.4,1.1
				c0.3,0.3,0.8,0.7,1.5,1c0.6,0.3,1.2,0.6,1.8,0.9c0.6,0.3,1.2,0.6,1.9,1c0.6,0.3,1.1,0.8,1.5,1.5c0.4,0.7,0.6,1.4,0.6,2.2
				c0,0.8-0.2,1.4-0.5,2c-0.3,0.6-0.7,1-1.2,1.4c-0.5,0.4-1.1,0.6-1.8,0.8c-0.7,0.2-1.4,0.3-2.1,0.3c-0.4,0-0.8,0-1.1,0
				c-0.3,0-0.7,0-1-0.1c-0.3,0-0.6-0.1-0.9-0.1c-0.3-0.1-0.6-0.1-1-0.2c-0.3-0.1-0.4-0.3-0.4-0.5l0.1-1.1
				C313.1,381.2,313.2,381.1,313.5,381.2z"/>
			<path class="st1" d="M327.6,375.8c0,1,0.1,1.8,0.3,2.6c0.2,0.7,0.6,1.4,1.1,1.9c0.5,0.5,1,0.9,1.7,1.2c0.6,0.3,1.4,0.4,2.2,0.4
				c0.8,0,1.5-0.1,2.2-0.2s1.3-0.4,1.9-0.7c0.3-0.1,0.4,0,0.4,0.2v1.3c0,0.2-0.1,0.3-0.3,0.4c-0.6,0.3-1.3,0.4-2,0.6
				c-0.7,0.1-1.4,0.2-2.3,0.2c-2.4,0-4.2-0.7-5.4-2.1c-1.2-1.4-1.8-3.5-1.8-6.2c0-2.5,0.6-4.4,1.8-5.9c1.3-1.5,2.9-2.3,4.8-2.3
				c1.1,0,2,0.2,2.8,0.6c0.8,0.4,1.5,1,2,1.7c1,1.4,1.5,3.2,1.5,5.5c0,0.3,0,0.4,0,0.6c0,0.1,0,0.2-0.1,0.3
				c-0.1,0.1-0.2,0.1-0.3,0.1c-0.1,0-0.4,0-0.6,0H327.6z M336.3,374.2c0-0.8-0.1-1.5-0.2-2.1c-0.2-0.6-0.4-1.2-0.7-1.7
				c-0.7-1.1-1.7-1.7-3.1-1.7c-1.4,0-2.5,0.6-3.4,1.7c-0.3,0.5-0.6,1.1-0.9,1.8c-0.2,0.7-0.4,1.3-0.4,2H336.3z"/>
			<path class="st1" d="M342.2,360.4c0-0.3,0.1-0.4,0.4-0.4h1.1c0.3,0,0.4,0.1,0.4,0.4v9.2c0.5-0.8,1.2-1.4,2.1-1.9
				c0.9-0.5,1.9-0.7,3-0.7c4.3,0,6.5,2.7,6.5,8.2c0,1.1-0.1,2.1-0.3,3.1c-0.2,1-0.6,1.9-1.2,2.6c-0.5,0.8-1.2,1.4-2,1.8
				c-0.8,0.5-1.8,0.7-2.9,0.7c-2.3,0-4-1-5-3v2.3c0,0.3-0.1,0.4-0.4,0.4h-1.1c-0.3,0-0.4-0.1-0.4-0.4V360.4z M353.6,375.2
				c0-0.8-0.1-1.6-0.2-2.4c-0.2-0.8-0.4-1.5-0.8-2.1c-0.4-0.6-0.9-1.1-1.5-1.5c-0.6-0.4-1.4-0.6-2.2-0.6c-0.8,0-1.5,0.2-2.1,0.5
				c-0.6,0.3-1.1,0.8-1.5,1.4c-0.4,0.6-0.7,1.3-0.9,2.1c-0.2,0.8-0.3,1.6-0.3,2.5c0,0.9,0.1,1.7,0.4,2.5c0.2,0.8,0.6,1.5,1,2.1
				c0.4,0.6,0.9,1.1,1.5,1.4c0.6,0.4,1.2,0.5,1.9,0.5c0.9,0,1.6-0.2,2.2-0.6c0.6-0.4,1.1-0.9,1.5-1.5c0.4-0.6,0.6-1.3,0.8-2.1
				C353.5,376.8,353.6,376,353.6,375.2z"/>
			<path class="st1" d="M373.6,375.3c0,1.1-0.2,2.2-0.5,3.2c-0.3,1-0.8,1.8-1.3,2.6c-0.7,0.8-1.5,1.4-2.4,1.9
				c-0.9,0.4-2,0.7-3.2,0.7c-1.2,0-2.3-0.2-3.2-0.7c-0.9-0.4-1.8-1.1-2.4-1.9c-0.5-0.7-1-1.6-1.3-2.6c-0.3-1-0.5-2-0.5-3.2
				c0-2.3,0.6-4.3,1.8-5.7c1.4-1.7,3.2-2.5,5.7-2.5c1.2,0,2.3,0.2,3.2,0.6c0.9,0.4,1.7,1,2.4,1.9C373,371.1,373.6,373,373.6,375.3z
				 M371.4,375.3c0-0.9-0.1-1.8-0.4-2.6c-0.2-0.8-0.6-1.5-1-2.1c-1-1.2-2.3-1.9-3.9-1.9c-0.8,0-1.5,0.2-2.2,0.5
				c-0.6,0.3-1.2,0.8-1.7,1.4c-0.4,0.6-0.8,1.3-1,2.1c-0.2,0.8-0.4,1.6-0.4,2.6c0,0.9,0.1,1.8,0.4,2.6c0.2,0.8,0.6,1.5,1,2.1
				c1,1.3,2.3,1.9,3.9,1.9c0.8,0,1.5-0.2,2.2-0.5c0.6-0.3,1.2-0.8,1.7-1.4c0.4-0.6,0.8-1.3,1-2.1
				C371.3,377.1,371.4,376.2,371.4,375.3z"/>
			<path class="st1" d="M391.1,375.3c0,1.1-0.2,2.2-0.5,3.2c-0.3,1-0.8,1.8-1.3,2.6c-0.7,0.8-1.5,1.4-2.4,1.9
				c-0.9,0.4-2,0.7-3.2,0.7c-1.2,0-2.3-0.2-3.2-0.7c-0.9-0.4-1.8-1.1-2.4-1.9c-0.5-0.7-1-1.6-1.3-2.6c-0.3-1-0.5-2-0.5-3.2
				c0-2.3,0.6-4.3,1.8-5.7c1.4-1.7,3.2-2.5,5.7-2.5c1.2,0,2.3,0.2,3.2,0.6c0.9,0.4,1.7,1,2.4,1.9C390.5,371.1,391.1,373,391.1,375.3
				z M389,375.3c0-0.9-0.1-1.8-0.4-2.6c-0.2-0.8-0.6-1.5-1-2.1c-1-1.2-2.3-1.9-3.9-1.9c-0.8,0-1.5,0.2-2.2,0.5
				c-0.6,0.3-1.2,0.8-1.7,1.4c-0.4,0.6-0.8,1.3-1,2.1c-0.2,0.8-0.4,1.6-0.4,2.6c0,0.9,0.1,1.8,0.4,2.6c0.2,0.8,0.6,1.5,1,2.1
				c1,1.3,2.3,1.9,3.9,1.9c0.8,0,1.5-0.2,2.2-0.5c0.6-0.3,1.2-0.8,1.7-1.4c0.4-0.6,0.8-1.3,1-2.1C388.9,377.1,389,376.2,389,375.3z"
				/>
			<path class="st1" d="M400.2,374.4l6.3,8.3c0.1,0.1,0.1,0.2,0.1,0.3c0,0.1-0.1,0.1-0.2,0.1h-1.2c-0.2,0-0.4,0-0.5-0.1
				c-0.2-0.1-0.3-0.2-0.4-0.3l-5.2-6.9L397,378v4.7c0,0.3-0.1,0.4-0.4,0.4h-1.2c-0.3,0-0.4-0.1-0.4-0.4v-22.3c0-0.3,0.1-0.4,0.4-0.4
				h1.2c0.3,0,0.4,0.1,0.4,0.4v15.1l6.6-7.7c0.3-0.3,0.6-0.4,1-0.4h1.4c0.1,0,0.2,0,0.2,0.1c0,0.1,0,0.2-0.1,0.3L400.2,374.4z"/>
		</g>
	</g>
</g>
<g>
	<g>
		<g>
			<path class="st1" d="M920.1,749.2l6,0l0.2-30.2c-22.4,16.1-37.1,42.4-37.1,72.1h33.8L920.1,749.2z"/>
			<path class="st1" d="M1029.9,749.3l6,0l-3,41.9h33.8c0-29.7-14.6-56-37.1-72.1L1029.9,749.3z"/>
			<path class="st1" d="M944.2,749.4l6.1,0l-3.7,41.8h62.9l-3.7-41.8l6.1,0l-0.3-40.4c-10.3-4.2-21.6-6.5-33.5-6.5
				c-11.9,0-23.2,2.3-33.5,6.5L944.2,749.4z"/>
		</g>
		<path d="M1066.7,613.8c-24.3,9.1-55.8,14.1-88.7,14.1c-32.9,0-64.4-5-88.7-14.1l3.8,20.3c4.9,1.5,10,2.9,15.3,4.1l0,0l1.7,9.3
			c6.8,1.6,13.8,2.9,21,4l-0.1,9.9l-2.7,0l0,4.8c-3.4-0.6-6.8-1.2-10.2-1.9v0l1,10c3.9,0.8,7.8,1.4,11.8,2l-0.6,77.2l-5.7,0
			l2.7,37.6l2.7,0v0l4.7,0l7.6,0.1l3.3-37.6l-5.7,0l0.6-76c10.6,1.2,21.5,1.9,32.7,2.1v5.4h9.6v-5.4c11.2-0.2,22.1-0.9,32.7-2.1
			l0.6,76l-5.7,0l3.3,37.6l7.6-0.1l4.7,0v0l2.7,0l2.7-37.6l-5.7,0l-0.6-77.2c4-0.6,8-1.3,11.8-2l1-10v0c-3.4,0.7-6.8,1.3-10.2,1.9
			l0-4.8l-2.7,0l-0.1-9.9c7.2-1.1,14.3-2.4,21-4l1.7-9.3l0,0c5.3-1.2,10.4-2.6,15.3-4.1L1066.7,613.8z M943.3,668.3l0.1-6.7l-2.7,0
			l0.1-8.7c10.5,1.2,21.4,1.9,32.5,2.1v15.2C963,670,953,669.3,943.3,668.3z M1015.3,661.5l-2.7,0l0.1,6.7
			c-9.7,1.1-19.7,1.7-29.9,1.8v-15.2c11-0.2,21.9-0.9,32.5-2.1L1015.3,661.5z"/>
	</g>
	<g>
		<g>
			<path class="st1" d="M878.5,846.4c-0.7,1-1.7,1.7-2.9,2.2c-1.2,0.4-2.5,0.7-3.9,0.7c-0.5,0-1,0-1.7,0c-0.6,0-1.1-0.1-1.5-0.2
				c-0.6-0.2-1-0.5-1-0.9v-3.5c0-0.1,0-0.3,0-0.4c0-0.1,0-0.2,0.1-0.3c0.1-0.1,0.1-0.1,0.2-0.1c0.1,0,0.3,0,0.5,0.1
				c0.4,0.1,1,0.2,1.5,0.2c0.6,0,1.1,0,1.5,0c1,0,1.8-0.4,2.4-1.1c0.6-0.7,0.9-2.1,0.9-4.1v-25.6c0-0.2,0.1-0.3,0.2-0.4
				c0.1-0.1,0.3-0.2,0.4-0.2h4.2c0.2,0,0.3,0.1,0.4,0.2c0.1,0.1,0.2,0.2,0.2,0.4v25.4c0,1.5-0.1,2.9-0.4,4.3
				C879.5,844.4,879.1,845.5,878.5,846.4z"/>
			<path class="st1" d="M913.3,848.8c-0.2,0-0.4,0-0.5-0.1c-0.1,0-0.2-0.2-0.3-0.4l-3.4-8.6h-15.5l-3.4,8.6
				c-0.1,0.2-0.1,0.4-0.2,0.4c-0.1,0-0.3,0.1-0.5,0.1h-4.4c-0.6,0-0.8-0.2-0.6-0.7l13.9-34.7c0.1-0.3,0.2-0.4,0.2-0.5
				c0,0,0.2-0.1,0.5-0.1h4.4c0.3,0,0.5,0,0.5,0.1c0.1,0,0.1,0.2,0.2,0.5l13.9,34.7c0.2,0.4,0,0.7-0.6,0.7H913.3z M895.5,834.7h11.6
				l-5.8-14.7L895.5,834.7z"/>
			<path class="st1" d="M928.6,834.2v14c0,0.4-0.2,0.6-0.6,0.6h-4.2c-0.4,0-0.6-0.2-0.6-0.6v-34.7c0-0.2,0.1-0.3,0.2-0.4
				c0.1-0.1,0.2-0.2,0.4-0.2h9.6c3.5,0,6.3,0.9,8.4,2.6c2,1.7,3.1,4.4,3.1,8c0,1.7-0.3,3.3-0.9,4.6c-0.6,1.4-1.4,2.5-2.5,3.4
				c-1.1,0.9-2.3,1.6-3.8,2c-1.4,0.5-3,0.7-4.7,0.7H928.6z M928.6,817.8v11.4h3.9c2.1,0,3.8-0.5,5.1-1.4c1.2-0.9,1.9-2.4,1.9-4.5
				c0-1.8-0.5-3.2-1.5-4.1c-1-0.9-2.3-1.4-3.9-1.4H928.6z"/>
			<path class="st1" d="M971,848.8c-0.2,0-0.4,0-0.5-0.1c-0.1,0-0.2-0.2-0.3-0.4l-3.4-8.6h-15.5l-3.4,8.6c-0.1,0.2-0.1,0.4-0.2,0.4
				c-0.1,0-0.3,0.1-0.5,0.1h-4.4c-0.6,0-0.8-0.2-0.6-0.7l13.9-34.7c0.1-0.3,0.2-0.4,0.2-0.5c0,0,0.2-0.1,0.5-0.1h4.4
				c0.3,0,0.5,0,0.5,0.1c0.1,0,0.1,0.2,0.2,0.5l13.9,34.7c0.2,0.4,0,0.7-0.6,0.7H971z M953.3,834.7h11.6l-5.8-14.7L953.3,834.7z"/>
			<path class="st1" d="M1001.8,848.8c-0.3,0-0.4,0-0.6-0.1c-0.1-0.1-0.3-0.3-0.5-0.6l-15-25.8V848c0,0.3,0,0.5-0.1,0.6
				c-0.1,0.1-0.3,0.1-0.6,0.1h-4c-0.3,0-0.4,0-0.6-0.1c-0.1-0.1-0.2-0.3-0.2-0.6v-34.4c0-0.4,0.1-0.6,0.2-0.7
				c0.1-0.1,0.4-0.2,0.7-0.2h4.4c0.3,0,0.4,0,0.6,0.1c0.1,0.1,0.3,0.3,0.5,0.6l15,25.7v-25.7c0-0.3,0-0.5,0.1-0.6
				c0.1-0.1,0.3-0.1,0.6-0.1h4c0.3,0,0.5,0,0.6,0.1c0.1,0.1,0.1,0.3,0.1,0.6v34.4c0,0.4-0.1,0.6-0.2,0.7c-0.1,0.1-0.3,0.2-0.7,0.2
				H1001.8z"/>
			<path class="st1" d="M1016.9,848.8c-0.6,0-1-0.1-1.1-0.2c-0.1-0.1-0.2-0.5-0.2-1.2v-33.3c0-0.6,0.1-1,0.2-1.1
				c0.1-0.1,0.5-0.2,1.1-0.2h16.9c0.3,0,0.6,0.1,0.6,0.2c0.1,0.1,0.1,0.3,0.1,0.6v3.5c0,0.3,0,0.5-0.1,0.6c-0.1,0.1-0.3,0.2-0.6,0.2
				h-12.9v9.7h12.3c0.5,0,0.7,0.3,0.7,0.8v3.6c0,0.5-0.2,0.8-0.7,0.8h-12.3v10.9h13.5c0.4,0,0.7,0.3,0.7,0.8v3.6
				c0,0.5-0.2,0.8-0.7,0.8H1016.9z"/>
			<path class="st1" d="M1059.1,846.2c-0.8,0.9-1.9,1.6-3.2,2.3c-1.3,0.6-2.6,1-4.1,1.1c-0.8,0.1-1.6,0.1-2.5,0
				c-0.9-0.1-1.8-0.2-2.7-0.3c-0.9-0.1-1.7-0.3-2.4-0.5c-0.7-0.2-1.2-0.3-1.5-0.5c-0.5-0.2-0.8-0.4-0.9-0.5c-0.1-0.1-0.1-0.3,0-0.7
				l0.3-3.5c0-0.3,0.1-0.4,0.2-0.5c0.1-0.1,0.4,0,0.7,0.1c0.4,0.2,0.9,0.3,1.6,0.5c0.7,0.2,1.5,0.4,2.3,0.5c0.9,0.1,1.7,0.2,2.6,0.3
				c0.9,0,1.7,0,2.4-0.2c0.9-0.2,1.7-0.5,2.2-0.9c0.6-0.4,1-0.8,1.4-1.3c0.3-0.5,0.6-1,0.7-1.6c0.1-0.6,0.2-1.2,0.2-1.8
				c0-0.6-0.4-1.4-1.2-2.5c-0.8-1-1.9-2-3.4-2.9c-1.8-1-3.3-2-4.6-2.9c-1.3-0.9-2.4-1.8-3.2-2.7c-0.8-0.9-1.5-1.8-1.9-2.8
				c-0.4-1-0.6-2-0.6-3.1c0-1.3,0.3-2.5,0.8-3.7c0.6-1.2,1.3-2.2,2.3-3.1c1-0.9,2.1-1.6,3.5-2.1c1.3-0.5,2.8-0.8,4.5-0.8
				c1.7,0,3,0.1,4.1,0.3c1.1,0.2,2,0.5,2.7,0.7c0.3,0.1,0.6,0.3,0.6,0.4c0.1,0.1,0.1,0.3,0,0.5l-0.6,3.1c-0.1,0.3-0.2,0.6-0.3,0.7
				c-0.1,0.1-0.4,0.1-0.7,0c-0.5-0.2-1-0.3-1.6-0.5c-0.6-0.1-1.2-0.3-1.8-0.4c-0.6-0.1-1.2-0.2-1.7-0.2c-0.6,0-1.1,0-1.5,0
				c-1.8,0.3-3,0.9-3.7,1.7c-0.7,0.9-1.1,2-1.1,3.3c0,0.8,0.4,1.7,1.2,2.6c0.8,1,2,1.9,3.6,2.9c2,1.2,3.6,2.3,4.9,3.2
				c1.3,1,2.3,1.9,3,2.7c0.7,0.9,1.3,1.8,1.6,2.6c0.3,0.9,0.5,1.9,0.5,2.9C1061.9,841.9,1061,844.2,1059.1,846.2z"/>
			<path class="st1" d="M1070.3,848.8c-0.6,0-1-0.1-1.1-0.2c-0.1-0.1-0.2-0.5-0.2-1.2v-33.3c0-0.6,0.1-1,0.2-1.1
				c0.1-0.1,0.5-0.2,1.1-0.2h16.9c0.3,0,0.6,0.1,0.6,0.2c0.1,0.1,0.1,0.3,0.1,0.6v3.5c0,0.3,0,0.5-0.1,0.6c-0.1,0.1-0.3,0.2-0.6,0.2
				h-12.9v9.7h12.3c0.5,0,0.7,0.3,0.7,0.8v3.6c0,0.5-0.2,0.8-0.7,0.8h-12.3v10.9h13.5c0.4,0,0.7,0.3,0.7,0.8v3.6
				c0,0.5-0.2,0.8-0.7,0.8H1070.3z"/>
			<path class="st1" d="M906,882c0,0.3-0.1,0.4-0.4,0.4h-1.3c-0.3,0-0.4-0.1-0.4-0.4v-20.2c0-0.4,0-0.7,0.1-0.8
				c0.1-0.1,0.3-0.1,0.7-0.1h5.2c2.1,0,3.8,0.5,5,1.5c1.2,1.1,1.9,2.6,1.9,4.6c0,1-0.2,1.9-0.5,2.7c-0.4,0.8-0.9,1.4-1.5,2
				c-0.6,0.5-1.4,0.9-2.3,1.2c-0.9,0.3-1.8,0.4-2.8,0.3H906V882z M914.6,867c0-1.4-0.4-2.4-1.1-3.2c-0.7-0.7-1.8-1.1-3.2-1.1H906
				v8.7h2.3c0.9,0,1.8,0,2.5-0.1c0.7-0.1,1.4-0.3,1.9-0.6c0.5-0.3,1-0.7,1.3-1.3C914.4,868.8,914.6,868,914.6,867z"/>
			<path class="st1" d="M932.8,882c0,0.3-0.1,0.4-0.4,0.4h-1.2c-0.3,0-0.4-0.1-0.4-0.4v-8.9c0-0.9-0.1-1.7-0.2-2.4
				c-0.2-0.6-0.4-1.2-0.7-1.6c-0.3-0.4-0.7-0.7-1.1-0.9c-0.4-0.2-0.9-0.3-1.5-0.3c-1.6,0-2.8,0.4-3.6,1.1c-0.8,0.8-1.3,1.8-1.3,3.1
				v9.7c0,0.3-0.1,0.4-0.4,0.4h-1.2c-0.3,0-0.4-0.1-0.4-0.4v-22.3c0-0.3,0.1-0.4,0.4-0.4h1.2c0.3,0,0.4,0.1,0.4,0.4v8.4
				c0.5-0.6,1.2-1.1,2-1.3c0.8-0.3,1.8-0.4,3-0.4c1.9,0,3.2,0.6,4.1,1.7c0.9,1.1,1.3,2.8,1.3,5V882z"/>
			<path class="st1" d="M945.3,868.5c-0.3-0.1-0.8-0.2-1.4-0.2c-1.4,0-2.5,0.7-3.2,2.1c-0.5,1.1-0.8,2.5-0.8,4.2v7.3
				c0,0.3-0.1,0.4-0.4,0.4h-1.1c-0.3,0-0.4-0.1-0.4-0.4v-11.8c0-0.7,0-1.3,0-1.7c0-0.4,0-0.9,0-1.4c0-0.3,0.1-0.4,0.4-0.4h1.1
				c0.3,0,0.4,0.1,0.4,0.4v2.8c0.9-2.4,2.3-3.7,4.2-3.7c0.4,0,0.9,0.1,1.3,0.2c0.1,0,0.2,0.1,0.3,0.2c0.1,0.1,0.1,0.2,0.1,0.4v1.2
				c0,0.1,0,0.2-0.1,0.2S945.4,868.6,945.3,868.5z"/>
			<path class="st1" d="M949.2,869.2c-0.1,0.1-0.2,0.1-0.3,0c-0.1,0-0.1-0.1-0.1-0.2v-1.1c0-0.3,0.1-0.5,0.4-0.6
				c0.7-0.4,1.4-0.6,2.2-0.8c0.8-0.1,1.6-0.2,2.5-0.2c1.9,0,3.3,0.5,4.2,1.4c0.9,0.9,1.3,2.3,1.3,4.2v7.3c0,0.6,0,1.1,0,1.6
				c0,0.5,0,0.9,0.1,1.3c0,0.3-0.1,0.4-0.4,0.4h-1c-0.3,0-0.4-0.1-0.4-0.4v-2.2c-0.4,1-1.1,1.7-2,2.3c-1,0.5-2,0.8-3.1,0.8
				c-2,0-3.4-0.6-4.3-1.7c-0.3-0.4-0.5-0.8-0.7-1.3c-0.2-0.5-0.2-1-0.2-1.5c0-1.2,0.3-2.2,0.8-3c0.6-0.9,1.4-1.5,2.5-1.9
				c1.4-0.5,3.5-0.8,6.4-0.8h0.4v-0.9c0-1.2-0.3-2.1-0.8-2.8c-0.6-0.6-1.5-1-2.8-1c-0.9,0-1.7,0.1-2.5,0.3
				C950.6,868.5,949.9,868.8,949.2,869.2z M957.4,874.3h-0.6c-1.1,0-2,0-2.9,0.1c-0.8,0.1-1.5,0.3-2.1,0.5c-0.8,0.3-1.4,0.7-1.8,1.3
				c-0.4,0.6-0.6,1.3-0.6,2c0,0.5,0.1,0.9,0.2,1.3c0.2,0.4,0.4,0.7,0.7,1c0.6,0.5,1.4,0.7,2.3,0.7c0.7,0,1.3-0.1,1.9-0.4
				c0.6-0.3,1.1-0.7,1.5-1.2c0.4-0.5,0.8-1.1,1-1.9c0.2-0.7,0.3-1.6,0.3-2.6V874.3z"/>
			<path class="st1" d="M963.5,880.5c1.2,0.5,2.4,0.7,3.7,0.7c1,0,1.9-0.3,2.6-0.8c0.7-0.5,1-1.2,1-2.1c0-0.5-0.2-1-0.6-1.5
				c-0.4-0.5-0.8-0.9-1.4-1.2c-0.6-0.3-1.2-0.6-1.8-0.9c-0.6-0.3-1.2-0.6-1.8-0.9c-0.7-0.4-1.2-0.9-1.5-1.4
				c-0.3-0.6-0.5-1.2-0.5-1.8c0-0.7,0.1-1.3,0.4-1.9c0.3-0.5,0.6-1,1.1-1.4c0.5-0.4,1-0.6,1.6-0.8c0.6-0.2,1.3-0.3,2-0.3
				c0.7,0,1.4,0,1.9,0.1c0.5,0.1,1.1,0.2,1.6,0.3c0.1,0,0.2,0.1,0.3,0.2c0.1,0.1,0.1,0.2,0.1,0.3l-0.1,0.9c0,0.2-0.1,0.3-0.2,0.3
				c-0.1,0-0.2,0-0.3,0c-0.5-0.2-1-0.3-1.4-0.4c-0.5-0.1-1.1-0.1-1.7-0.1c-2.2,0-3.4,0.9-3.4,2.7c0,0.4,0.1,0.8,0.4,1.1
				c0.3,0.3,0.8,0.7,1.5,1c0.6,0.3,1.2,0.6,1.8,0.9c0.6,0.3,1.2,0.6,1.9,1c0.6,0.3,1.1,0.8,1.5,1.5c0.4,0.7,0.6,1.4,0.6,2.2
				c0,0.8-0.2,1.4-0.5,2c-0.3,0.6-0.7,1-1.2,1.4c-0.5,0.4-1.1,0.6-1.8,0.8c-0.7,0.2-1.4,0.3-2.1,0.3c-0.4,0-0.8,0-1.1,0
				c-0.3,0-0.7,0-1-0.1c-0.3,0-0.6-0.1-0.9-0.1c-0.3-0.1-0.6-0.1-1-0.2c-0.3-0.1-0.4-0.3-0.4-0.5l0.1-1.1
				C963.1,880.5,963.2,880.4,963.5,880.5z"/>
			<path class="st1" d="M977.6,875.2c0,1,0.1,1.8,0.3,2.6c0.2,0.7,0.6,1.4,1.1,1.9c0.5,0.5,1,0.9,1.7,1.2c0.6,0.3,1.4,0.4,2.2,0.4
				c0.8,0,1.5-0.1,2.2-0.2c0.7-0.1,1.3-0.4,1.9-0.7c0.3-0.1,0.4,0,0.4,0.2v1.3c0,0.2-0.1,0.3-0.3,0.4c-0.6,0.3-1.3,0.4-2,0.6
				c-0.7,0.1-1.4,0.2-2.3,0.2c-2.4,0-4.2-0.7-5.4-2.1c-1.2-1.4-1.8-3.5-1.8-6.2c0-2.5,0.6-4.4,1.8-5.9c1.3-1.5,2.9-2.3,4.8-2.3
				c1.1,0,2,0.2,2.8,0.6c0.8,0.4,1.5,1,2,1.7c1,1.4,1.5,3.2,1.5,5.5c0,0.3,0,0.4,0,0.6c0,0.1,0,0.2-0.1,0.3
				c-0.1,0.1-0.2,0.1-0.3,0.1c-0.1,0-0.4,0-0.6,0H977.6z M986.3,873.5c0-0.8-0.1-1.5-0.2-2.1c-0.2-0.6-0.4-1.2-0.7-1.7
				c-0.7-1.1-1.7-1.7-3.1-1.7c-1.4,0-2.5,0.6-3.4,1.7c-0.3,0.5-0.6,1.1-0.9,1.8c-0.2,0.7-0.4,1.3-0.4,2H986.3z"/>
			<path class="st1" d="M992.2,859.7c0-0.3,0.1-0.4,0.4-0.4h1.1c0.3,0,0.4,0.1,0.4,0.4v9.2c0.5-0.8,1.2-1.4,2.1-1.9
				c0.9-0.5,1.9-0.7,3-0.7c4.3,0,6.5,2.7,6.5,8.2c0,1.1-0.1,2.1-0.3,3.1c-0.2,1-0.6,1.9-1.2,2.6c-0.5,0.8-1.2,1.4-2,1.8
				c-0.8,0.5-1.8,0.7-2.9,0.7c-2.3,0-4-1-5-3v2.3c0,0.3-0.1,0.4-0.4,0.4h-1.1c-0.3,0-0.4-0.1-0.4-0.4V859.7z M1003.6,874.5
				c0-0.8-0.1-1.6-0.2-2.4c-0.2-0.8-0.4-1.5-0.8-2.1c-0.4-0.6-0.9-1.1-1.5-1.5c-0.6-0.4-1.4-0.6-2.2-0.6c-0.8,0-1.5,0.2-2.1,0.5
				c-0.6,0.3-1.1,0.8-1.5,1.4c-0.4,0.6-0.7,1.3-0.9,2.1c-0.2,0.8-0.3,1.6-0.3,2.5c0,0.9,0.1,1.7,0.4,2.5c0.2,0.8,0.6,1.5,1,2.1
				c0.4,0.6,0.9,1.1,1.5,1.4c0.6,0.4,1.2,0.5,1.9,0.5c0.9,0,1.6-0.2,2.2-0.6c0.6-0.4,1.1-0.9,1.5-1.5c0.4-0.6,0.6-1.3,0.8-2.1
				C1003.5,876.1,1003.6,875.3,1003.6,874.5z"/>
			<path class="st1" d="M1023.6,874.6c0,1.1-0.2,2.2-0.5,3.2c-0.3,1-0.8,1.8-1.3,2.6c-0.7,0.8-1.5,1.4-2.4,1.9
				c-0.9,0.4-2,0.7-3.2,0.7c-1.2,0-2.3-0.2-3.2-0.7c-0.9-0.4-1.8-1.1-2.4-1.9c-0.5-0.7-1-1.6-1.3-2.6c-0.3-1-0.5-2-0.5-3.2
				c0-2.3,0.6-4.3,1.8-5.7c1.4-1.7,3.2-2.5,5.7-2.5c1.2,0,2.3,0.2,3.2,0.6c0.9,0.4,1.7,1,2.4,1.9
				C1023,870.4,1023.6,872.3,1023.6,874.6z M1021.4,874.6c0-0.9-0.1-1.8-0.4-2.6c-0.2-0.8-0.6-1.5-1-2.1c-1-1.2-2.3-1.9-3.9-1.9
				c-0.8,0-1.5,0.2-2.2,0.5c-0.6,0.3-1.2,0.8-1.7,1.4c-0.4,0.6-0.8,1.3-1,2.1c-0.2,0.8-0.4,1.6-0.4,2.6c0,0.9,0.1,1.8,0.4,2.6
				c0.2,0.8,0.6,1.5,1,2.1c1,1.3,2.3,1.9,3.9,1.9c0.8,0,1.5-0.2,2.2-0.5c0.6-0.3,1.2-0.8,1.7-1.4c0.4-0.6,0.8-1.3,1-2.1
				C1021.3,876.4,1021.4,875.5,1021.4,874.6z"/>
			<path class="st1" d="M1041.1,874.6c0,1.1-0.2,2.2-0.5,3.2c-0.3,1-0.8,1.8-1.3,2.6c-0.7,0.8-1.5,1.4-2.4,1.9
				c-0.9,0.4-2,0.7-3.2,0.7c-1.2,0-2.3-0.2-3.2-0.7c-0.9-0.4-1.8-1.1-2.4-1.9c-0.5-0.7-1-1.6-1.3-2.6c-0.3-1-0.5-2-0.5-3.2
				c0-2.3,0.6-4.3,1.8-5.7c1.4-1.7,3.2-2.5,5.7-2.5c1.2,0,2.3,0.2,3.2,0.6c0.9,0.4,1.7,1,2.4,1.9
				C1040.5,870.4,1041.1,872.3,1041.1,874.6z M1039,874.6c0-0.9-0.1-1.8-0.4-2.6c-0.2-0.8-0.6-1.5-1-2.1c-1-1.2-2.3-1.9-3.9-1.9
				c-0.8,0-1.5,0.2-2.2,0.5c-0.6,0.3-1.2,0.8-1.7,1.4c-0.4,0.6-0.8,1.3-1,2.1c-0.2,0.8-0.4,1.6-0.4,2.6c0,0.9,0.1,1.8,0.4,2.6
				c0.2,0.8,0.6,1.5,1,2.1c1,1.3,2.3,1.9,3.9,1.9c0.8,0,1.5-0.2,2.2-0.5c0.6-0.3,1.2-0.8,1.7-1.4c0.4-0.6,0.8-1.3,1-2.1
				C1038.9,876.4,1039,875.5,1039,874.6z"/>
			<path class="st1" d="M1050.2,873.7l6.3,8.3c0.1,0.1,0.1,0.2,0.1,0.3c0,0.1-0.1,0.1-0.2,0.1h-1.2c-0.2,0-0.4,0-0.5-0.1
				c-0.2-0.1-0.3-0.2-0.4-0.3l-5.2-6.9l-1.9,2.2v4.7c0,0.3-0.1,0.4-0.4,0.4h-1.2c-0.3,0-0.4-0.1-0.4-0.4v-22.3
				c0-0.3,0.1-0.4,0.4-0.4h1.2c0.3,0,0.4,0.1,0.4,0.4v15.1l6.6-7.7c0.3-0.3,0.6-0.4,1-0.4h1.4c0.1,0,0.2,0,0.2,0.1
				c0,0.1,0,0.2-0.1,0.3L1050.2,873.7z"/>
		</g>
	</g>
</g>
<g>
	<g>
		<g>
			<path class="st0" d="M883.8,1795.8l6,0l-3,41.9h33.8c0-29.7-14.6-56-37.1-72.1L883.8,1795.8z"/>
			<path class="st0" d="M774,1795.8l6,0l0.2-30.2c-22.4,16.1-37.1,42.4-37.1,72.1H777L774,1795.8z"/>
			<path class="st0" d="M798.1,1795.9l6.1,0l-3.7,41.8h62.9l-3.7-41.8l6.1,0l-0.3-40.4c-10.3-4.2-21.6-6.5-33.5-6.5
				c-11.9,0-23.2,2.3-33.5,6.5L798.1,1795.9z"/>
		</g>
		<path class="st1" d="M920.6,1660.3c-24.3,9.1-55.8,14.1-88.7,14.1c-32.9,0-64.4-5-88.7-14.1l3.8,20.3c4.9,1.5,10,2.9,15.3,4.1l0,0
			l1.7,9.3c6.8,1.6,13.8,2.9,21,4l-0.1,9.9l-2.7,0l0,4.8c-3.4-0.6-6.8-1.2-10.2-1.9v0l1,10c3.9,0.8,7.8,1.4,11.8,2l-0.6,77.2l-5.7,0
			l2.7,37.6l2.7,0v0l4.7,0l7.6,0.1l3.3-37.6l-5.7,0l0.6-76c10.6,1.2,21.5,1.9,32.7,2.1v5.4h9.6v-5.4c11.2-0.2,22.1-0.9,32.7-2.1
			l0.6,76l-5.7,0l3.3,37.6l7.6-0.1l4.7,0v0l2.7,0l2.7-37.6l-5.7,0l-0.6-77.2c4-0.6,8-1.3,11.8-2l1-10v0c-3.4,0.7-6.8,1.3-10.2,1.9
			l0-4.8l-2.7,0l-0.1-9.9c7.2-1.1,14.3-2.4,21-4l1.7-9.3l0,0c5.3-1.2,10.4-2.6,15.3-4.1L920.6,1660.3z M797.2,1714.8l0.1-6.7l-2.7,0
			l0.1-8.7c10.5,1.2,21.4,1.9,32.5,2.1v15.2C816.9,1716.5,806.9,1715.9,797.2,1714.8z M869.3,1708.1l-2.7,0l0.1,6.7
			c-9.7,1.1-19.7,1.7-29.9,1.8v-15.2c11-0.2,21.9-0.9,32.5-2.1L869.3,1708.1z"/>
	</g>
	<g>
		<path class="st1" d="M959.2,1754.8c-0.7,1-1.7,1.7-2.9,2.2c-1.2,0.4-2.5,0.7-3.9,0.7c-0.5,0-1,0-1.7,0c-0.6,0-1.1-0.1-1.5-0.2
			c-0.6-0.2-1-0.5-1-0.9v-3.5c0-0.1,0-0.3,0-0.4c0-0.1,0-0.2,0.1-0.3c0.1-0.1,0.1-0.1,0.2-0.1c0.1,0,0.3,0,0.5,0.1
			c0.4,0.1,1,0.2,1.5,0.2c0.6,0,1.1,0,1.5,0c1,0,1.8-0.4,2.4-1.1c0.6-0.7,0.9-2.1,0.9-4.1v-25.6c0-0.2,0.1-0.3,0.2-0.4
			c0.1-0.1,0.3-0.2,0.4-0.2h4.2c0.2,0,0.3,0.1,0.4,0.2c0.1,0.1,0.2,0.2,0.2,0.4v25.4c0,1.5-0.1,2.9-0.4,4.3
			C960.2,1752.9,959.8,1754,959.2,1754.8z"/>
		<path class="st1" d="M994,1757.2c-0.2,0-0.4,0-0.5-0.1c-0.1,0-0.2-0.2-0.3-0.4l-3.4-8.6h-15.5l-3.4,8.6c-0.1,0.2-0.1,0.4-0.2,0.4
			c-0.1,0-0.3,0.1-0.5,0.1h-4.4c-0.6,0-0.8-0.2-0.6-0.7l13.9-34.7c0.1-0.3,0.2-0.4,0.2-0.5c0,0,0.2-0.1,0.5-0.1h4.4
			c0.3,0,0.5,0,0.5,0.1c0.1,0,0.1,0.2,0.2,0.5l13.9,34.7c0.2,0.4,0,0.7-0.6,0.7H994z M976.2,1743.2h11.6l-5.8-14.7L976.2,1743.2z"/>
		<path class="st1" d="M1009.2,1742.7v14c0,0.4-0.2,0.6-0.6,0.6h-4.2c-0.4,0-0.6-0.2-0.6-0.6v-34.7c0-0.2,0.1-0.3,0.2-0.4
			c0.1-0.1,0.2-0.2,0.4-0.2h9.6c3.5,0,6.3,0.9,8.4,2.6c2,1.7,3.1,4.4,3.1,8c0,1.7-0.3,3.3-0.9,4.6c-0.6,1.4-1.4,2.5-2.5,3.4
			c-1.1,0.9-2.3,1.6-3.8,2c-1.4,0.5-3,0.7-4.7,0.7H1009.2z M1009.2,1726.3v11.4h3.9c2.1,0,3.8-0.5,5.1-1.4c1.2-0.9,1.9-2.4,1.9-4.5
			c0-1.8-0.5-3.2-1.5-4.1c-1-0.9-2.3-1.4-3.9-1.4H1009.2z"/>
		<path class="st1" d="M1051.7,1757.2c-0.2,0-0.4,0-0.5-0.1c-0.1,0-0.2-0.2-0.3-0.4l-3.4-8.6H1032l-3.4,8.6
			c-0.1,0.2-0.1,0.4-0.2,0.4c-0.1,0-0.3,0.1-0.5,0.1h-4.4c-0.6,0-0.8-0.2-0.6-0.7l13.9-34.7c0.1-0.3,0.2-0.4,0.2-0.5
			c0,0,0.2-0.1,0.5-0.1h4.4c0.3,0,0.5,0,0.5,0.1c0.1,0,0.1,0.2,0.2,0.5l13.9,34.7c0.2,0.4,0,0.7-0.6,0.7H1051.7z M1033.9,1743.2
			h11.6l-5.8-14.7L1033.9,1743.2z"/>
		<path class="st1" d="M1082.5,1757.2c-0.3,0-0.4,0-0.6-0.1c-0.1-0.1-0.3-0.3-0.5-0.6l-15-25.8v25.8c0,0.3,0,0.5-0.1,0.6
			c-0.1,0.1-0.3,0.1-0.6,0.1h-4c-0.3,0-0.4,0-0.6-0.1c-0.1-0.1-0.2-0.3-0.2-0.6v-34.4c0-0.4,0.1-0.6,0.2-0.7
			c0.1-0.1,0.4-0.2,0.7-0.2h4.4c0.3,0,0.4,0,0.6,0.1c0.1,0.1,0.3,0.3,0.5,0.6l15,25.7V1722c0-0.3,0-0.5,0.1-0.6
			c0.1-0.1,0.3-0.1,0.6-0.1h4c0.3,0,0.5,0,0.6,0.1c0.1,0.1,0.1,0.3,0.1,0.6v34.4c0,0.4-0.1,0.6-0.2,0.7c-0.1,0.1-0.3,0.2-0.7,0.2
			H1082.5z"/>
		<path class="st1" d="M1097.6,1757.3c-0.6,0-1-0.1-1.1-0.2c-0.1-0.1-0.2-0.5-0.2-1.2v-33.3c0-0.6,0.1-1,0.2-1.1
			c0.1-0.1,0.5-0.2,1.1-0.2h16.9c0.3,0,0.6,0.1,0.6,0.2c0.1,0.1,0.1,0.3,0.1,0.6v3.5c0,0.3,0,0.5-0.1,0.6c-0.1,0.1-0.3,0.2-0.6,0.2
			h-12.9v9.7h12.3c0.5,0,0.7,0.3,0.7,0.8v3.6c0,0.5-0.2,0.8-0.7,0.8h-12.3v10.9h13.5c0.4,0,0.7,0.3,0.7,0.8v3.6
			c0,0.5-0.2,0.8-0.7,0.8H1097.6z"/>
		<path class="st1" d="M1139.8,1754.7c-0.8,0.9-1.9,1.6-3.2,2.3s-2.6,1-4.1,1.1c-0.8,0.1-1.6,0.1-2.5,0c-0.9-0.1-1.8-0.2-2.7-0.3
			c-0.9-0.1-1.7-0.3-2.4-0.5c-0.7-0.2-1.2-0.3-1.5-0.5c-0.5-0.2-0.8-0.4-0.9-0.5c-0.1-0.1-0.1-0.3,0-0.7l0.3-3.5
			c0-0.3,0.1-0.4,0.2-0.5c0.1-0.1,0.4,0,0.7,0.1c0.4,0.2,0.9,0.3,1.6,0.5c0.7,0.2,1.5,0.4,2.3,0.5c0.9,0.1,1.7,0.2,2.6,0.3
			c0.9,0,1.7,0,2.4-0.2c0.9-0.2,1.7-0.5,2.2-0.9c0.6-0.4,1-0.8,1.4-1.3c0.3-0.5,0.6-1,0.7-1.6c0.1-0.6,0.2-1.2,0.2-1.8
			c0-0.6-0.4-1.4-1.2-2.5c-0.8-1-1.9-2-3.4-2.9c-1.8-1-3.3-2-4.6-2.9c-1.3-0.9-2.4-1.8-3.2-2.7c-0.8-0.9-1.5-1.8-1.9-2.8
			c-0.4-1-0.6-2-0.6-3.1c0-1.3,0.3-2.5,0.8-3.7c0.6-1.2,1.3-2.2,2.3-3.1c1-0.9,2.1-1.6,3.5-2.1c1.3-0.5,2.8-0.8,4.5-0.8
			c1.7,0,3,0.1,4.1,0.3c1.1,0.2,2,0.5,2.7,0.7c0.3,0.1,0.6,0.3,0.6,0.4c0.1,0.1,0.1,0.3,0,0.5l-0.6,3.1c-0.1,0.3-0.2,0.6-0.3,0.7
			c-0.1,0.1-0.4,0.1-0.7,0c-0.5-0.2-1-0.3-1.6-0.5c-0.6-0.1-1.2-0.3-1.8-0.4c-0.6-0.1-1.2-0.2-1.7-0.2c-0.6,0-1.1,0-1.5,0
			c-1.8,0.3-3,0.9-3.7,1.7c-0.7,0.9-1.1,2-1.1,3.3c0,0.8,0.4,1.7,1.2,2.6c0.8,1,2,1.9,3.6,2.9c2,1.2,3.6,2.3,4.9,3.2
			c1.3,1,2.3,1.9,3,2.7c0.7,0.9,1.3,1.8,1.6,2.6c0.3,0.9,0.5,1.9,0.5,2.9C1142.6,1750.3,1141.7,1752.7,1139.8,1754.7z"/>
		<path class="st1" d="M1151,1757.3c-0.6,0-1-0.1-1.1-0.2c-0.1-0.1-0.2-0.5-0.2-1.2v-33.3c0-0.6,0.1-1,0.2-1.1
			c0.1-0.1,0.5-0.2,1.1-0.2h16.9c0.3,0,0.6,0.1,0.6,0.2c0.1,0.1,0.1,0.3,0.1,0.6v3.5c0,0.3,0,0.5-0.1,0.6c-0.1,0.1-0.3,0.2-0.6,0.2
			h-12.9v9.7h12.3c0.5,0,0.7,0.3,0.7,0.8v3.6c0,0.5-0.2,0.8-0.7,0.8h-12.3v10.9h13.5c0.4,0,0.7,0.3,0.7,0.8v3.6
			c0,0.5-0.2,0.8-0.7,0.8H1151z"/>
		<path class="st1" d="M986.7,1790.5c0,0.3-0.1,0.4-0.4,0.4H985c-0.3,0-0.4-0.1-0.4-0.4v-20.2c0-0.4,0-0.7,0.1-0.8
			c0.1-0.1,0.3-0.1,0.7-0.1h5.2c2.1,0,3.8,0.5,5,1.5c1.2,1.1,1.9,2.6,1.9,4.6c0,1-0.2,1.9-0.5,2.7c-0.4,0.8-0.9,1.4-1.5,2
			c-0.6,0.5-1.4,0.9-2.3,1.2c-0.9,0.3-1.8,0.4-2.8,0.3h-3.7V1790.5z M995.3,1775.5c0-1.4-0.4-2.4-1.1-3.2c-0.7-0.7-1.8-1.1-3.2-1.1
			h-4.3v8.7h2.3c0.9,0,1.8,0,2.5-0.1s1.4-0.3,1.9-0.6c0.5-0.3,1-0.7,1.3-1.3C995,1777.2,995.2,1776.5,995.3,1775.5z"/>
		<path class="st1" d="M1013.5,1790.5c0,0.3-0.1,0.4-0.4,0.4h-1.2c-0.3,0-0.4-0.1-0.4-0.4v-8.9c0-0.9-0.1-1.7-0.2-2.4
			c-0.2-0.6-0.4-1.2-0.7-1.6c-0.3-0.4-0.7-0.7-1.1-0.9c-0.4-0.2-0.9-0.3-1.5-0.3c-1.6,0-2.8,0.4-3.6,1.1c-0.8,0.8-1.3,1.8-1.3,3.1
			v9.7c0,0.3-0.1,0.4-0.4,0.4h-1.2c-0.3,0-0.4-0.1-0.4-0.4v-22.3c0-0.3,0.1-0.4,0.4-0.4h1.2c0.3,0,0.4,0.1,0.4,0.4v8.4
			c0.5-0.6,1.2-1.1,2-1.3c0.8-0.3,1.8-0.4,3-0.4c1.9,0,3.2,0.6,4.1,1.7c0.9,1.1,1.3,2.8,1.3,5V1790.5z"/>
		<path class="st1" d="M1026,1777c-0.3-0.1-0.8-0.2-1.4-0.2c-1.4,0-2.5,0.7-3.2,2.1c-0.5,1.1-0.8,2.5-0.8,4.2v7.3
			c0,0.3-0.1,0.4-0.4,0.4h-1.1c-0.3,0-0.4-0.1-0.4-0.4v-11.8c0-0.7,0-1.3,0-1.7c0-0.4,0-0.9,0-1.4c0-0.3,0.1-0.4,0.4-0.4h1.1
			c0.3,0,0.4,0.1,0.4,0.4v2.8c0.9-2.4,2.3-3.7,4.2-3.7c0.4,0,0.9,0.1,1.3,0.2c0.1,0,0.2,0.1,0.3,0.2c0.1,0.1,0.1,0.2,0.1,0.4v1.2
			c0,0.1,0,0.2-0.1,0.2C1026.2,1777,1026.1,1777,1026,1777z"/>
		<path class="st1" d="M1029.8,1777.6c-0.1,0.1-0.2,0.1-0.3,0c-0.1,0-0.1-0.1-0.1-0.2v-1.1c0-0.3,0.1-0.5,0.4-0.6
			c0.7-0.4,1.4-0.6,2.2-0.8c0.8-0.1,1.6-0.2,2.5-0.2c1.9,0,3.3,0.5,4.2,1.4c0.9,0.9,1.3,2.3,1.3,4.2v7.3c0,0.6,0,1.1,0,1.6
			c0,0.5,0,0.9,0.1,1.3c0,0.3-0.1,0.4-0.4,0.4h-1c-0.3,0-0.4-0.1-0.4-0.4v-2.2c-0.4,1-1.1,1.7-2,2.3c-1,0.5-2,0.8-3.1,0.8
			c-2,0-3.4-0.6-4.3-1.7c-0.3-0.4-0.5-0.8-0.7-1.3c-0.2-0.5-0.2-1-0.2-1.5c0-1.2,0.3-2.2,0.8-3c0.6-0.9,1.4-1.5,2.5-1.9
			c1.4-0.5,3.5-0.8,6.4-0.8h0.4v-0.9c0-1.2-0.3-2.1-0.8-2.8c-0.6-0.6-1.5-1-2.8-1c-0.9,0-1.7,0.1-2.5,0.3
			C1031.3,1776.9,1030.5,1777.2,1029.8,1777.6z M1038.1,1782.7h-0.6c-1.1,0-2,0-2.9,0.1c-0.8,0.1-1.5,0.3-2.1,0.5
			c-0.8,0.3-1.4,0.7-1.8,1.3c-0.4,0.6-0.6,1.3-0.6,2c0,0.5,0.1,0.9,0.2,1.3c0.2,0.4,0.4,0.7,0.7,1c0.6,0.5,1.4,0.7,2.3,0.7
			c0.7,0,1.3-0.1,1.9-0.4c0.6-0.3,1.1-0.7,1.5-1.2c0.4-0.5,0.8-1.1,1-1.9c0.2-0.7,0.3-1.6,0.3-2.6V1782.7z"/>
		<path class="st1" d="M1044.2,1789c1.2,0.5,2.4,0.7,3.7,0.7c1,0,1.9-0.3,2.6-0.8c0.7-0.5,1-1.2,1-2.1c0-0.5-0.2-1-0.6-1.5
			c-0.4-0.5-0.8-0.9-1.4-1.2c-0.6-0.3-1.2-0.6-1.8-0.9c-0.6-0.3-1.2-0.6-1.8-0.9c-0.7-0.4-1.2-0.9-1.5-1.4c-0.3-0.6-0.5-1.2-0.5-1.8
			c0-0.7,0.1-1.3,0.4-1.9c0.3-0.5,0.6-1,1.1-1.4c0.5-0.4,1-0.6,1.6-0.8s1.3-0.3,2-0.3c0.7,0,1.4,0,1.9,0.1c0.5,0.1,1.1,0.2,1.6,0.3
			c0.1,0,0.2,0.1,0.3,0.2c0.1,0.1,0.1,0.2,0.1,0.3l-0.1,0.9c0,0.2-0.1,0.3-0.2,0.3c-0.1,0-0.2,0-0.3,0c-0.5-0.2-1-0.3-1.4-0.4
			c-0.5-0.1-1.1-0.1-1.7-0.1c-2.2,0-3.4,0.9-3.4,2.7c0,0.4,0.1,0.8,0.4,1.1c0.3,0.3,0.8,0.7,1.5,1c0.6,0.3,1.2,0.6,1.8,0.9
			c0.6,0.3,1.2,0.6,1.9,1c0.6,0.3,1.1,0.8,1.5,1.5c0.4,0.7,0.6,1.4,0.6,2.2c0,0.8-0.2,1.4-0.5,2c-0.3,0.6-0.7,1-1.2,1.4
			c-0.5,0.4-1.1,0.6-1.8,0.8c-0.7,0.2-1.4,0.3-2.1,0.3c-0.4,0-0.8,0-1.1,0c-0.3,0-0.7,0-1-0.1c-0.3,0-0.6-0.1-0.9-0.1
			c-0.3-0.1-0.6-0.1-1-0.2c-0.3-0.1-0.4-0.3-0.4-0.5l0.1-1.1C1043.7,1789,1043.9,1788.9,1044.2,1789z"/>
		<path class="st1" d="M1058.2,1783.6c0,1,0.1,1.8,0.3,2.6c0.2,0.7,0.6,1.4,1.1,1.9c0.5,0.5,1,0.9,1.7,1.2c0.6,0.3,1.4,0.4,2.2,0.4
			c0.8,0,1.5-0.1,2.2-0.2s1.3-0.4,1.9-0.7c0.3-0.1,0.4,0,0.4,0.2v1.3c0,0.2-0.1,0.3-0.3,0.4c-0.6,0.3-1.3,0.4-2,0.6
			c-0.7,0.1-1.4,0.2-2.3,0.2c-2.4,0-4.2-0.7-5.4-2.1c-1.2-1.4-1.8-3.5-1.8-6.2c0-2.5,0.6-4.4,1.8-5.9c1.3-1.5,2.9-2.3,4.8-2.3
			c1.1,0,2,0.2,2.8,0.6c0.8,0.4,1.5,1,2,1.7c1,1.4,1.5,3.2,1.5,5.5c0,0.3,0,0.4,0,0.6c0,0.1,0,0.2-0.1,0.3c-0.1,0.1-0.2,0.1-0.3,0.1
			c-0.1,0-0.4,0-0.6,0H1058.2z M1066.9,1782c0-0.8-0.1-1.5-0.2-2.1c-0.2-0.6-0.4-1.2-0.7-1.7c-0.7-1.1-1.7-1.7-3.1-1.7
			c-1.4,0-2.5,0.6-3.4,1.7c-0.3,0.5-0.6,1.1-0.9,1.8c-0.2,0.7-0.4,1.3-0.4,2H1066.9z"/>
		<path class="st1" d="M1072.9,1768.1c0-0.3,0.1-0.4,0.4-0.4h1.1c0.3,0,0.4,0.1,0.4,0.4v9.2c0.5-0.8,1.2-1.4,2.1-1.9
			c0.9-0.5,1.9-0.7,3-0.7c4.3,0,6.5,2.7,6.5,8.2c0,1.1-0.1,2.1-0.3,3.1c-0.2,1-0.6,1.9-1.2,2.6c-0.5,0.8-1.2,1.4-2,1.8
			c-0.8,0.5-1.8,0.7-2.9,0.7c-2.3,0-4-1-5-3v2.3c0,0.3-0.1,0.4-0.4,0.4h-1.1c-0.3,0-0.4-0.1-0.4-0.4V1768.1z M1084.2,1782.9
			c0-0.8-0.1-1.6-0.2-2.4c-0.2-0.8-0.4-1.5-0.8-2.1c-0.4-0.6-0.9-1.1-1.5-1.5c-0.6-0.4-1.4-0.6-2.2-0.6c-0.8,0-1.5,0.2-2.1,0.5
			c-0.6,0.3-1.1,0.8-1.5,1.4c-0.4,0.6-0.7,1.3-0.9,2.1c-0.2,0.8-0.3,1.6-0.3,2.5c0,0.9,0.1,1.7,0.4,2.5c0.2,0.8,0.6,1.5,1,2.1
			c0.4,0.6,0.9,1.1,1.5,1.4c0.6,0.4,1.2,0.5,1.9,0.5c0.9,0,1.6-0.2,2.2-0.6c0.6-0.4,1.1-0.9,1.5-1.5c0.4-0.6,0.6-1.3,0.8-2.1
			C1084.2,1784.6,1084.2,1783.8,1084.2,1782.9z"/>
		<path class="st1" d="M1104.2,1783.1c0,1.1-0.2,2.2-0.5,3.2c-0.3,1-0.8,1.8-1.3,2.6c-0.7,0.8-1.5,1.4-2.4,1.9
			c-0.9,0.4-2,0.7-3.2,0.7c-1.2,0-2.3-0.2-3.2-0.7c-0.9-0.4-1.8-1.1-2.4-1.9c-0.5-0.7-1-1.6-1.3-2.6c-0.3-1-0.5-2-0.5-3.2
			c0-2.3,0.6-4.3,1.8-5.7c1.4-1.7,3.2-2.5,5.7-2.5c1.2,0,2.3,0.2,3.2,0.6c0.9,0.4,1.7,1,2.4,1.9
			C1103.6,1778.9,1104.2,1780.8,1104.2,1783.1z M1102.1,1783.1c0-0.9-0.1-1.8-0.4-2.6c-0.2-0.8-0.6-1.5-1-2.1
			c-1-1.2-2.3-1.9-3.9-1.9c-0.8,0-1.5,0.2-2.2,0.5c-0.6,0.3-1.2,0.8-1.7,1.4c-0.4,0.6-0.8,1.3-1,2.1c-0.2,0.8-0.4,1.6-0.4,2.6
			c0,0.9,0.1,1.8,0.4,2.6c0.2,0.8,0.6,1.5,1,2.1c1,1.3,2.3,1.9,3.9,1.9c0.8,0,1.5-0.2,2.2-0.5c0.6-0.3,1.2-0.8,1.7-1.4
			c0.4-0.6,0.8-1.3,1-2.1C1102,1784.9,1102.1,1784,1102.1,1783.1z"/>
		<path class="st1" d="M1121.8,1783.1c0,1.1-0.2,2.2-0.5,3.2c-0.3,1-0.8,1.8-1.3,2.6c-0.7,0.8-1.5,1.4-2.4,1.9
			c-0.9,0.4-2,0.7-3.2,0.7c-1.2,0-2.3-0.2-3.2-0.7c-0.9-0.4-1.8-1.1-2.4-1.9c-0.5-0.7-1-1.6-1.3-2.6c-0.3-1-0.5-2-0.5-3.2
			c0-2.3,0.6-4.3,1.8-5.7c1.4-1.7,3.2-2.5,5.7-2.5c1.2,0,2.3,0.2,3.2,0.6c0.9,0.4,1.7,1,2.4,1.9
			C1121.2,1778.9,1121.8,1780.8,1121.8,1783.1z M1119.7,1783.1c0-0.9-0.1-1.8-0.4-2.6c-0.2-0.8-0.6-1.5-1-2.1
			c-1-1.2-2.3-1.9-3.9-1.9c-0.8,0-1.5,0.2-2.2,0.5c-0.6,0.3-1.2,0.8-1.7,1.4c-0.4,0.6-0.8,1.3-1,2.1c-0.2,0.8-0.4,1.6-0.4,2.6
			c0,0.9,0.1,1.8,0.4,2.6c0.2,0.8,0.6,1.5,1,2.1c1,1.3,2.3,1.9,3.9,1.9c0.8,0,1.5-0.2,2.2-0.5c0.6-0.3,1.2-0.8,1.7-1.4
			c0.4-0.6,0.8-1.3,1-2.1C1119.5,1784.9,1119.7,1784,1119.7,1783.1z"/>
		<path class="st1" d="M1130.9,1782.2l6.3,8.3c0.1,0.1,0.1,0.2,0.1,0.3c0,0.1-0.1,0.1-0.2,0.1h-1.2c-0.2,0-0.4,0-0.5-0.1
			c-0.2-0.1-0.3-0.2-0.4-0.3l-5.2-6.9l-1.9,2.2v4.7c0,0.3-0.1,0.4-0.4,0.4h-1.2c-0.3,0-0.4-0.1-0.4-0.4v-22.3c0-0.3,0.1-0.4,0.4-0.4
			h1.2c0.3,0,0.4,0.1,0.4,0.4v15.1l6.6-7.7c0.3-0.3,0.6-0.4,1-0.4h1.4c0.1,0,0.2,0,0.2,0.1c0,0.1,0,0.2-0.1,0.3L1130.9,1782.2z"/>
	</g>
	<g>
		<polygon class="st0" points="1212.8,1837.7 1209.8,1837.7 1209.8,1671.2 943.2,1671.2 943.2,1668.2 1212.8,1668.2 		"/>
	</g>
</g>
<g>
	<rect x="3" y="999" class="st0" width="650" height="500"/>
	<g>
		<g>
			<g>
				<path class="st1" d="M233.8,1295.8l6,0l-3,41.9h33.8c0-29.7-14.6-56-37.1-72.1L233.8,1295.8z"/>
				<path class="st1" d="M124,1295.8l6,0l0.2-30.2c-22.4,16.1-37.1,42.4-37.1,72.1H127L124,1295.8z"/>
				<path class="st1" d="M148.1,1295.9l6.1,0l-3.7,41.8h62.9l-3.7-41.8l6.1,0l-0.3-40.4c-10.3-4.2-21.6-6.5-33.5-6.5
					c-11.9,0-23.2,2.3-33.5,6.5L148.1,1295.9z"/>
			</g>
			<path d="M270.6,1160.3c-24.3,9.1-55.8,14.1-88.7,14.1c-32.9,0-64.4-5-88.7-14.1l3.8,20.3c4.9,1.5,10,2.9,15.3,4.1l0,0l1.7,9.3
				c6.8,1.6,13.8,2.9,21,4l-0.1,9.9l-2.7,0l0,4.8c-3.4-0.6-6.8-1.2-10.2-1.9v0l1,10c3.9,0.8,7.8,1.4,11.8,2l-0.6,77.2l-5.7,0
				l2.7,37.6l2.7,0v0l4.7,0l7.6,0.1l3.3-37.6l-5.7,0l0.6-76c10.6,1.2,21.5,1.9,32.7,2.1v5.4h9.6v-5.4c11.2-0.2,22.1-0.9,32.7-2.1
				l0.6,76l-5.7,0l3.3,37.6l7.6-0.1l4.7,0v0l2.7,0l2.7-37.6l-5.7,0l-0.6-77.2c4-0.6,8-1.3,11.8-2l1-10v0c-3.4,0.7-6.8,1.3-10.2,1.9
				l0-4.8l-2.7,0l-0.1-9.9c7.2-1.1,14.3-2.4,21-4l1.7-9.3l0,0c5.3-1.2,10.4-2.6,15.3-4.1L270.6,1160.3z M147.2,1214.8l0.1-6.7
				l-2.7,0l0.1-8.7c10.5,1.2,21.4,1.9,32.5,2.1v15.2C166.9,1216.5,156.9,1215.9,147.2,1214.8z M219.3,1208.1l-2.7,0l0.1,6.7
				c-9.7,1.1-19.7,1.7-29.9,1.8v-15.2c11-0.2,21.9-0.9,32.5-2.1L219.3,1208.1z"/>
		</g>
		<g>
			<path class="st1" d="M309.2,1254.8c-0.7,1-1.7,1.7-2.9,2.2c-1.2,0.4-2.5,0.7-3.9,0.7c-0.5,0-1,0-1.7,0c-0.6,0-1.1-0.1-1.5-0.2
				c-0.6-0.2-1-0.5-1-0.9v-3.5c0-0.1,0-0.3,0-0.4c0-0.1,0-0.2,0.1-0.3c0.1-0.1,0.1-0.1,0.2-0.1c0.1,0,0.3,0,0.5,0.1
				c0.4,0.1,1,0.2,1.5,0.2c0.6,0,1.1,0,1.5,0c1,0,1.8-0.4,2.4-1.1c0.6-0.7,0.9-2.1,0.9-4.1v-25.6c0-0.2,0.1-0.3,0.2-0.4
				c0.1-0.1,0.3-0.2,0.4-0.2h4.2c0.2,0,0.3,0.1,0.4,0.2c0.1,0.1,0.2,0.2,0.2,0.4v25.4c0,1.5-0.1,2.9-0.4,4.3
				C310.2,1252.9,309.8,1254,309.2,1254.8z"/>
			<path class="st1" d="M344,1257.2c-0.2,0-0.4,0-0.5-0.1c-0.1,0-0.2-0.2-0.3-0.4l-3.4-8.6h-15.5l-3.4,8.6c-0.1,0.2-0.1,0.4-0.2,0.4
				c-0.1,0-0.3,0.1-0.5,0.1h-4.4c-0.6,0-0.8-0.2-0.6-0.7l13.9-34.7c0.1-0.3,0.2-0.4,0.2-0.5c0,0,0.2-0.1,0.5-0.1h4.4
				c0.3,0,0.5,0,0.5,0.1c0.1,0,0.1,0.2,0.2,0.5l13.9,34.7c0.2,0.4,0,0.7-0.6,0.7H344z M326.2,1243.2h11.6l-5.8-14.7L326.2,1243.2z"
				/>
			<path class="st1" d="M359.2,1242.7v14c0,0.4-0.2,0.6-0.6,0.6h-4.2c-0.4,0-0.6-0.2-0.6-0.6v-34.7c0-0.2,0.1-0.3,0.2-0.4
				c0.1-0.1,0.2-0.2,0.4-0.2h9.6c3.5,0,6.3,0.9,8.4,2.6c2,1.7,3.1,4.4,3.1,8c0,1.7-0.3,3.3-0.9,4.6c-0.6,1.4-1.4,2.5-2.5,3.4
				c-1.1,0.9-2.3,1.6-3.8,2c-1.4,0.5-3,0.7-4.7,0.7H359.2z M359.2,1226.3v11.4h3.9c2.1,0,3.8-0.5,5.1-1.4c1.2-0.9,1.9-2.4,1.9-4.5
				c0-1.8-0.5-3.2-1.5-4.1c-1-0.9-2.3-1.4-3.9-1.4H359.2z"/>
			<path class="st1" d="M401.7,1257.2c-0.2,0-0.4,0-0.5-0.1c-0.1,0-0.2-0.2-0.3-0.4l-3.4-8.6H382l-3.4,8.6c-0.1,0.2-0.1,0.4-0.2,0.4
				c-0.1,0-0.3,0.1-0.5,0.1h-4.4c-0.6,0-0.8-0.2-0.6-0.7l13.9-34.7c0.1-0.3,0.2-0.4,0.2-0.5c0,0,0.2-0.1,0.5-0.1h4.4
				c0.3,0,0.5,0,0.5,0.1c0.1,0,0.1,0.2,0.2,0.5l13.9,34.7c0.2,0.4,0,0.7-0.6,0.7H401.7z M383.9,1243.2h11.6l-5.8-14.7L383.9,1243.2z
				"/>
			<path class="st1" d="M432.5,1257.2c-0.3,0-0.4,0-0.6-0.1c-0.1-0.1-0.3-0.3-0.5-0.6l-15-25.8v25.8c0,0.3,0,0.5-0.1,0.6
				c-0.1,0.1-0.3,0.1-0.6,0.1h-4c-0.3,0-0.4,0-0.6-0.1c-0.1-0.1-0.2-0.3-0.2-0.6v-34.4c0-0.4,0.1-0.6,0.2-0.7
				c0.1-0.1,0.4-0.2,0.7-0.2h4.4c0.3,0,0.4,0,0.6,0.1c0.1,0.1,0.3,0.3,0.5,0.6l15,25.7V1222c0-0.3,0-0.5,0.1-0.6
				c0.1-0.1,0.3-0.1,0.6-0.1h4c0.3,0,0.5,0,0.6,0.1c0.1,0.1,0.1,0.3,0.1,0.6v34.4c0,0.4-0.1,0.6-0.2,0.7c-0.1,0.1-0.3,0.2-0.7,0.2
				H432.5z"/>
			<path class="st1" d="M447.6,1257.3c-0.6,0-1-0.1-1.1-0.2c-0.1-0.1-0.2-0.5-0.2-1.2v-33.3c0-0.6,0.1-1,0.2-1.1
				c0.1-0.1,0.5-0.2,1.1-0.2h16.9c0.3,0,0.6,0.1,0.6,0.2c0.1,0.1,0.1,0.3,0.1,0.6v3.5c0,0.3,0,0.5-0.1,0.6c-0.1,0.1-0.3,0.2-0.6,0.2
				h-12.9v9.7h12.3c0.5,0,0.7,0.3,0.7,0.8v3.6c0,0.5-0.2,0.8-0.7,0.8h-12.3v10.9H465c0.4,0,0.7,0.3,0.7,0.8v3.6
				c0,0.5-0.2,0.8-0.7,0.8H447.6z"/>
			<path class="st1" d="M489.8,1254.7c-0.8,0.9-1.9,1.6-3.2,2.3c-1.3,0.6-2.6,1-4.1,1.1c-0.8,0.1-1.6,0.1-2.5,0
				c-0.9-0.1-1.8-0.2-2.7-0.3c-0.9-0.1-1.7-0.3-2.4-0.5c-0.7-0.2-1.2-0.3-1.5-0.5c-0.5-0.2-0.8-0.4-0.9-0.5c-0.1-0.1-0.1-0.3,0-0.7
				l0.3-3.5c0-0.3,0.1-0.4,0.2-0.5c0.1-0.1,0.4,0,0.7,0.1c0.4,0.2,0.9,0.3,1.6,0.5c0.7,0.2,1.5,0.4,2.3,0.5c0.9,0.1,1.7,0.2,2.6,0.3
				c0.9,0,1.7,0,2.4-0.2c0.9-0.2,1.7-0.5,2.2-0.9c0.6-0.4,1-0.8,1.4-1.3c0.3-0.5,0.6-1,0.7-1.6c0.1-0.6,0.2-1.2,0.2-1.8
				c0-0.6-0.4-1.4-1.2-2.5c-0.8-1-1.9-2-3.4-2.9c-1.8-1-3.3-2-4.6-2.9c-1.3-0.9-2.4-1.8-3.2-2.7c-0.8-0.9-1.5-1.8-1.9-2.8
				c-0.4-1-0.6-2-0.6-3.1c0-1.3,0.3-2.5,0.8-3.7c0.6-1.2,1.3-2.2,2.3-3.1c1-0.9,2.1-1.6,3.5-2.1c1.3-0.5,2.8-0.8,4.5-0.8
				c1.7,0,3,0.1,4.1,0.3c1.1,0.2,2,0.5,2.7,0.7c0.3,0.1,0.6,0.3,0.6,0.4c0.1,0.1,0.1,0.3,0,0.5l-0.6,3.1c-0.1,0.3-0.2,0.6-0.3,0.7
				c-0.1,0.1-0.4,0.1-0.7,0c-0.5-0.2-1-0.3-1.6-0.5c-0.6-0.1-1.2-0.3-1.8-0.4c-0.6-0.1-1.2-0.2-1.7-0.2c-0.6,0-1.1,0-1.5,0
				c-1.8,0.3-3,0.9-3.7,1.7c-0.7,0.9-1.1,2-1.1,3.3c0,0.8,0.4,1.7,1.2,2.6c0.8,1,2,1.9,3.6,2.9c2,1.2,3.6,2.3,4.9,3.2
				c1.3,1,2.3,1.9,3,2.7c0.7,0.9,1.3,1.8,1.6,2.6c0.3,0.9,0.5,1.9,0.5,2.9C492.6,1250.3,491.7,1252.7,489.8,1254.7z"/>
			<path class="st1" d="M501,1257.3c-0.6,0-1-0.1-1.1-0.2c-0.1-0.1-0.2-0.5-0.2-1.2v-33.3c0-0.6,0.1-1,0.2-1.1
				c0.1-0.1,0.5-0.2,1.1-0.2h16.9c0.3,0,0.6,0.1,0.6,0.2c0.1,0.1,0.1,0.3,0.1,0.6v3.5c0,0.3,0,0.5-0.1,0.6c-0.1,0.1-0.3,0.2-0.6,0.2
				h-12.9v9.7h12.3c0.5,0,0.7,0.3,0.7,0.8v3.6c0,0.5-0.2,0.8-0.7,0.8h-12.3v10.9h13.5c0.4,0,0.7,0.3,0.7,0.8v3.6
				c0,0.5-0.2,0.8-0.7,0.8H501z"/>
			<path class="st1" d="M336.7,1290.5c0,0.3-0.1,0.4-0.4,0.4H335c-0.3,0-0.4-0.1-0.4-0.4v-20.2c0-0.4,0-0.7,0.1-0.8
				c0.1-0.1,0.3-0.1,0.7-0.1h5.2c2.1,0,3.8,0.5,5,1.5c1.2,1.1,1.9,2.6,1.9,4.6c0,1-0.2,1.9-0.5,2.7c-0.4,0.8-0.9,1.4-1.5,2
				c-0.6,0.5-1.4,0.9-2.3,1.2c-0.9,0.3-1.8,0.4-2.8,0.3h-3.7V1290.5z M345.3,1275.5c0-1.4-0.4-2.4-1.1-3.2c-0.7-0.7-1.8-1.1-3.2-1.1
				h-4.3v8.7h2.3c0.9,0,1.8,0,2.5-0.1c0.7-0.1,1.4-0.3,1.9-0.6c0.5-0.3,1-0.7,1.3-1.3C345,1277.2,345.2,1276.5,345.3,1275.5z"/>
			<path class="st1" d="M363.5,1290.5c0,0.3-0.1,0.4-0.4,0.4h-1.2c-0.3,0-0.4-0.1-0.4-0.4v-8.9c0-0.9-0.1-1.7-0.2-2.4
				c-0.2-0.6-0.4-1.2-0.7-1.6c-0.3-0.4-0.7-0.7-1.1-0.9c-0.4-0.2-0.9-0.3-1.5-0.3c-1.6,0-2.8,0.4-3.6,1.1c-0.8,0.8-1.3,1.8-1.3,3.1
				v9.7c0,0.3-0.1,0.4-0.4,0.4h-1.2c-0.3,0-0.4-0.1-0.4-0.4v-22.3c0-0.3,0.1-0.4,0.4-0.4h1.2c0.3,0,0.4,0.1,0.4,0.4v8.4
				c0.5-0.6,1.2-1.1,2-1.3c0.8-0.3,1.8-0.4,3-0.4c1.9,0,3.2,0.6,4.1,1.7c0.9,1.1,1.3,2.8,1.3,5V1290.5z"/>
			<path class="st1" d="M376,1277c-0.3-0.1-0.8-0.2-1.4-0.2c-1.4,0-2.5,0.7-3.2,2.1c-0.5,1.1-0.8,2.5-0.8,4.2v7.3
				c0,0.3-0.1,0.4-0.4,0.4h-1.1c-0.3,0-0.4-0.1-0.4-0.4v-11.8c0-0.7,0-1.3,0-1.7c0-0.4,0-0.9,0-1.4c0-0.3,0.1-0.4,0.4-0.4h1.1
				c0.3,0,0.4,0.1,0.4,0.4v2.8c0.9-2.4,2.3-3.7,4.2-3.7c0.4,0,0.9,0.1,1.3,0.2c0.1,0,0.2,0.1,0.3,0.2c0.1,0.1,0.1,0.2,0.1,0.4v1.2
				c0,0.1,0,0.2-0.1,0.2C376.2,1277,376.1,1277,376,1277z"/>
			<path class="st1" d="M379.8,1277.6c-0.1,0.1-0.2,0.1-0.3,0c-0.1,0-0.1-0.1-0.1-0.2v-1.1c0-0.3,0.1-0.5,0.4-0.6
				c0.7-0.4,1.4-0.6,2.2-0.8c0.8-0.1,1.6-0.2,2.5-0.2c1.9,0,3.3,0.5,4.2,1.4c0.9,0.9,1.3,2.3,1.3,4.2v7.3c0,0.6,0,1.1,0,1.6
				c0,0.5,0,0.9,0.1,1.3c0,0.3-0.1,0.4-0.4,0.4h-1c-0.3,0-0.4-0.1-0.4-0.4v-2.2c-0.4,1-1.1,1.7-2,2.3c-1,0.5-2,0.8-3.1,0.8
				c-2,0-3.4-0.6-4.3-1.7c-0.3-0.4-0.5-0.8-0.7-1.3c-0.2-0.5-0.2-1-0.2-1.5c0-1.2,0.3-2.2,0.8-3c0.6-0.9,1.4-1.5,2.5-1.9
				c1.4-0.5,3.5-0.8,6.4-0.8h0.4v-0.9c0-1.2-0.3-2.1-0.8-2.8c-0.6-0.6-1.5-1-2.8-1c-0.9,0-1.7,0.1-2.5,0.3
				C381.3,1276.9,380.5,1277.2,379.8,1277.6z M388.1,1282.7h-0.6c-1.1,0-2,0-2.9,0.1c-0.8,0.1-1.5,0.3-2.1,0.5
				c-0.8,0.3-1.4,0.7-1.8,1.3c-0.4,0.6-0.6,1.3-0.6,2c0,0.5,0.1,0.9,0.2,1.3c0.2,0.4,0.4,0.7,0.7,1c0.6,0.5,1.4,0.7,2.3,0.7
				c0.7,0,1.3-0.1,1.9-0.4c0.6-0.3,1.1-0.7,1.5-1.2c0.4-0.5,0.8-1.1,1-1.9c0.2-0.7,0.3-1.6,0.3-2.6V1282.7z"/>
			<path class="st1" d="M394.2,1289c1.2,0.5,2.4,0.7,3.7,0.7c1,0,1.9-0.3,2.6-0.8c0.7-0.5,1-1.2,1-2.1c0-0.5-0.2-1-0.6-1.5
				c-0.4-0.5-0.8-0.9-1.4-1.2c-0.6-0.3-1.2-0.6-1.8-0.9c-0.6-0.3-1.2-0.6-1.8-0.9c-0.7-0.4-1.2-0.9-1.5-1.4
				c-0.3-0.6-0.5-1.2-0.5-1.8c0-0.7,0.1-1.3,0.4-1.9c0.3-0.5,0.6-1,1.1-1.4c0.5-0.4,1-0.6,1.6-0.8s1.3-0.3,2-0.3
				c0.7,0,1.4,0,1.9,0.1c0.5,0.1,1.1,0.2,1.6,0.3c0.1,0,0.2,0.1,0.3,0.2c0.1,0.1,0.1,0.2,0.1,0.3l-0.1,0.9c0,0.2-0.1,0.3-0.2,0.3
				c-0.1,0-0.2,0-0.3,0c-0.5-0.2-1-0.3-1.4-0.4c-0.5-0.1-1.1-0.1-1.7-0.1c-2.2,0-3.4,0.9-3.4,2.7c0,0.4,0.1,0.8,0.4,1.1
				c0.3,0.3,0.8,0.7,1.5,1c0.6,0.3,1.2,0.6,1.8,0.9c0.6,0.3,1.2,0.6,1.9,1c0.6,0.3,1.1,0.8,1.5,1.5c0.4,0.7,0.6,1.4,0.6,2.2
				c0,0.8-0.2,1.4-0.5,2c-0.3,0.6-0.7,1-1.2,1.4c-0.5,0.4-1.1,0.6-1.8,0.8c-0.7,0.2-1.4,0.3-2.1,0.3c-0.4,0-0.8,0-1.1,0
				c-0.3,0-0.7,0-1-0.1c-0.3,0-0.6-0.1-0.9-0.1c-0.3-0.1-0.6-0.1-1-0.2c-0.3-0.1-0.4-0.3-0.4-0.5l0.1-1.1
				C393.7,1289,393.9,1288.9,394.2,1289z"/>
			<path class="st1" d="M408.2,1283.6c0,1,0.1,1.8,0.3,2.6c0.2,0.7,0.6,1.4,1.1,1.9c0.5,0.5,1,0.9,1.7,1.2c0.6,0.3,1.4,0.4,2.2,0.4
				c0.8,0,1.5-0.1,2.2-0.2c0.7-0.1,1.3-0.4,1.9-0.7c0.3-0.1,0.4,0,0.4,0.2v1.3c0,0.2-0.1,0.3-0.3,0.4c-0.6,0.3-1.3,0.4-2,0.6
				c-0.7,0.1-1.4,0.2-2.3,0.2c-2.4,0-4.2-0.7-5.4-2.1c-1.2-1.4-1.8-3.5-1.8-6.2c0-2.5,0.6-4.4,1.8-5.9c1.3-1.5,2.9-2.3,4.8-2.3
				c1.1,0,2,0.2,2.8,0.6c0.8,0.4,1.5,1,2,1.7c1,1.4,1.5,3.2,1.5,5.5c0,0.3,0,0.4,0,0.6c0,0.1,0,0.2-0.1,0.3
				c-0.1,0.1-0.2,0.1-0.3,0.1c-0.1,0-0.4,0-0.6,0H408.2z M416.9,1282c0-0.8-0.1-1.5-0.2-2.1c-0.2-0.6-0.4-1.2-0.7-1.7
				c-0.7-1.1-1.7-1.7-3.1-1.7c-1.4,0-2.5,0.6-3.4,1.7c-0.3,0.5-0.6,1.1-0.9,1.8c-0.2,0.7-0.4,1.3-0.4,2H416.9z"/>
			<path class="st1" d="M422.9,1268.1c0-0.3,0.1-0.4,0.4-0.4h1.1c0.3,0,0.4,0.1,0.4,0.4v9.2c0.5-0.8,1.2-1.4,2.1-1.9
				c0.9-0.5,1.9-0.7,3-0.7c4.3,0,6.5,2.7,6.5,8.2c0,1.1-0.1,2.1-0.3,3.1c-0.2,1-0.6,1.9-1.2,2.6c-0.5,0.8-1.2,1.4-2,1.8
				c-0.8,0.5-1.8,0.7-2.9,0.7c-2.3,0-4-1-5-3v2.3c0,0.3-0.1,0.4-0.4,0.4h-1.1c-0.3,0-0.4-0.1-0.4-0.4V1268.1z M434.2,1282.9
				c0-0.8-0.1-1.6-0.2-2.4c-0.2-0.8-0.4-1.5-0.8-2.1c-0.4-0.6-0.9-1.1-1.5-1.5c-0.6-0.4-1.4-0.6-2.2-0.6c-0.8,0-1.5,0.2-2.1,0.5
				c-0.6,0.3-1.1,0.8-1.5,1.4c-0.4,0.6-0.7,1.3-0.9,2.1c-0.2,0.8-0.3,1.6-0.3,2.5c0,0.9,0.1,1.7,0.4,2.5c0.2,0.8,0.6,1.5,1,2.1
				c0.4,0.6,0.9,1.1,1.5,1.4c0.6,0.4,1.2,0.5,1.9,0.5c0.9,0,1.6-0.2,2.2-0.6c0.6-0.4,1.1-0.9,1.5-1.5c0.4-0.6,0.6-1.3,0.8-2.1
				C434.2,1284.6,434.2,1283.8,434.2,1282.9z"/>
			<path class="st1" d="M454.2,1283.1c0,1.1-0.2,2.2-0.5,3.2c-0.3,1-0.8,1.8-1.3,2.6c-0.7,0.8-1.5,1.4-2.4,1.9
				c-0.9,0.4-2,0.7-3.2,0.7c-1.2,0-2.3-0.2-3.2-0.7c-0.9-0.4-1.8-1.1-2.4-1.9c-0.5-0.7-1-1.6-1.3-2.6c-0.3-1-0.5-2-0.5-3.2
				c0-2.3,0.6-4.3,1.8-5.7c1.4-1.7,3.2-2.5,5.7-2.5c1.2,0,2.3,0.2,3.2,0.6c0.9,0.4,1.7,1,2.4,1.9
				C453.6,1278.9,454.2,1280.8,454.2,1283.1z M452.1,1283.1c0-0.9-0.1-1.8-0.4-2.6c-0.2-0.8-0.6-1.5-1-2.1c-1-1.2-2.3-1.9-3.9-1.9
				c-0.8,0-1.5,0.2-2.2,0.5c-0.6,0.3-1.2,0.8-1.7,1.4c-0.4,0.6-0.8,1.3-1,2.1c-0.2,0.8-0.4,1.6-0.4,2.6c0,0.9,0.1,1.8,0.4,2.6
				c0.2,0.8,0.6,1.5,1,2.1c1,1.3,2.3,1.9,3.9,1.9c0.8,0,1.5-0.2,2.2-0.5c0.6-0.3,1.2-0.8,1.7-1.4c0.4-0.6,0.8-1.3,1-2.1
				C452,1284.9,452.1,1284,452.1,1283.1z"/>
			<path class="st1" d="M471.8,1283.1c0,1.1-0.2,2.2-0.5,3.2c-0.3,1-0.8,1.8-1.3,2.6c-0.7,0.8-1.5,1.4-2.4,1.9
				c-0.9,0.4-2,0.7-3.2,0.7c-1.2,0-2.3-0.2-3.2-0.7c-0.9-0.4-1.8-1.1-2.4-1.9c-0.5-0.7-1-1.6-1.3-2.6c-0.3-1-0.5-2-0.5-3.2
				c0-2.3,0.6-4.3,1.8-5.7c1.4-1.7,3.2-2.5,5.7-2.5c1.2,0,2.3,0.2,3.2,0.6c0.9,0.4,1.7,1,2.4,1.9
				C471.2,1278.9,471.8,1280.8,471.8,1283.1z M469.7,1283.1c0-0.9-0.1-1.8-0.4-2.6c-0.2-0.8-0.6-1.5-1-2.1c-1-1.2-2.3-1.9-3.9-1.9
				c-0.8,0-1.5,0.2-2.2,0.5c-0.6,0.3-1.2,0.8-1.7,1.4c-0.4,0.6-0.8,1.3-1,2.1c-0.2,0.8-0.4,1.6-0.4,2.6c0,0.9,0.1,1.8,0.4,2.6
				c0.2,0.8,0.6,1.5,1,2.1c1,1.3,2.3,1.9,3.9,1.9c0.8,0,1.5-0.2,2.2-0.5c0.6-0.3,1.2-0.8,1.7-1.4c0.4-0.6,0.8-1.3,1-2.1
				C469.5,1284.9,469.7,1284,469.7,1283.1z"/>
			<path class="st1" d="M480.9,1282.2l6.3,8.3c0.1,0.1,0.1,0.2,0.1,0.3c0,0.1-0.1,0.1-0.2,0.1h-1.2c-0.2,0-0.4,0-0.5-0.1
				c-0.2-0.1-0.3-0.2-0.4-0.3l-5.2-6.9l-1.9,2.2v4.7c0,0.3-0.1,0.4-0.4,0.4h-1.2c-0.3,0-0.4-0.1-0.4-0.4v-22.3
				c0-0.3,0.1-0.4,0.4-0.4h1.2c0.3,0,0.4,0.1,0.4,0.4v15.1l6.6-7.7c0.3-0.3,0.6-0.4,1-0.4h1.4c0.1,0,0.2,0,0.2,0.1
				c0,0.1,0,0.2-0.1,0.3L480.9,1282.2z"/>
		</g>
		<g>
			<polygon class="st1" points="562.8,1337.7 559.8,1337.7 559.8,1171.2 293.2,1171.2 293.2,1168.2 562.8,1168.2 			"/>
		</g>
	</g>
</g>
<g>
	<g>
		<g>
			<path class="st0" d="M883.8,295.8l6,0l-3,41.9h33.8c0-29.7-14.6-56-37.1-72.1L883.8,295.8z"/>
			<path class="st0" d="M774,295.8l6,0l0.2-30.2c-22.4,16.1-37.1,42.4-37.1,72.1H777L774,295.8z"/>
			<path class="st0" d="M798.1,295.9l6.1,0l-3.7,41.8h62.9l-3.7-41.8l6.1,0l-0.3-40.4c-10.3-4.2-21.6-6.5-33.5-6.5
				c-11.9,0-23.2,2.3-33.5,6.5L798.1,295.9z"/>
		</g>
		<path d="M920.6,160.3c-24.3,9.1-55.8,14.1-88.7,14.1c-32.9,0-64.4-5-88.7-14.1l3.8,20.3c4.9,1.5,10,2.9,15.3,4.1l0,0l1.7,9.3
			c6.8,1.6,13.8,2.9,21,4L785,208l-2.7,0l0,4.8c-3.4-0.6-6.8-1.2-10.2-1.9v0l1,10c3.9,0.8,7.8,1.4,11.8,2l-0.6,77.2l-5.7,0l2.7,37.6
			l2.7,0v0l4.7,0l7.6,0.1l3.3-37.6l-5.7,0l0.6-76c10.6,1.2,21.5,1.9,32.7,2.1v5.4h9.6v-5.4c11.2-0.2,22.1-0.9,32.7-2.1l0.6,76
			l-5.7,0l3.3,37.6l7.6-0.1l4.7,0v0l2.7,0l2.7-37.6l-5.7,0l-0.6-77.2c4-0.6,8-1.3,11.8-2l1-10v0c-3.4,0.7-6.8,1.3-10.2,1.9l0-4.8
			l-2.7,0l-0.1-9.9c7.2-1.1,14.3-2.4,21-4l1.7-9.3l0,0c5.3-1.2,10.4-2.6,15.3-4.1L920.6,160.3z M797.2,214.8l0.1-6.7l-2.7,0l0.1-8.7
			c10.5,1.2,21.4,1.9,32.5,2.1v15.2C816.9,216.5,806.9,215.9,797.2,214.8z M869.3,208.1l-2.7,0l0.1,6.7c-9.7,1.1-19.7,1.7-29.9,1.8
			v-15.2c11-0.2,21.9-0.9,32.5-2.1L869.3,208.1z"/>
	</g>
	<g>
		<path d="M959.2,254.8c-0.7,1-1.7,1.7-2.9,2.2c-1.2,0.4-2.5,0.7-3.9,0.7c-0.5,0-1,0-1.7,0c-0.6,0-1.1-0.1-1.5-0.2
			c-0.6-0.2-1-0.5-1-0.9V253c0-0.1,0-0.3,0-0.4c0-0.1,0-0.2,0.1-0.3c0.1-0.1,0.1-0.1,0.2-0.1c0.1,0,0.3,0,0.5,0.1
			c0.4,0.1,1,0.2,1.5,0.2c0.6,0,1.1,0,1.5,0c1,0,1.8-0.4,2.4-1.1c0.6-0.7,0.9-2.1,0.9-4.1v-25.6c0-0.2,0.1-0.3,0.2-0.4
			c0.1-0.1,0.3-0.2,0.4-0.2h4.2c0.2,0,0.3,0.1,0.4,0.2c0.1,0.1,0.2,0.2,0.2,0.4v25.4c0,1.5-0.1,2.9-0.4,4.3
			C960.2,252.9,959.8,254,959.2,254.8z"/>
		<path d="M994,257.2c-0.2,0-0.4,0-0.5-0.1c-0.1,0-0.2-0.2-0.3-0.4l-3.4-8.6h-15.5l-3.4,8.6c-0.1,0.2-0.1,0.4-0.2,0.4
			c-0.1,0-0.3,0.1-0.5,0.1h-4.4c-0.6,0-0.8-0.2-0.6-0.7l13.9-34.7c0.1-0.3,0.2-0.4,0.2-0.5c0,0,0.2-0.1,0.5-0.1h4.4
			c0.3,0,0.5,0,0.5,0.1c0.1,0,0.1,0.2,0.2,0.5l13.9,34.7c0.2,0.4,0,0.7-0.6,0.7H994z M976.2,243.2h11.6l-5.8-14.7L976.2,243.2z"/>
		<path d="M1009.2,242.7v14c0,0.4-0.2,0.6-0.6,0.6h-4.2c-0.4,0-0.6-0.2-0.6-0.6v-34.7c0-0.2,0.1-0.3,0.2-0.4
			c0.1-0.1,0.2-0.2,0.4-0.2h9.6c3.5,0,6.3,0.9,8.4,2.6c2,1.7,3.1,4.4,3.1,8c0,1.7-0.3,3.3-0.9,4.6c-0.6,1.4-1.4,2.5-2.5,3.4
			c-1.1,0.9-2.3,1.6-3.8,2c-1.4,0.5-3,0.7-4.7,0.7H1009.2z M1009.2,226.3v11.4h3.9c2.1,0,3.8-0.5,5.1-1.4c1.2-0.9,1.9-2.4,1.9-4.5
			c0-1.8-0.5-3.2-1.5-4.1c-1-0.9-2.3-1.4-3.9-1.4H1009.2z"/>
		<path d="M1051.7,257.2c-0.2,0-0.4,0-0.5-0.1c-0.1,0-0.2-0.2-0.3-0.4l-3.4-8.6H1032l-3.4,8.6c-0.1,0.2-0.1,0.4-0.2,0.4
			c-0.1,0-0.3,0.1-0.5,0.1h-4.4c-0.6,0-0.8-0.2-0.6-0.7l13.9-34.7c0.1-0.3,0.2-0.4,0.2-0.5c0,0,0.2-0.1,0.5-0.1h4.4
			c0.3,0,0.5,0,0.5,0.1c0.1,0,0.1,0.2,0.2,0.5l13.9,34.7c0.2,0.4,0,0.7-0.6,0.7H1051.7z M1033.9,243.2h11.6l-5.8-14.7L1033.9,243.2z
			"/>
		<path d="M1082.5,257.2c-0.3,0-0.4,0-0.6-0.1c-0.1-0.1-0.3-0.3-0.5-0.6l-15-25.8v25.8c0,0.3,0,0.5-0.1,0.6
			c-0.1,0.1-0.3,0.1-0.6,0.1h-4c-0.3,0-0.4,0-0.6-0.1c-0.1-0.1-0.2-0.3-0.2-0.6v-34.4c0-0.4,0.1-0.6,0.2-0.7
			c0.1-0.1,0.4-0.2,0.7-0.2h4.4c0.3,0,0.4,0,0.6,0.1c0.1,0.1,0.3,0.3,0.5,0.6l15,25.7V222c0-0.3,0-0.5,0.1-0.6
			c0.1-0.1,0.3-0.1,0.6-0.1h4c0.3,0,0.5,0,0.6,0.1c0.1,0.1,0.1,0.3,0.1,0.6v34.4c0,0.4-0.1,0.6-0.2,0.7c-0.1,0.1-0.3,0.2-0.7,0.2
			H1082.5z"/>
		<path d="M1097.6,257.3c-0.6,0-1-0.1-1.1-0.2c-0.1-0.1-0.2-0.5-0.2-1.2v-33.3c0-0.6,0.1-1,0.2-1.1c0.1-0.1,0.5-0.2,1.1-0.2h16.9
			c0.3,0,0.6,0.1,0.6,0.2c0.1,0.1,0.1,0.3,0.1,0.6v3.5c0,0.3,0,0.5-0.1,0.6c-0.1,0.1-0.3,0.2-0.6,0.2h-12.9v9.7h12.3
			c0.5,0,0.7,0.3,0.7,0.8v3.6c0,0.5-0.2,0.8-0.7,0.8h-12.3v10.9h13.5c0.4,0,0.7,0.3,0.7,0.8v3.6c0,0.5-0.2,0.8-0.7,0.8H1097.6z"/>
		<path d="M1139.8,254.7c-0.8,0.9-1.9,1.6-3.2,2.3s-2.6,1-4.1,1.1c-0.8,0.1-1.6,0.1-2.5,0c-0.9-0.1-1.8-0.2-2.7-0.3
			c-0.9-0.1-1.7-0.3-2.4-0.5c-0.7-0.2-1.2-0.3-1.5-0.5c-0.5-0.2-0.8-0.4-0.9-0.5c-0.1-0.1-0.1-0.3,0-0.7l0.3-3.5
			c0-0.3,0.1-0.4,0.2-0.5c0.1-0.1,0.4,0,0.7,0.1c0.4,0.2,0.9,0.3,1.6,0.5c0.7,0.2,1.5,0.4,2.3,0.5c0.9,0.1,1.7,0.2,2.6,0.3
			c0.9,0,1.7,0,2.4-0.2c0.9-0.2,1.7-0.5,2.2-0.9c0.6-0.4,1-0.8,1.4-1.3c0.3-0.5,0.6-1,0.7-1.6c0.1-0.6,0.2-1.2,0.2-1.8
			c0-0.6-0.4-1.4-1.2-2.5c-0.8-1-1.9-2-3.4-2.9c-1.8-1-3.3-2-4.6-2.9c-1.3-0.9-2.4-1.8-3.2-2.7c-0.8-0.9-1.5-1.8-1.9-2.8
			c-0.4-1-0.6-2-0.6-3.1c0-1.3,0.3-2.5,0.8-3.7c0.6-1.2,1.3-2.2,2.3-3.1c1-0.9,2.1-1.6,3.5-2.1c1.3-0.5,2.8-0.8,4.5-0.8
			c1.7,0,3,0.1,4.1,0.3c1.1,0.2,2,0.5,2.7,0.7c0.3,0.1,0.6,0.3,0.6,0.4c0.1,0.1,0.1,0.3,0,0.5l-0.6,3.1c-0.1,0.3-0.2,0.6-0.3,0.7
			c-0.1,0.1-0.4,0.1-0.7,0c-0.5-0.2-1-0.3-1.6-0.5c-0.6-0.1-1.2-0.3-1.8-0.4c-0.6-0.1-1.2-0.2-1.7-0.2c-0.6,0-1.1,0-1.5,0
			c-1.8,0.3-3,0.9-3.7,1.7c-0.7,0.9-1.1,2-1.1,3.3c0,0.8,0.4,1.7,1.2,2.6c0.8,1,2,1.9,3.6,2.9c2,1.2,3.6,2.3,4.9,3.2
			c1.3,1,2.3,1.9,3,2.7c0.7,0.9,1.3,1.8,1.6,2.6c0.3,0.9,0.5,1.9,0.5,2.9C1142.6,250.3,1141.7,252.7,1139.8,254.7z"/>
		<path d="M1151,257.3c-0.6,0-1-0.1-1.1-0.2c-0.1-0.1-0.2-0.5-0.2-1.2v-33.3c0-0.6,0.1-1,0.2-1.1c0.1-0.1,0.5-0.2,1.1-0.2h16.9
			c0.3,0,0.6,0.1,0.6,0.2c0.1,0.1,0.1,0.3,0.1,0.6v3.5c0,0.3,0,0.5-0.1,0.6c-0.1,0.1-0.3,0.2-0.6,0.2h-12.9v9.7h12.3
			c0.5,0,0.7,0.3,0.7,0.8v3.6c0,0.5-0.2,0.8-0.7,0.8h-12.3v10.9h13.5c0.4,0,0.7,0.3,0.7,0.8v3.6c0,0.5-0.2,0.8-0.7,0.8H1151z"/>
		<path d="M986.7,290.5c0,0.3-0.1,0.4-0.4,0.4H985c-0.3,0-0.4-0.1-0.4-0.4v-20.2c0-0.4,0-0.7,0.1-0.8c0.1-0.1,0.3-0.1,0.7-0.1h5.2
			c2.1,0,3.8,0.5,5,1.5c1.2,1.1,1.9,2.6,1.9,4.6c0,1-0.2,1.9-0.5,2.7c-0.4,0.8-0.9,1.4-1.5,2c-0.6,0.5-1.4,0.9-2.3,1.2
			c-0.9,0.3-1.8,0.4-2.8,0.3h-3.7V290.5z M995.3,275.5c0-1.4-0.4-2.4-1.1-3.2c-0.7-0.7-1.8-1.1-3.2-1.1h-4.3v8.7h2.3
			c0.9,0,1.8,0,2.5-0.1c0.7-0.1,1.4-0.3,1.9-0.6s1-0.7,1.3-1.3C995,277.2,995.2,276.5,995.3,275.5z"/>
		<path d="M1013.5,290.5c0,0.3-0.1,0.4-0.4,0.4h-1.2c-0.3,0-0.4-0.1-0.4-0.4v-8.9c0-0.9-0.1-1.7-0.2-2.4c-0.2-0.6-0.4-1.2-0.7-1.6
			c-0.3-0.4-0.7-0.7-1.1-0.9c-0.4-0.2-0.9-0.3-1.5-0.3c-1.6,0-2.8,0.4-3.6,1.1c-0.8,0.8-1.3,1.8-1.3,3.1v9.7c0,0.3-0.1,0.4-0.4,0.4
			h-1.2c-0.3,0-0.4-0.1-0.4-0.4v-22.3c0-0.3,0.1-0.4,0.4-0.4h1.2c0.3,0,0.4,0.1,0.4,0.4v8.4c0.5-0.6,1.2-1.1,2-1.3
			c0.8-0.3,1.8-0.4,3-0.4c1.9,0,3.2,0.6,4.1,1.7c0.9,1.1,1.3,2.8,1.3,5V290.5z"/>
		<path d="M1026,277c-0.3-0.1-0.8-0.2-1.4-0.2c-1.4,0-2.5,0.7-3.2,2.1c-0.5,1.1-0.8,2.5-0.8,4.2v7.3c0,0.3-0.1,0.4-0.4,0.4h-1.1
			c-0.3,0-0.4-0.1-0.4-0.4v-11.8c0-0.7,0-1.3,0-1.7c0-0.4,0-0.9,0-1.4c0-0.3,0.1-0.4,0.4-0.4h1.1c0.3,0,0.4,0.1,0.4,0.4v2.8
			c0.9-2.4,2.3-3.7,4.2-3.7c0.4,0,0.9,0.1,1.3,0.2c0.1,0,0.2,0.1,0.3,0.2c0.1,0.1,0.1,0.2,0.1,0.4v1.2c0,0.1,0,0.2-0.1,0.2
			C1026.2,277,1026.1,277,1026,277z"/>
		<path d="M1029.8,277.6c-0.1,0.1-0.2,0.1-0.3,0c-0.1,0-0.1-0.1-0.1-0.2v-1.1c0-0.3,0.1-0.5,0.4-0.6c0.7-0.4,1.4-0.6,2.2-0.8
			c0.8-0.1,1.6-0.2,2.5-0.2c1.9,0,3.3,0.5,4.2,1.4c0.9,0.9,1.3,2.3,1.3,4.2v7.3c0,0.6,0,1.1,0,1.6c0,0.5,0,0.9,0.1,1.3
			c0,0.3-0.1,0.4-0.4,0.4h-1c-0.3,0-0.4-0.1-0.4-0.4v-2.2c-0.4,1-1.1,1.7-2,2.3c-1,0.5-2,0.8-3.1,0.8c-2,0-3.4-0.6-4.3-1.7
			c-0.3-0.4-0.5-0.8-0.7-1.3c-0.2-0.5-0.2-1-0.2-1.5c0-1.2,0.3-2.2,0.8-3c0.6-0.9,1.4-1.5,2.5-1.9c1.4-0.5,3.5-0.8,6.4-0.8h0.4v-0.9
			c0-1.2-0.3-2.1-0.8-2.8c-0.6-0.6-1.5-1-2.8-1c-0.9,0-1.7,0.1-2.5,0.3C1031.3,276.9,1030.5,277.2,1029.8,277.6z M1038.1,282.7h-0.6
			c-1.1,0-2,0-2.9,0.1c-0.8,0.1-1.5,0.3-2.1,0.5c-0.8,0.3-1.4,0.7-1.8,1.3c-0.4,0.6-0.6,1.3-0.6,2c0,0.5,0.1,0.9,0.2,1.3
			c0.2,0.4,0.4,0.7,0.7,1c0.6,0.5,1.4,0.7,2.3,0.7c0.7,0,1.3-0.1,1.9-0.4c0.6-0.3,1.1-0.7,1.5-1.2c0.4-0.5,0.8-1.1,1-1.9
			c0.2-0.7,0.3-1.6,0.3-2.6V282.7z"/>
		<path d="M1044.2,289c1.2,0.5,2.4,0.7,3.7,0.7c1,0,1.9-0.3,2.6-0.8c0.7-0.5,1-1.2,1-2.1c0-0.5-0.2-1-0.6-1.5
			c-0.4-0.5-0.8-0.9-1.4-1.2c-0.6-0.3-1.2-0.6-1.8-0.9c-0.6-0.3-1.2-0.6-1.8-0.9c-0.7-0.4-1.2-0.9-1.5-1.4c-0.3-0.6-0.5-1.2-0.5-1.8
			c0-0.7,0.1-1.3,0.4-1.9c0.3-0.5,0.6-1,1.1-1.4c0.5-0.4,1-0.6,1.6-0.8c0.6-0.2,1.3-0.3,2-0.3c0.7,0,1.4,0,1.9,0.1
			c0.5,0.1,1.1,0.2,1.6,0.3c0.1,0,0.2,0.1,0.3,0.2c0.1,0.1,0.1,0.2,0.1,0.3l-0.1,0.9c0,0.2-0.1,0.3-0.2,0.3c-0.1,0-0.2,0-0.3,0
			c-0.5-0.2-1-0.3-1.4-0.4c-0.5-0.1-1.1-0.1-1.7-0.1c-2.2,0-3.4,0.9-3.4,2.7c0,0.4,0.1,0.8,0.4,1.1c0.3,0.3,0.8,0.7,1.5,1
			c0.6,0.3,1.2,0.6,1.8,0.9c0.6,0.3,1.2,0.6,1.9,1c0.6,0.3,1.1,0.8,1.5,1.5c0.4,0.7,0.6,1.4,0.6,2.2c0,0.8-0.2,1.4-0.5,2
			c-0.3,0.6-0.7,1-1.2,1.4c-0.5,0.4-1.1,0.6-1.8,0.8c-0.7,0.2-1.4,0.3-2.1,0.3c-0.4,0-0.8,0-1.1,0c-0.3,0-0.7,0-1-0.1
			c-0.3,0-0.6-0.1-0.9-0.1c-0.3-0.1-0.6-0.1-1-0.2c-0.3-0.1-0.4-0.3-0.4-0.5l0.1-1.1C1043.7,289,1043.9,288.9,1044.2,289z"/>
		<path d="M1058.2,283.6c0,1,0.1,1.8,0.3,2.6c0.2,0.7,0.6,1.4,1.1,1.9c0.5,0.5,1,0.9,1.7,1.2c0.6,0.3,1.4,0.4,2.2,0.4
			c0.8,0,1.5-0.1,2.2-0.2s1.3-0.4,1.9-0.7c0.3-0.1,0.4,0,0.4,0.2v1.3c0,0.2-0.1,0.3-0.3,0.4c-0.6,0.3-1.3,0.4-2,0.6
			c-0.7,0.1-1.4,0.2-2.3,0.2c-2.4,0-4.2-0.7-5.4-2.1c-1.2-1.4-1.8-3.5-1.8-6.2c0-2.5,0.6-4.4,1.8-5.9c1.3-1.5,2.9-2.3,4.8-2.3
			c1.1,0,2,0.2,2.8,0.6c0.8,0.4,1.5,1,2,1.7c1,1.4,1.5,3.2,1.5,5.5c0,0.3,0,0.4,0,0.6c0,0.1,0,0.2-0.1,0.3c-0.1,0.1-0.2,0.1-0.3,0.1
			c-0.1,0-0.4,0-0.6,0H1058.2z M1066.9,282c0-0.8-0.1-1.5-0.2-2.1c-0.2-0.6-0.4-1.2-0.7-1.7c-0.7-1.1-1.7-1.7-3.1-1.7
			c-1.4,0-2.5,0.6-3.4,1.7c-0.3,0.5-0.6,1.1-0.9,1.8c-0.2,0.7-0.4,1.3-0.4,2H1066.9z"/>
		<path d="M1072.9,268.1c0-0.3,0.1-0.4,0.4-0.4h1.1c0.3,0,0.4,0.1,0.4,0.4v9.2c0.5-0.8,1.2-1.4,2.1-1.9c0.9-0.5,1.9-0.7,3-0.7
			c4.3,0,6.5,2.7,6.5,8.2c0,1.1-0.1,2.1-0.3,3.1c-0.2,1-0.6,1.9-1.2,2.6c-0.5,0.8-1.2,1.4-2,1.8c-0.8,0.5-1.8,0.7-2.9,0.7
			c-2.3,0-4-1-5-3v2.3c0,0.3-0.1,0.4-0.4,0.4h-1.1c-0.3,0-0.4-0.1-0.4-0.4V268.1z M1084.2,282.9c0-0.8-0.1-1.6-0.2-2.4
			c-0.2-0.8-0.4-1.5-0.8-2.1c-0.4-0.6-0.9-1.1-1.5-1.5c-0.6-0.4-1.4-0.6-2.2-0.6c-0.8,0-1.5,0.2-2.1,0.5c-0.6,0.3-1.1,0.8-1.5,1.4
			c-0.4,0.6-0.7,1.3-0.9,2.1c-0.2,0.8-0.3,1.6-0.3,2.5c0,0.9,0.1,1.7,0.4,2.5c0.2,0.8,0.6,1.5,1,2.1c0.4,0.6,0.9,1.1,1.5,1.4
			c0.6,0.4,1.2,0.5,1.9,0.5c0.9,0,1.6-0.2,2.2-0.6c0.6-0.4,1.1-0.9,1.5-1.5c0.4-0.6,0.6-1.3,0.8-2.1
			C1084.2,284.6,1084.2,283.8,1084.2,282.9z"/>
		<path d="M1104.2,283.1c0,1.1-0.2,2.2-0.5,3.2c-0.3,1-0.8,1.8-1.3,2.6c-0.7,0.8-1.5,1.4-2.4,1.9c-0.9,0.4-2,0.7-3.2,0.7
			c-1.2,0-2.3-0.2-3.2-0.7c-0.9-0.4-1.8-1.1-2.4-1.9c-0.5-0.7-1-1.6-1.3-2.6c-0.3-1-0.5-2-0.5-3.2c0-2.3,0.6-4.3,1.8-5.7
			c1.4-1.7,3.2-2.5,5.7-2.5c1.2,0,2.3,0.2,3.2,0.6c0.9,0.4,1.7,1,2.4,1.9C1103.6,278.9,1104.2,280.8,1104.2,283.1z M1102.1,283.1
			c0-0.9-0.1-1.8-0.4-2.6c-0.2-0.8-0.6-1.5-1-2.1c-1-1.2-2.3-1.9-3.9-1.9c-0.8,0-1.5,0.2-2.2,0.5c-0.6,0.3-1.2,0.8-1.7,1.4
			c-0.4,0.6-0.8,1.3-1,2.1c-0.2,0.8-0.4,1.6-0.4,2.6c0,0.9,0.1,1.8,0.4,2.6c0.2,0.8,0.6,1.5,1,2.1c1,1.3,2.3,1.9,3.9,1.9
			c0.8,0,1.5-0.2,2.2-0.5c0.6-0.3,1.2-0.8,1.7-1.4c0.4-0.6,0.8-1.3,1-2.1C1102,284.9,1102.1,284,1102.1,283.1z"/>
		<path d="M1121.8,283.1c0,1.1-0.2,2.2-0.5,3.2c-0.3,1-0.8,1.8-1.3,2.6c-0.7,0.8-1.5,1.4-2.4,1.9c-0.9,0.4-2,0.7-3.2,0.7
			c-1.2,0-2.3-0.2-3.2-0.7c-0.9-0.4-1.8-1.1-2.4-1.9c-0.5-0.7-1-1.6-1.3-2.6c-0.3-1-0.5-2-0.5-3.2c0-2.3,0.6-4.3,1.8-5.7
			c1.4-1.7,3.2-2.5,5.7-2.5c1.2,0,2.3,0.2,3.2,0.6c0.9,0.4,1.7,1,2.4,1.9C1121.2,278.9,1121.8,280.8,1121.8,283.1z M1119.7,283.1
			c0-0.9-0.1-1.8-0.4-2.6c-0.2-0.8-0.6-1.5-1-2.1c-1-1.2-2.3-1.9-3.9-1.9c-0.8,0-1.5,0.2-2.2,0.5c-0.6,0.3-1.2,0.8-1.7,1.4
			c-0.4,0.6-0.8,1.3-1,2.1c-0.2,0.8-0.4,1.6-0.4,2.6c0,0.9,0.1,1.8,0.4,2.6c0.2,0.8,0.6,1.5,1,2.1c1,1.3,2.3,1.9,3.9,1.9
			c0.8,0,1.5-0.2,2.2-0.5c0.6-0.3,1.2-0.8,1.7-1.4c0.4-0.6,0.8-1.3,1-2.1C1119.5,284.9,1119.7,284,1119.7,283.1z"/>
		<path d="M1130.9,282.2l6.3,8.3c0.1,0.1,0.1,0.2,0.1,0.3c0,0.1-0.1,0.1-0.2,0.1h-1.2c-0.2,0-0.4,0-0.5-0.1
			c-0.2-0.1-0.3-0.2-0.4-0.3l-5.2-6.9l-1.9,2.2v4.7c0,0.3-0.1,0.4-0.4,0.4h-1.2c-0.3,0-0.4-0.1-0.4-0.4v-22.3c0-0.3,0.1-0.4,0.4-0.4
			h1.2c0.3,0,0.4,0.1,0.4,0.4v15.1l6.6-7.7c0.3-0.3,0.6-0.4,1-0.4h1.4c0.1,0,0.2,0,0.2,0.1c0,0.1,0,0.2-0.1,0.3L1130.9,282.2z"/>
	</g>
	<g>
		<polygon class="st0" points="1212.8,337.7 1209.8,337.7 1209.8,171.2 943.2,171.2 943.2,168.2 1212.8,168.2 		"/>
	</g>
</g>
<rect x="3" y="499" class="st1" width="650" height="500"/>
<g>
	<g>
		<g>
			<path class="st0" d="M270.1,749.9l6,0l0.2-30.2c-22.4,16.1-37.1,42.4-37.1,72.1h33.8L270.1,749.9z"/>
			<path class="st0" d="M379.9,750l6,0l-3,41.9h33.8c0-29.7-14.6-56-37.1-72.1L379.9,750z"/>
			<path class="st0" d="M294.2,750.1l6.1,0l-3.7,41.8h62.9l-3.7-41.8l6.1,0l-0.3-40.4c-10.3-4.2-21.6-6.5-33.5-6.5
				c-11.9,0-23.2,2.3-33.5,6.5L294.2,750.1z"/>
		</g>
		<path d="M416.7,614.4c-24.3,9.1-55.8,14.1-88.7,14.1s-64.4-5-88.7-14.1l3.8,20.3c4.9,1.5,10,2.9,15.3,4.1l0,0l1.7,9.3
			c6.8,1.6,13.8,2.9,21,4l-0.1,9.9l-2.7,0l0,4.8c-3.4-0.6-6.8-1.2-10.2-1.9v0l1,10c3.9,0.8,7.8,1.4,11.8,2l-0.6,77.2l-5.7,0
			l2.7,37.6l2.7,0v0l4.7,0l7.6,0.1l3.3-37.6l-5.7,0l0.6-76c10.6,1.2,21.5,1.9,32.7,2.1v5.4h9.6v-5.4c11.2-0.2,22.1-0.9,32.7-2.1
			l0.6,76l-5.7,0l3.3,37.6l7.6-0.1l4.7,0v0l2.7,0l2.7-37.6l-5.7,0l-0.6-77.2c4-0.6,8-1.3,11.8-2l1-10v0c-3.4,0.7-6.8,1.3-10.2,1.9
			l0-4.8l-2.7,0l-0.1-9.9c7.2-1.1,14.3-2.4,21-4l1.7-9.3l0,0c5.3-1.2,10.4-2.6,15.3-4.1L416.7,614.4z M293.3,668.9l0.1-6.7l-2.7,0
			l0.1-8.7c10.5,1.2,21.4,1.9,32.5,2.1v15.2C313,670.6,303,670,293.3,668.9z M365.3,662.2l-2.7,0l0.1,6.7
			c-9.7,1.1-19.7,1.7-29.9,1.8v-15.2c11-0.2,21.9-0.9,32.5-2.1L365.3,662.2z"/>
	</g>
	<g>
		<g>
			<path d="M228.5,847c-0.7,1-1.7,1.7-2.9,2.2c-1.2,0.4-2.5,0.7-3.9,0.7c-0.5,0-1,0-1.7,0c-0.6,0-1.1-0.1-1.5-0.2
				c-0.6-0.2-1-0.5-1-0.9v-3.5c0-0.1,0-0.3,0-0.4c0-0.1,0-0.2,0.1-0.3c0.1-0.1,0.1-0.1,0.2-0.1c0.1,0,0.3,0,0.5,0.1
				c0.4,0.1,1,0.2,1.5,0.2c0.6,0,1.1,0,1.5,0c1,0,1.8-0.4,2.4-1.1c0.6-0.7,0.9-2.1,0.9-4.1v-25.6c0-0.2,0.1-0.3,0.2-0.4
				c0.1-0.1,0.3-0.2,0.4-0.2h4.2c0.2,0,0.3,0.1,0.4,0.2c0.1,0.1,0.2,0.2,0.2,0.4v25.4c0,1.5-0.1,2.9-0.4,4.3
				C229.5,845.1,229.1,846.2,228.5,847z"/>
			<path d="M263.3,849.5c-0.2,0-0.4,0-0.5-0.1c-0.1,0-0.2-0.2-0.3-0.4l-3.4-8.6h-15.5l-3.4,8.6c-0.1,0.2-0.1,0.4-0.2,0.4
				c-0.1,0-0.3,0.1-0.5,0.1h-4.4c-0.6,0-0.8-0.2-0.6-0.7l13.9-34.7c0.1-0.3,0.2-0.4,0.2-0.5c0,0,0.2-0.1,0.5-0.1h4.4
				c0.3,0,0.5,0,0.5,0.1c0.1,0,0.1,0.2,0.2,0.5l13.9,34.7c0.2,0.4,0,0.7-0.6,0.7H263.3z M245.5,835.4h11.6l-5.8-14.7L245.5,835.4z"
				/>
			<path d="M278.6,834.9v14c0,0.4-0.2,0.6-0.6,0.6h-4.2c-0.4,0-0.6-0.2-0.6-0.6v-34.7c0-0.2,0.1-0.3,0.2-0.4
				c0.1-0.1,0.2-0.2,0.4-0.2h9.6c3.5,0,6.3,0.9,8.4,2.6c2,1.7,3.1,4.4,3.1,8c0,1.7-0.3,3.3-0.9,4.6c-0.6,1.4-1.4,2.5-2.5,3.4
				c-1.1,0.9-2.3,1.6-3.8,2c-1.4,0.5-3,0.7-4.7,0.7H278.6z M278.6,818.5v11.4h3.9c2.1,0,3.8-0.5,5.1-1.4c1.2-0.9,1.9-2.4,1.9-4.5
				c0-1.8-0.5-3.2-1.5-4.1c-1-0.9-2.3-1.4-3.9-1.4H278.6z"/>
			<path d="M321,849.5c-0.2,0-0.4,0-0.5-0.1c-0.1,0-0.2-0.2-0.3-0.4l-3.4-8.6h-15.5l-3.4,8.6c-0.1,0.2-0.1,0.4-0.2,0.4
				c-0.1,0-0.3,0.1-0.5,0.1h-4.4c-0.6,0-0.8-0.2-0.6-0.7l13.9-34.7c0.1-0.3,0.2-0.4,0.2-0.5c0,0,0.2-0.1,0.5-0.1h4.4
				c0.3,0,0.5,0,0.5,0.1c0.1,0,0.1,0.2,0.2,0.5l13.9,34.7c0.2,0.4,0,0.7-0.6,0.7H321z M303.3,835.4h11.6l-5.8-14.7L303.3,835.4z"/>
			<path d="M351.8,849.5c-0.3,0-0.4,0-0.6-0.1c-0.1-0.1-0.3-0.3-0.5-0.6l-15-25.8v25.8c0,0.3,0,0.5-0.1,0.6
				c-0.1,0.1-0.3,0.1-0.6,0.1h-4c-0.3,0-0.4,0-0.6-0.1c-0.1-0.1-0.2-0.3-0.2-0.6v-34.4c0-0.4,0.1-0.6,0.2-0.7
				c0.1-0.1,0.4-0.2,0.7-0.2h4.4c0.3,0,0.4,0,0.6,0.1c0.1,0.1,0.3,0.3,0.5,0.6l15,25.7v-25.7c0-0.3,0-0.5,0.1-0.6
				c0.1-0.1,0.3-0.1,0.6-0.1h4c0.3,0,0.5,0,0.6,0.1c0.1,0.1,0.1,0.3,0.1,0.6v34.4c0,0.4-0.1,0.6-0.2,0.7c-0.1,0.1-0.3,0.2-0.7,0.2
				H351.8z"/>
			<path d="M366.9,849.5c-0.6,0-1-0.1-1.1-0.2c-0.1-0.1-0.2-0.5-0.2-1.2v-33.3c0-0.6,0.1-1,0.2-1.1c0.1-0.1,0.5-0.2,1.1-0.2h16.9
				c0.3,0,0.6,0.1,0.6,0.2c0.1,0.1,0.1,0.3,0.1,0.6v3.5c0,0.3,0,0.5-0.1,0.6c-0.1,0.1-0.3,0.2-0.6,0.2h-12.9v9.7h12.3
				c0.5,0,0.7,0.3,0.7,0.8v3.6c0,0.5-0.2,0.8-0.7,0.8h-12.3v10.9h13.5c0.4,0,0.7,0.3,0.7,0.8v3.6c0,0.5-0.2,0.8-0.7,0.8H366.9z"/>
			<path d="M409.1,846.9c-0.8,0.9-1.9,1.6-3.2,2.3c-1.3,0.6-2.6,1-4.1,1.1c-0.8,0.1-1.6,0.1-2.5,0c-0.9-0.1-1.8-0.2-2.7-0.3
				c-0.9-0.1-1.7-0.3-2.4-0.5c-0.7-0.2-1.2-0.3-1.5-0.5c-0.5-0.2-0.8-0.4-0.9-0.5c-0.1-0.1-0.1-0.3,0-0.7l0.3-3.5
				c0-0.3,0.1-0.4,0.2-0.5c0.1-0.1,0.4,0,0.7,0.1c0.4,0.2,0.9,0.3,1.6,0.5c0.7,0.2,1.5,0.4,2.3,0.5c0.9,0.1,1.7,0.2,2.6,0.3
				c0.9,0,1.7,0,2.4-0.2c0.9-0.2,1.7-0.5,2.2-0.9c0.6-0.4,1-0.8,1.4-1.3c0.3-0.5,0.6-1,0.7-1.6c0.1-0.6,0.2-1.2,0.2-1.8
				c0-0.6-0.4-1.4-1.2-2.5c-0.8-1-1.9-2-3.4-2.9c-1.8-1-3.3-2-4.6-2.9c-1.3-0.9-2.4-1.8-3.2-2.7c-0.8-0.9-1.5-1.8-1.9-2.8
				c-0.4-1-0.6-2-0.6-3.1c0-1.3,0.3-2.5,0.8-3.7c0.6-1.2,1.3-2.2,2.3-3.1c1-0.9,2.1-1.6,3.5-2.1c1.3-0.5,2.8-0.8,4.5-0.8
				c1.7,0,3,0.1,4.1,0.3c1.1,0.2,2,0.5,2.7,0.7c0.3,0.1,0.6,0.3,0.6,0.4c0.1,0.1,0.1,0.3,0,0.5l-0.6,3.1c-0.1,0.3-0.2,0.6-0.3,0.7
				c-0.1,0.1-0.4,0.1-0.7,0c-0.5-0.2-1-0.3-1.6-0.5c-0.6-0.1-1.2-0.3-1.8-0.4c-0.6-0.1-1.2-0.2-1.7-0.2c-0.6,0-1.1,0-1.5,0
				c-1.8,0.3-3,0.9-3.7,1.7c-0.7,0.9-1.1,2-1.1,3.3c0,0.8,0.4,1.7,1.2,2.6c0.8,1,2,1.9,3.6,2.9c2,1.2,3.6,2.3,4.9,3.2
				c1.3,1,2.3,1.9,3,2.7c0.7,0.9,1.3,1.8,1.6,2.6c0.3,0.9,0.5,1.9,0.5,2.9C411.9,842.5,411,844.9,409.1,846.9z"/>
			<path d="M420.3,849.5c-0.6,0-1-0.1-1.1-0.2c-0.1-0.1-0.2-0.5-0.2-1.2v-33.3c0-0.6,0.1-1,0.2-1.1c0.1-0.1,0.5-0.2,1.1-0.2h16.9
				c0.3,0,0.6,0.1,0.6,0.2c0.1,0.1,0.1,0.3,0.1,0.6v3.5c0,0.3,0,0.5-0.1,0.6c-0.1,0.1-0.3,0.2-0.6,0.2h-12.9v9.7h12.3
				c0.5,0,0.7,0.3,0.7,0.8v3.6c0,0.5-0.2,0.8-0.7,0.8h-12.3v10.9h13.5c0.4,0,0.7,0.3,0.7,0.8v3.6c0,0.5-0.2,0.8-0.7,0.8H420.3z"/>
			<path d="M256,882.7c0,0.3-0.1,0.4-0.4,0.4h-1.3c-0.3,0-0.4-0.1-0.4-0.4v-20.2c0-0.4,0-0.7,0.1-0.8c0.1-0.1,0.3-0.1,0.7-0.1h5.2
				c2.1,0,3.8,0.5,5,1.5c1.2,1.1,1.9,2.6,1.9,4.6c0,1-0.2,1.9-0.5,2.7c-0.4,0.8-0.9,1.4-1.5,2c-0.6,0.5-1.4,0.9-2.3,1.2
				c-0.9,0.3-1.8,0.4-2.8,0.3H256V882.7z M264.6,867.7c0-1.4-0.4-2.4-1.1-3.2c-0.7-0.7-1.8-1.1-3.2-1.1H256v8.7h2.3
				c0.9,0,1.8,0,2.5-0.1c0.7-0.1,1.4-0.3,1.9-0.6c0.5-0.3,1-0.7,1.3-1.3C264.4,869.4,264.6,868.7,264.6,867.7z"/>
			<path d="M282.8,882.7c0,0.3-0.1,0.4-0.4,0.4h-1.2c-0.3,0-0.4-0.1-0.4-0.4v-8.9c0-0.9-0.1-1.7-0.2-2.4c-0.2-0.6-0.4-1.2-0.7-1.6
				c-0.3-0.4-0.7-0.7-1.1-0.9c-0.4-0.2-0.9-0.3-1.5-0.3c-1.6,0-2.8,0.4-3.6,1.1c-0.8,0.8-1.3,1.8-1.3,3.1v9.7c0,0.3-0.1,0.4-0.4,0.4
				h-1.2c-0.3,0-0.4-0.1-0.4-0.4v-22.3c0-0.3,0.1-0.4,0.4-0.4h1.2c0.3,0,0.4,0.1,0.4,0.4v8.4c0.5-0.6,1.2-1.1,2-1.3
				c0.8-0.3,1.8-0.4,3-0.4c1.9,0,3.2,0.6,4.1,1.7c0.9,1.1,1.3,2.8,1.3,5V882.7z"/>
			<path d="M295.3,869.2c-0.3-0.1-0.8-0.2-1.4-0.2c-1.4,0-2.5,0.7-3.2,2.1c-0.5,1.1-0.8,2.5-0.8,4.2v7.3c0,0.3-0.1,0.4-0.4,0.4h-1.1
				c-0.3,0-0.4-0.1-0.4-0.4v-11.8c0-0.7,0-1.3,0-1.7c0-0.4,0-0.9,0-1.4c0-0.3,0.1-0.4,0.4-0.4h1.1c0.3,0,0.4,0.1,0.4,0.4v2.8
				c0.9-2.4,2.3-3.7,4.2-3.7c0.4,0,0.9,0.1,1.3,0.2c0.1,0,0.2,0.1,0.3,0.2c0.1,0.1,0.1,0.2,0.1,0.4v1.2c0,0.1,0,0.2-0.1,0.2
				C295.5,869.2,295.4,869.2,295.3,869.2z"/>
			<path d="M299.2,869.9c-0.1,0.1-0.2,0.1-0.3,0c-0.1,0-0.1-0.1-0.1-0.2v-1.1c0-0.3,0.1-0.5,0.4-0.6c0.7-0.4,1.4-0.6,2.2-0.8
				c0.8-0.1,1.6-0.2,2.5-0.2c1.9,0,3.3,0.5,4.2,1.4c0.9,0.9,1.3,2.3,1.3,4.2v7.3c0,0.6,0,1.1,0,1.6c0,0.5,0,0.9,0.1,1.3
				c0,0.3-0.1,0.4-0.4,0.4h-1c-0.3,0-0.4-0.1-0.4-0.4v-2.2c-0.4,1-1.1,1.7-2,2.3c-1,0.5-2,0.8-3.1,0.8c-2,0-3.4-0.6-4.3-1.7
				c-0.3-0.4-0.5-0.8-0.7-1.3c-0.2-0.5-0.2-1-0.2-1.5c0-1.2,0.3-2.2,0.8-3c0.6-0.9,1.4-1.5,2.5-1.9c1.4-0.5,3.5-0.8,6.4-0.8h0.4
				v-0.9c0-1.2-0.3-2.1-0.8-2.8c-0.6-0.6-1.5-1-2.8-1c-0.9,0-1.7,0.1-2.5,0.3C300.6,869.1,299.9,869.4,299.2,869.9z M307.4,874.9
				h-0.6c-1.1,0-2,0-2.9,0.1c-0.8,0.1-1.5,0.3-2.1,0.5c-0.8,0.3-1.4,0.7-1.8,1.3c-0.4,0.6-0.6,1.3-0.6,2c0,0.5,0.1,0.9,0.2,1.3
				c0.2,0.4,0.4,0.7,0.7,1c0.6,0.5,1.4,0.7,2.3,0.7c0.7,0,1.3-0.1,1.9-0.4c0.6-0.3,1.1-0.7,1.5-1.2c0.4-0.5,0.8-1.1,1-1.9
				c0.2-0.7,0.3-1.6,0.3-2.6V874.9z"/>
			<path d="M313.5,881.2c1.2,0.5,2.4,0.7,3.7,0.7c1,0,1.9-0.3,2.6-0.8c0.7-0.5,1-1.2,1-2.1c0-0.5-0.2-1-0.6-1.5
				c-0.4-0.5-0.8-0.9-1.4-1.2c-0.6-0.3-1.2-0.6-1.8-0.9c-0.6-0.3-1.2-0.6-1.8-0.9c-0.7-0.4-1.2-0.9-1.5-1.4
				c-0.3-0.6-0.5-1.2-0.5-1.8c0-0.7,0.1-1.3,0.4-1.9c0.3-0.5,0.6-1,1.1-1.4c0.5-0.4,1-0.6,1.6-0.8c0.6-0.2,1.3-0.3,2-0.3
				c0.7,0,1.4,0,1.9,0.1c0.5,0.1,1.1,0.2,1.6,0.3c0.1,0,0.2,0.1,0.3,0.2c0.1,0.1,0.1,0.2,0.1,0.3l-0.1,0.9c0,0.2-0.1,0.3-0.2,0.3
				c-0.1,0-0.2,0-0.3,0c-0.5-0.2-1-0.3-1.4-0.4c-0.5-0.1-1.1-0.1-1.7-0.1c-2.2,0-3.4,0.9-3.4,2.7c0,0.4,0.1,0.8,0.4,1.1
				c0.3,0.3,0.8,0.7,1.5,1c0.6,0.3,1.2,0.6,1.8,0.9c0.6,0.3,1.2,0.6,1.9,1c0.6,0.3,1.1,0.8,1.5,1.5c0.4,0.7,0.6,1.4,0.6,2.2
				c0,0.8-0.2,1.4-0.5,2c-0.3,0.6-0.7,1-1.2,1.4c-0.5,0.4-1.1,0.6-1.8,0.8c-0.7,0.2-1.4,0.3-2.1,0.3c-0.4,0-0.8,0-1.1,0
				c-0.3,0-0.7,0-1-0.1c-0.3,0-0.6-0.1-0.9-0.1c-0.3-0.1-0.6-0.1-1-0.2c-0.3-0.1-0.4-0.3-0.4-0.5l0.1-1.1
				C313.1,881.2,313.2,881.1,313.5,881.2z"/>
			<path d="M327.6,875.8c0,1,0.1,1.8,0.3,2.6c0.2,0.7,0.6,1.4,1.1,1.9c0.5,0.5,1,0.9,1.7,1.2c0.6,0.3,1.4,0.4,2.2,0.4
				c0.8,0,1.5-0.1,2.2-0.2s1.3-0.4,1.9-0.7c0.3-0.1,0.4,0,0.4,0.2v1.3c0,0.2-0.1,0.3-0.3,0.4c-0.6,0.3-1.3,0.4-2,0.6
				c-0.7,0.1-1.4,0.2-2.3,0.2c-2.4,0-4.2-0.7-5.4-2.1c-1.2-1.4-1.8-3.5-1.8-6.2c0-2.5,0.6-4.4,1.8-5.9c1.3-1.5,2.9-2.3,4.8-2.3
				c1.1,0,2,0.2,2.8,0.6c0.8,0.4,1.5,1,2,1.7c1,1.4,1.5,3.2,1.5,5.5c0,0.3,0,0.4,0,0.6c0,0.1,0,0.2-0.1,0.3
				c-0.1,0.1-0.2,0.1-0.3,0.1c-0.1,0-0.4,0-0.6,0H327.6z M336.3,874.2c0-0.8-0.1-1.5-0.2-2.1c-0.2-0.6-0.4-1.2-0.7-1.7
				c-0.7-1.1-1.7-1.7-3.1-1.7c-1.4,0-2.5,0.6-3.4,1.7c-0.3,0.5-0.6,1.1-0.9,1.8c-0.2,0.7-0.4,1.3-0.4,2H336.3z"/>
			<path d="M342.2,860.4c0-0.3,0.1-0.4,0.4-0.4h1.1c0.3,0,0.4,0.1,0.4,0.4v9.2c0.5-0.8,1.2-1.4,2.1-1.9s1.9-0.7,3-0.7
				c4.3,0,6.5,2.7,6.5,8.2c0,1.1-0.1,2.1-0.3,3.1c-0.2,1-0.6,1.9-1.2,2.6c-0.5,0.8-1.2,1.4-2,1.8c-0.8,0.5-1.8,0.7-2.9,0.7
				c-2.3,0-4-1-5-3v2.3c0,0.3-0.1,0.4-0.4,0.4h-1.1c-0.3,0-0.4-0.1-0.4-0.4V860.4z M353.6,875.2c0-0.8-0.1-1.6-0.2-2.4
				c-0.2-0.8-0.4-1.5-0.8-2.1c-0.4-0.6-0.9-1.1-1.5-1.5c-0.6-0.4-1.4-0.6-2.2-0.6c-0.8,0-1.5,0.2-2.1,0.5c-0.6,0.3-1.1,0.8-1.5,1.4
				c-0.4,0.6-0.7,1.3-0.9,2.1c-0.2,0.8-0.3,1.6-0.3,2.5c0,0.9,0.1,1.7,0.4,2.5c0.2,0.8,0.6,1.5,1,2.1c0.4,0.6,0.9,1.1,1.5,1.4
				c0.6,0.4,1.2,0.5,1.9,0.5c0.9,0,1.6-0.2,2.2-0.6c0.6-0.4,1.1-0.9,1.5-1.5c0.4-0.6,0.6-1.3,0.8-2.1
				C353.5,876.8,353.6,876,353.6,875.2z"/>
			<path d="M373.6,875.3c0,1.1-0.2,2.2-0.5,3.2c-0.3,1-0.8,1.8-1.3,2.6c-0.7,0.8-1.5,1.4-2.4,1.9c-0.9,0.4-2,0.7-3.2,0.7
				c-1.2,0-2.3-0.2-3.2-0.7c-0.9-0.4-1.8-1.1-2.4-1.9c-0.5-0.7-1-1.6-1.3-2.6c-0.3-1-0.5-2-0.5-3.2c0-2.3,0.6-4.3,1.8-5.7
				c1.4-1.7,3.2-2.5,5.7-2.5c1.2,0,2.3,0.2,3.2,0.6c0.9,0.4,1.7,1,2.4,1.9C373,871.1,373.6,873,373.6,875.3z M371.4,875.3
				c0-0.9-0.1-1.8-0.4-2.6c-0.2-0.8-0.6-1.5-1-2.1c-1-1.2-2.3-1.9-3.9-1.9c-0.8,0-1.5,0.2-2.2,0.5c-0.6,0.3-1.2,0.8-1.7,1.4
				c-0.4,0.6-0.8,1.3-1,2.1c-0.2,0.8-0.4,1.6-0.4,2.6c0,0.9,0.1,1.8,0.4,2.6c0.2,0.8,0.6,1.5,1,2.1c1,1.3,2.3,1.9,3.9,1.9
				c0.8,0,1.5-0.2,2.2-0.5c0.6-0.3,1.2-0.8,1.7-1.4c0.4-0.6,0.8-1.3,1-2.1C371.3,877.1,371.4,876.2,371.4,875.3z"/>
			<path d="M391.1,875.3c0,1.1-0.2,2.2-0.5,3.2c-0.3,1-0.8,1.8-1.3,2.6c-0.7,0.8-1.5,1.4-2.4,1.9c-0.9,0.4-2,0.7-3.2,0.7
				c-1.2,0-2.3-0.2-3.2-0.7c-0.9-0.4-1.8-1.1-2.4-1.9c-0.5-0.7-1-1.6-1.3-2.6c-0.3-1-0.5-2-0.5-3.2c0-2.3,0.6-4.3,1.8-5.7
				c1.4-1.7,3.2-2.5,5.7-2.5c1.2,0,2.3,0.2,3.2,0.6c0.9,0.4,1.7,1,2.4,1.9C390.5,871.1,391.1,873,391.1,875.3z M389,875.3
				c0-0.9-0.1-1.8-0.4-2.6c-0.2-0.8-0.6-1.5-1-2.1c-1-1.2-2.3-1.9-3.9-1.9c-0.8,0-1.5,0.2-2.2,0.5c-0.6,0.3-1.2,0.8-1.7,1.4
				c-0.4,0.6-0.8,1.3-1,2.1c-0.2,0.8-0.4,1.6-0.4,2.6c0,0.9,0.1,1.8,0.4,2.6c0.2,0.8,0.6,1.5,1,2.1c1,1.3,2.3,1.9,3.9,1.9
				c0.8,0,1.5-0.2,2.2-0.5c0.6-0.3,1.2-0.8,1.7-1.4c0.4-0.6,0.8-1.3,1-2.1C388.9,877.1,389,876.2,389,875.3z"/>
			<path d="M400.2,874.4l6.3,8.3c0.1,0.1,0.1,0.2,0.1,0.3c0,0.1-0.1,0.1-0.2,0.1h-1.2c-0.2,0-0.4,0-0.5-0.1
				c-0.2-0.1-0.3-0.2-0.4-0.3l-5.2-6.9L397,878v4.7c0,0.3-0.1,0.4-0.4,0.4h-1.2c-0.3,0-0.4-0.1-0.4-0.4v-22.3c0-0.3,0.1-0.4,0.4-0.4
				h1.2c0.3,0,0.4,0.1,0.4,0.4v15.1l6.6-7.7c0.3-0.3,0.6-0.4,1-0.4h1.4c0.1,0,0.2,0,0.2,0.1c0,0.1,0,0.2-0.1,0.3L400.2,874.4z"/>
		</g>
	</g>
</g>
<g>
	<g>
		<g>
			<path d="M883.8,1295.8l6,0l-3,41.9h33.8c0-29.7-14.6-56-37.1-72.1L883.8,1295.8z"/>
			<path d="M774,1295.8l6,0l0.2-30.2c-22.4,16.1-37.1,42.4-37.1,72.1H777L774,1295.8z"/>
			<path d="M798.1,1295.9l6.1,0l-3.7,41.8h62.9l-3.7-41.8l6.1,0l-0.3-40.4c-10.3-4.2-21.6-6.5-33.5-6.5c-11.9,0-23.2,2.3-33.5,6.5
				L798.1,1295.9z"/>
		</g>
		<path d="M920.6,1160.3c-24.3,9.1-55.8,14.1-88.7,14.1c-32.9,0-64.4-5-88.7-14.1l3.8,20.3c4.9,1.5,10,2.9,15.3,4.1l0,0l1.7,9.3
			c6.8,1.6,13.8,2.9,21,4l-0.1,9.9l-2.7,0l0,4.8c-3.4-0.6-6.8-1.2-10.2-1.9v0l1,10c3.9,0.8,7.8,1.4,11.8,2l-0.6,77.2l-5.7,0
			l2.7,37.6l2.7,0v0l4.7,0l7.6,0.1l3.3-37.6l-5.7,0l0.6-76c10.6,1.2,21.5,1.9,32.7,2.1v5.4h9.6v-5.4c11.2-0.2,22.1-0.9,32.7-2.1
			l0.6,76l-5.7,0l3.3,37.6l7.6-0.1l4.7,0v0l2.7,0l2.7-37.6l-5.7,0l-0.6-77.2c4-0.6,8-1.3,11.8-2l1-10v0c-3.4,0.7-6.8,1.3-10.2,1.9
			l0-4.8l-2.7,0l-0.1-9.9c7.2-1.1,14.3-2.4,21-4l1.7-9.3l0,0c5.3-1.2,10.4-2.6,15.3-4.1L920.6,1160.3z M797.2,1214.8l0.1-6.7l-2.7,0
			l0.1-8.7c10.5,1.2,21.4,1.9,32.5,2.1v15.2C816.9,1216.5,806.9,1215.9,797.2,1214.8z M869.3,1208.1l-2.7,0l0.1,6.7
			c-9.7,1.1-19.7,1.7-29.9,1.8v-15.2c11-0.2,21.9-0.9,32.5-2.1L869.3,1208.1z"/>
	</g>
	<g>
		<path d="M959.2,1254.8c-0.7,1-1.7,1.7-2.9,2.2c-1.2,0.4-2.5,0.7-3.9,0.7c-0.5,0-1,0-1.7,0c-0.6,0-1.1-0.1-1.5-0.2
			c-0.6-0.2-1-0.5-1-0.9v-3.5c0-0.1,0-0.3,0-0.4c0-0.1,0-0.2,0.1-0.3c0.1-0.1,0.1-0.1,0.2-0.1c0.1,0,0.3,0,0.5,0.1
			c0.4,0.1,1,0.2,1.5,0.2c0.6,0,1.1,0,1.5,0c1,0,1.8-0.4,2.4-1.1c0.6-0.7,0.9-2.1,0.9-4.1v-25.6c0-0.2,0.1-0.3,0.2-0.4
			c0.1-0.1,0.3-0.2,0.4-0.2h4.2c0.2,0,0.3,0.1,0.4,0.2c0.1,0.1,0.2,0.2,0.2,0.4v25.4c0,1.5-0.1,2.9-0.4,4.3
			C960.2,1252.9,959.8,1254,959.2,1254.8z"/>
		<path d="M994,1257.2c-0.2,0-0.4,0-0.5-0.1c-0.1,0-0.2-0.2-0.3-0.4l-3.4-8.6h-15.5l-3.4,8.6c-0.1,0.2-0.1,0.4-0.2,0.4
			c-0.1,0-0.3,0.1-0.5,0.1h-4.4c-0.6,0-0.8-0.2-0.6-0.7l13.9-34.7c0.1-0.3,0.2-0.4,0.2-0.5c0,0,0.2-0.1,0.5-0.1h4.4
			c0.3,0,0.5,0,0.5,0.1c0.1,0,0.1,0.2,0.2,0.5l13.9,34.7c0.2,0.4,0,0.7-0.6,0.7H994z M976.2,1243.2h11.6l-5.8-14.7L976.2,1243.2z"/>
		<path d="M1009.2,1242.7v14c0,0.4-0.2,0.6-0.6,0.6h-4.2c-0.4,0-0.6-0.2-0.6-0.6v-34.7c0-0.2,0.1-0.3,0.2-0.4
			c0.1-0.1,0.2-0.2,0.4-0.2h9.6c3.5,0,6.3,0.9,8.4,2.6c2,1.7,3.1,4.4,3.1,8c0,1.7-0.3,3.3-0.9,4.6c-0.6,1.4-1.4,2.5-2.5,3.4
			c-1.1,0.9-2.3,1.6-3.8,2c-1.4,0.5-3,0.7-4.7,0.7H1009.2z M1009.2,1226.3v11.4h3.9c2.1,0,3.8-0.5,5.1-1.4c1.2-0.9,1.9-2.4,1.9-4.5
			c0-1.8-0.5-3.2-1.5-4.1c-1-0.9-2.3-1.4-3.9-1.4H1009.2z"/>
		<path d="M1051.7,1257.2c-0.2,0-0.4,0-0.5-0.1c-0.1,0-0.2-0.2-0.3-0.4l-3.4-8.6H1032l-3.4,8.6c-0.1,0.2-0.1,0.4-0.2,0.4
			c-0.1,0-0.3,0.1-0.5,0.1h-4.4c-0.6,0-0.8-0.2-0.6-0.7l13.9-34.7c0.1-0.3,0.2-0.4,0.2-0.5c0,0,0.2-0.1,0.5-0.1h4.4
			c0.3,0,0.5,0,0.5,0.1c0.1,0,0.1,0.2,0.2,0.5l13.9,34.7c0.2,0.4,0,0.7-0.6,0.7H1051.7z M1033.9,1243.2h11.6l-5.8-14.7
			L1033.9,1243.2z"/>
		<path d="M1082.5,1257.2c-0.3,0-0.4,0-0.6-0.1c-0.1-0.1-0.3-0.3-0.5-0.6l-15-25.8v25.8c0,0.3,0,0.5-0.1,0.6
			c-0.1,0.1-0.3,0.1-0.6,0.1h-4c-0.3,0-0.4,0-0.6-0.1c-0.1-0.1-0.2-0.3-0.2-0.6v-34.4c0-0.4,0.1-0.6,0.2-0.7
			c0.1-0.1,0.4-0.2,0.7-0.2h4.4c0.3,0,0.4,0,0.6,0.1c0.1,0.1,0.3,0.3,0.5,0.6l15,25.7V1222c0-0.3,0-0.5,0.1-0.6
			c0.1-0.1,0.3-0.1,0.6-0.1h4c0.3,0,0.5,0,0.6,0.1c0.1,0.1,0.1,0.3,0.1,0.6v34.4c0,0.4-0.1,0.6-0.2,0.7c-0.1,0.1-0.3,0.2-0.7,0.2
			H1082.5z"/>
		<path d="M1097.6,1257.3c-0.6,0-1-0.1-1.1-0.2c-0.1-0.1-0.2-0.5-0.2-1.2v-33.3c0-0.6,0.1-1,0.2-1.1c0.1-0.1,0.5-0.2,1.1-0.2h16.9
			c0.3,0,0.6,0.1,0.6,0.2c0.1,0.1,0.1,0.3,0.1,0.6v3.5c0,0.3,0,0.5-0.1,0.6c-0.1,0.1-0.3,0.2-0.6,0.2h-12.9v9.7h12.3
			c0.5,0,0.7,0.3,0.7,0.8v3.6c0,0.5-0.2,0.8-0.7,0.8h-12.3v10.9h13.5c0.4,0,0.7,0.3,0.7,0.8v3.6c0,0.5-0.2,0.8-0.7,0.8H1097.6z"/>
		<path d="M1139.8,1254.7c-0.8,0.9-1.9,1.6-3.2,2.3s-2.6,1-4.1,1.1c-0.8,0.1-1.6,0.1-2.5,0c-0.9-0.1-1.8-0.2-2.7-0.3
			c-0.9-0.1-1.7-0.3-2.4-0.5c-0.7-0.2-1.2-0.3-1.5-0.5c-0.5-0.2-0.8-0.4-0.9-0.5c-0.1-0.1-0.1-0.3,0-0.7l0.3-3.5
			c0-0.3,0.1-0.4,0.2-0.5c0.1-0.1,0.4,0,0.7,0.1c0.4,0.2,0.9,0.3,1.6,0.5c0.7,0.2,1.5,0.4,2.3,0.5c0.9,0.1,1.7,0.2,2.6,0.3
			c0.9,0,1.7,0,2.4-0.2c0.9-0.2,1.7-0.5,2.2-0.9c0.6-0.4,1-0.8,1.4-1.3c0.3-0.5,0.6-1,0.7-1.6c0.1-0.6,0.2-1.2,0.2-1.8
			c0-0.6-0.4-1.4-1.2-2.5c-0.8-1-1.9-2-3.4-2.9c-1.8-1-3.3-2-4.6-2.9c-1.3-0.9-2.4-1.8-3.2-2.7c-0.8-0.9-1.5-1.8-1.9-2.8
			c-0.4-1-0.6-2-0.6-3.1c0-1.3,0.3-2.5,0.8-3.7c0.6-1.2,1.3-2.2,2.3-3.1c1-0.9,2.1-1.6,3.5-2.1c1.3-0.5,2.8-0.8,4.5-0.8
			c1.7,0,3,0.1,4.1,0.3c1.1,0.2,2,0.5,2.7,0.7c0.3,0.1,0.6,0.3,0.6,0.4c0.1,0.1,0.1,0.3,0,0.5l-0.6,3.1c-0.1,0.3-0.2,0.6-0.3,0.7
			c-0.1,0.1-0.4,0.1-0.7,0c-0.5-0.2-1-0.3-1.6-0.5c-0.6-0.1-1.2-0.3-1.8-0.4c-0.6-0.1-1.2-0.2-1.7-0.2c-0.6,0-1.1,0-1.5,0
			c-1.8,0.3-3,0.9-3.7,1.7c-0.7,0.9-1.1,2-1.1,3.3c0,0.8,0.4,1.7,1.2,2.6c0.8,1,2,1.9,3.6,2.9c2,1.2,3.6,2.3,4.9,3.2
			c1.3,1,2.3,1.9,3,2.7c0.7,0.9,1.3,1.8,1.6,2.6c0.3,0.9,0.5,1.9,0.5,2.9C1142.6,1250.3,1141.7,1252.7,1139.8,1254.7z"/>
		<path d="M1151,1257.3c-0.6,0-1-0.1-1.1-0.2c-0.1-0.1-0.2-0.5-0.2-1.2v-33.3c0-0.6,0.1-1,0.2-1.1c0.1-0.1,0.5-0.2,1.1-0.2h16.9
			c0.3,0,0.6,0.1,0.6,0.2c0.1,0.1,0.1,0.3,0.1,0.6v3.5c0,0.3,0,0.5-0.1,0.6c-0.1,0.1-0.3,0.2-0.6,0.2h-12.9v9.7h12.3
			c0.5,0,0.7,0.3,0.7,0.8v3.6c0,0.5-0.2,0.8-0.7,0.8h-12.3v10.9h13.5c0.4,0,0.7,0.3,0.7,0.8v3.6c0,0.5-0.2,0.8-0.7,0.8H1151z"/>
		<path d="M986.7,1290.5c0,0.3-0.1,0.4-0.4,0.4H985c-0.3,0-0.4-0.1-0.4-0.4v-20.2c0-0.4,0-0.7,0.1-0.8c0.1-0.1,0.3-0.1,0.7-0.1h5.2
			c2.1,0,3.8,0.5,5,1.5c1.2,1.1,1.9,2.6,1.9,4.6c0,1-0.2,1.9-0.5,2.7c-0.4,0.8-0.9,1.4-1.5,2c-0.6,0.5-1.4,0.9-2.3,1.2
			c-0.9,0.3-1.8,0.4-2.8,0.3h-3.7V1290.5z M995.3,1275.5c0-1.4-0.4-2.4-1.1-3.2c-0.7-0.7-1.8-1.1-3.2-1.1h-4.3v8.7h2.3
			c0.9,0,1.8,0,2.5-0.1c0.7-0.1,1.4-0.3,1.9-0.6s1-0.7,1.3-1.3C995,1277.2,995.2,1276.5,995.3,1275.5z"/>
		<path d="M1013.5,1290.5c0,0.3-0.1,0.4-0.4,0.4h-1.2c-0.3,0-0.4-0.1-0.4-0.4v-8.9c0-0.9-0.1-1.7-0.2-2.4c-0.2-0.6-0.4-1.2-0.7-1.6
			c-0.3-0.4-0.7-0.7-1.1-0.9c-0.4-0.2-0.9-0.3-1.5-0.3c-1.6,0-2.8,0.4-3.6,1.1c-0.8,0.8-1.3,1.8-1.3,3.1v9.7c0,0.3-0.1,0.4-0.4,0.4
			h-1.2c-0.3,0-0.4-0.1-0.4-0.4v-22.3c0-0.3,0.1-0.4,0.4-0.4h1.2c0.3,0,0.4,0.1,0.4,0.4v8.4c0.5-0.6,1.2-1.1,2-1.3
			c0.8-0.3,1.8-0.4,3-0.4c1.9,0,3.2,0.6,4.1,1.7c0.9,1.1,1.3,2.8,1.3,5V1290.5z"/>
		<path d="M1026,1277c-0.3-0.1-0.8-0.2-1.4-0.2c-1.4,0-2.5,0.7-3.2,2.1c-0.5,1.1-0.8,2.5-0.8,4.2v7.3c0,0.3-0.1,0.4-0.4,0.4h-1.1
			c-0.3,0-0.4-0.1-0.4-0.4v-11.8c0-0.7,0-1.3,0-1.7c0-0.4,0-0.9,0-1.4c0-0.3,0.1-0.4,0.4-0.4h1.1c0.3,0,0.4,0.1,0.4,0.4v2.8
			c0.9-2.4,2.3-3.7,4.2-3.7c0.4,0,0.9,0.1,1.3,0.2c0.1,0,0.2,0.1,0.3,0.2c0.1,0.1,0.1,0.2,0.1,0.4v1.2c0,0.1,0,0.2-0.1,0.2
			C1026.2,1277,1026.1,1277,1026,1277z"/>
		<path d="M1029.8,1277.6c-0.1,0.1-0.2,0.1-0.3,0c-0.1,0-0.1-0.1-0.1-0.2v-1.1c0-0.3,0.1-0.5,0.4-0.6c0.7-0.4,1.4-0.6,2.2-0.8
			c0.8-0.1,1.6-0.2,2.5-0.2c1.9,0,3.3,0.5,4.2,1.4c0.9,0.9,1.3,2.3,1.3,4.2v7.3c0,0.6,0,1.1,0,1.6c0,0.5,0,0.9,0.1,1.3
			c0,0.3-0.1,0.4-0.4,0.4h-1c-0.3,0-0.4-0.1-0.4-0.4v-2.2c-0.4,1-1.1,1.7-2,2.3c-1,0.5-2,0.8-3.1,0.8c-2,0-3.4-0.6-4.3-1.7
			c-0.3-0.4-0.5-0.8-0.7-1.3c-0.2-0.5-0.2-1-0.2-1.5c0-1.2,0.3-2.2,0.8-3c0.6-0.9,1.4-1.5,2.5-1.9c1.4-0.5,3.5-0.8,6.4-0.8h0.4v-0.9
			c0-1.2-0.3-2.1-0.8-2.8c-0.6-0.6-1.5-1-2.8-1c-0.9,0-1.7,0.1-2.5,0.3C1031.3,1276.9,1030.5,1277.2,1029.8,1277.6z M1038.1,1282.7
			h-0.6c-1.1,0-2,0-2.9,0.1c-0.8,0.1-1.5,0.3-2.1,0.5c-0.8,0.3-1.4,0.7-1.8,1.3c-0.4,0.6-0.6,1.3-0.6,2c0,0.5,0.1,0.9,0.2,1.3
			c0.2,0.4,0.4,0.7,0.7,1c0.6,0.5,1.4,0.7,2.3,0.7c0.7,0,1.3-0.1,1.9-0.4c0.6-0.3,1.1-0.7,1.5-1.2c0.4-0.5,0.8-1.1,1-1.9
			c0.2-0.7,0.3-1.6,0.3-2.6V1282.7z"/>
		<path d="M1044.2,1289c1.2,0.5,2.4,0.7,3.7,0.7c1,0,1.9-0.3,2.6-0.8c0.7-0.5,1-1.2,1-2.1c0-0.5-0.2-1-0.6-1.5
			c-0.4-0.5-0.8-0.9-1.4-1.2c-0.6-0.3-1.2-0.6-1.8-0.9c-0.6-0.3-1.2-0.6-1.8-0.9c-0.7-0.4-1.2-0.9-1.5-1.4c-0.3-0.6-0.5-1.2-0.5-1.8
			c0-0.7,0.1-1.3,0.4-1.9c0.3-0.5,0.6-1,1.1-1.4c0.5-0.4,1-0.6,1.6-0.8c0.6-0.2,1.3-0.3,2-0.3c0.7,0,1.4,0,1.9,0.1
			c0.5,0.1,1.1,0.2,1.6,0.3c0.1,0,0.2,0.1,0.3,0.2c0.1,0.1,0.1,0.2,0.1,0.3l-0.1,0.9c0,0.2-0.1,0.3-0.2,0.3c-0.1,0-0.2,0-0.3,0
			c-0.5-0.2-1-0.3-1.4-0.4c-0.5-0.1-1.1-0.1-1.7-0.1c-2.2,0-3.4,0.9-3.4,2.7c0,0.4,0.1,0.8,0.4,1.1c0.3,0.3,0.8,0.7,1.5,1
			c0.6,0.3,1.2,0.6,1.8,0.9c0.6,0.3,1.2,0.6,1.9,1c0.6,0.3,1.1,0.8,1.5,1.5c0.4,0.7,0.6,1.4,0.6,2.2c0,0.8-0.2,1.4-0.5,2
			c-0.3,0.6-0.7,1-1.2,1.4c-0.5,0.4-1.1,0.6-1.8,0.8c-0.7,0.2-1.4,0.3-2.1,0.3c-0.4,0-0.8,0-1.1,0c-0.3,0-0.7,0-1-0.1
			s-0.6-0.1-0.9-0.1c-0.3-0.1-0.6-0.1-1-0.2c-0.3-0.1-0.4-0.3-0.4-0.5l0.1-1.1C1043.7,1289,1043.9,1288.9,1044.2,1289z"/>
		<path d="M1058.2,1283.6c0,1,0.1,1.8,0.3,2.6c0.2,0.7,0.6,1.4,1.1,1.9c0.5,0.5,1,0.9,1.7,1.2c0.6,0.3,1.4,0.4,2.2,0.4
			c0.8,0,1.5-0.1,2.2-0.2s1.3-0.4,1.9-0.7c0.3-0.1,0.4,0,0.4,0.2v1.3c0,0.2-0.1,0.3-0.3,0.4c-0.6,0.3-1.3,0.4-2,0.6
			c-0.7,0.1-1.4,0.2-2.3,0.2c-2.4,0-4.2-0.7-5.4-2.1c-1.2-1.4-1.8-3.5-1.8-6.2c0-2.5,0.6-4.4,1.8-5.9c1.3-1.5,2.9-2.3,4.8-2.3
			c1.1,0,2,0.2,2.8,0.6c0.8,0.4,1.5,1,2,1.7c1,1.4,1.5,3.2,1.5,5.5c0,0.3,0,0.4,0,0.6c0,0.1,0,0.2-0.1,0.3c-0.1,0.1-0.2,0.1-0.3,0.1
			c-0.1,0-0.4,0-0.6,0H1058.2z M1066.9,1282c0-0.8-0.1-1.5-0.2-2.1c-0.2-0.6-0.4-1.2-0.7-1.7c-0.7-1.1-1.7-1.7-3.1-1.7
			c-1.4,0-2.5,0.6-3.4,1.7c-0.3,0.5-0.6,1.1-0.9,1.8c-0.2,0.7-0.4,1.3-0.4,2H1066.9z"/>
		<path d="M1072.9,1268.1c0-0.3,0.1-0.4,0.4-0.4h1.1c0.3,0,0.4,0.1,0.4,0.4v9.2c0.5-0.8,1.2-1.4,2.1-1.9c0.9-0.5,1.9-0.7,3-0.7
			c4.3,0,6.5,2.7,6.5,8.2c0,1.1-0.1,2.1-0.3,3.1c-0.2,1-0.6,1.9-1.2,2.6c-0.5,0.8-1.2,1.4-2,1.8c-0.8,0.5-1.8,0.7-2.9,0.7
			c-2.3,0-4-1-5-3v2.3c0,0.3-0.1,0.4-0.4,0.4h-1.1c-0.3,0-0.4-0.1-0.4-0.4V1268.1z M1084.2,1282.9c0-0.8-0.1-1.6-0.2-2.4
			c-0.2-0.8-0.4-1.5-0.8-2.1c-0.4-0.6-0.9-1.1-1.5-1.5c-0.6-0.4-1.4-0.6-2.2-0.6c-0.8,0-1.5,0.2-2.1,0.5c-0.6,0.3-1.1,0.8-1.5,1.4
			c-0.4,0.6-0.7,1.3-0.9,2.1c-0.2,0.8-0.3,1.6-0.3,2.5c0,0.9,0.1,1.7,0.4,2.5c0.2,0.8,0.6,1.5,1,2.1c0.4,0.6,0.9,1.1,1.5,1.4
			c0.6,0.4,1.2,0.5,1.9,0.5c0.9,0,1.6-0.2,2.2-0.6c0.6-0.4,1.1-0.9,1.5-1.5c0.4-0.6,0.6-1.3,0.8-2.1
			C1084.2,1284.6,1084.2,1283.8,1084.2,1282.9z"/>
		<path d="M1104.2,1283.1c0,1.1-0.2,2.2-0.5,3.2c-0.3,1-0.8,1.8-1.3,2.6c-0.7,0.8-1.5,1.4-2.4,1.9c-0.9,0.4-2,0.7-3.2,0.7
			c-1.2,0-2.3-0.2-3.2-0.7c-0.9-0.4-1.8-1.1-2.4-1.9c-0.5-0.7-1-1.6-1.3-2.6c-0.3-1-0.5-2-0.5-3.2c0-2.3,0.6-4.3,1.8-5.7
			c1.4-1.7,3.2-2.5,5.7-2.5c1.2,0,2.3,0.2,3.2,0.6c0.9,0.4,1.7,1,2.4,1.9C1103.6,1278.9,1104.2,1280.8,1104.2,1283.1z
			 M1102.1,1283.1c0-0.9-0.1-1.8-0.4-2.6c-0.2-0.8-0.6-1.5-1-2.1c-1-1.2-2.3-1.9-3.9-1.9c-0.8,0-1.5,0.2-2.2,0.5
			c-0.6,0.3-1.2,0.8-1.7,1.4c-0.4,0.6-0.8,1.3-1,2.1c-0.2,0.8-0.4,1.6-0.4,2.6c0,0.9,0.1,1.8,0.4,2.6c0.2,0.8,0.6,1.5,1,2.1
			c1,1.3,2.3,1.9,3.9,1.9c0.8,0,1.5-0.2,2.2-0.5c0.6-0.3,1.2-0.8,1.7-1.4c0.4-0.6,0.8-1.3,1-2.1
			C1102,1284.9,1102.1,1284,1102.1,1283.1z"/>
		<path d="M1121.8,1283.1c0,1.1-0.2,2.2-0.5,3.2c-0.3,1-0.8,1.8-1.3,2.6c-0.7,0.8-1.5,1.4-2.4,1.9c-0.9,0.4-2,0.7-3.2,0.7
			c-1.2,0-2.3-0.2-3.2-0.7c-0.9-0.4-1.8-1.1-2.4-1.9c-0.5-0.7-1-1.6-1.3-2.6c-0.3-1-0.5-2-0.5-3.2c0-2.3,0.6-4.3,1.8-5.7
			c1.4-1.7,3.2-2.5,5.7-2.5c1.2,0,2.3,0.2,3.2,0.6c0.9,0.4,1.7,1,2.4,1.9C1121.2,1278.9,1121.8,1280.8,1121.8,1283.1z
			 M1119.7,1283.1c0-0.9-0.1-1.8-0.4-2.6c-0.2-0.8-0.6-1.5-1-2.1c-1-1.2-2.3-1.9-3.9-1.9c-0.8,0-1.5,0.2-2.2,0.5
			c-0.6,0.3-1.2,0.8-1.7,1.4c-0.4,0.6-0.8,1.3-1,2.1c-0.2,0.8-0.4,1.6-0.4,2.6c0,0.9,0.1,1.8,0.4,2.6c0.2,0.8,0.6,1.5,1,2.1
			c1,1.3,2.3,1.9,3.9,1.9c0.8,0,1.5-0.2,2.2-0.5c0.6-0.3,1.2-0.8,1.7-1.4c0.4-0.6,0.8-1.3,1-2.1
			C1119.5,1284.9,1119.7,1284,1119.7,1283.1z"/>
		<path d="M1130.9,1282.2l6.3,8.3c0.1,0.1,0.1,0.2,0.1,0.3c0,0.1-0.1,0.1-0.2,0.1h-1.2c-0.2,0-0.4,0-0.5-0.1
			c-0.2-0.1-0.3-0.2-0.4-0.3l-5.2-6.9l-1.9,2.2v4.7c0,0.3-0.1,0.4-0.4,0.4h-1.2c-0.3,0-0.4-0.1-0.4-0.4v-22.3c0-0.3,0.1-0.4,0.4-0.4
			h1.2c0.3,0,0.4,0.1,0.4,0.4v15.1l6.6-7.7c0.3-0.3,0.6-0.4,1-0.4h1.4c0.1,0,0.2,0,0.2,0.1c0,0.1,0,0.2-0.1,0.3L1130.9,1282.2z"/>
	</g>
	<g>
		<polygon points="1212.8,1337.7 1209.8,1337.7 1209.8,1171.2 943.2,1171.2 943.2,1168.2 1212.8,1168.2 		"/>
	</g>
</g>
<g>
	<g>
		<g>
			<path d="M270.1,1749.9l6,0l0.2-30.2c-22.4,16.1-37.1,42.4-37.1,72.1h33.8L270.1,1749.9z"/>
			<path d="M379.9,1750l6,0l-3,41.9h33.8c0-29.7-14.6-56-37.1-72.1L379.9,1750z"/>
			<path d="M294.2,1750.1l6.1,0l-3.7,41.8h62.9l-3.7-41.8l6.1,0l-0.3-40.4c-10.3-4.2-21.6-6.5-33.5-6.5c-11.9,0-23.2,2.3-33.5,6.5
				L294.2,1750.1z"/>
		</g>
		<path d="M416.7,1614.4c-24.3,9.1-55.8,14.1-88.7,14.1s-64.4-5-88.7-14.1l3.8,20.3c4.9,1.5,10,2.9,15.3,4.1l0,0l1.7,9.3
			c6.8,1.6,13.8,2.9,21,4l-0.1,9.9l-2.7,0l0,4.8c-3.4-0.6-6.8-1.2-10.2-1.9v0l1,10c3.9,0.8,7.8,1.4,11.8,2l-0.6,77.2l-5.7,0
			l2.7,37.6l2.7,0v0l4.7,0l7.6,0.1l3.3-37.6l-5.7,0l0.6-76c10.6,1.2,21.5,1.9,32.7,2.1v5.4h9.6v-5.4c11.2-0.2,22.1-0.9,32.7-2.1
			l0.6,76l-5.7,0l3.3,37.6l7.6-0.1l4.7,0v0l2.7,0l2.7-37.6l-5.7,0l-0.6-77.2c4-0.6,8-1.3,11.8-2l1-10v0c-3.4,0.7-6.8,1.3-10.2,1.9
			l0-4.8l-2.7,0l-0.1-9.9c7.2-1.1,14.3-2.4,21-4l1.7-9.3l0,0c5.3-1.2,10.4-2.6,15.3-4.1L416.7,1614.4z M293.3,1668.9l0.1-6.7l-2.7,0
			l0.1-8.7c10.5,1.2,21.4,1.9,32.5,2.1v15.2C313,1670.6,303,1670,293.3,1668.9z M365.3,1662.2l-2.7,0l0.1,6.7
			c-9.7,1.1-19.7,1.7-29.9,1.8v-15.2c11-0.2,21.9-0.9,32.5-2.1L365.3,1662.2z"/>
	</g>
	<g>
		<g>
			<path d="M228.5,1847c-0.7,1-1.7,1.7-2.9,2.2c-1.2,0.4-2.5,0.7-3.9,0.7c-0.5,0-1,0-1.7,0c-0.6,0-1.1-0.1-1.5-0.2
				c-0.6-0.2-1-0.5-1-0.9v-3.5c0-0.1,0-0.3,0-0.4c0-0.1,0-0.2,0.1-0.3c0.1-0.1,0.1-0.1,0.2-0.1c0.1,0,0.3,0,0.5,0.1
				c0.4,0.1,1,0.2,1.5,0.2c0.6,0,1.1,0,1.5,0c1,0,1.8-0.4,2.4-1.1c0.6-0.7,0.9-2.1,0.9-4.1v-25.6c0-0.2,0.1-0.3,0.2-0.4
				c0.1-0.1,0.3-0.2,0.4-0.2h4.2c0.2,0,0.3,0.1,0.4,0.2c0.1,0.1,0.2,0.2,0.2,0.4v25.4c0,1.5-0.1,2.9-0.4,4.3
				C229.5,1845.1,229.1,1846.2,228.5,1847z"/>
			<path d="M263.3,1849.5c-0.2,0-0.4,0-0.5-0.1c-0.1,0-0.2-0.2-0.3-0.4l-3.4-8.6h-15.5l-3.4,8.6c-0.1,0.2-0.1,0.4-0.2,0.4
				c-0.1,0-0.3,0.1-0.5,0.1h-4.4c-0.6,0-0.8-0.2-0.6-0.7l13.9-34.7c0.1-0.3,0.2-0.4,0.2-0.5c0,0,0.2-0.1,0.5-0.1h4.4
				c0.3,0,0.5,0,0.5,0.1c0.1,0,0.1,0.2,0.2,0.5l13.9,34.7c0.2,0.4,0,0.7-0.6,0.7H263.3z M245.5,1835.4h11.6l-5.8-14.7L245.5,1835.4z
				"/>
			<path d="M278.6,1834.9v14c0,0.4-0.2,0.6-0.6,0.6h-4.2c-0.4,0-0.6-0.2-0.6-0.6v-34.7c0-0.2,0.1-0.3,0.2-0.4
				c0.1-0.1,0.2-0.2,0.4-0.2h9.6c3.5,0,6.3,0.9,8.4,2.6c2,1.7,3.1,4.4,3.1,8c0,1.7-0.3,3.3-0.9,4.6c-0.6,1.4-1.4,2.5-2.5,3.4
				c-1.1,0.9-2.3,1.6-3.8,2c-1.4,0.5-3,0.7-4.7,0.7H278.6z M278.6,1818.5v11.4h3.9c2.1,0,3.8-0.5,5.1-1.4c1.2-0.9,1.9-2.4,1.9-4.5
				c0-1.8-0.5-3.2-1.5-4.1c-1-0.9-2.3-1.4-3.9-1.4H278.6z"/>
			<path d="M321,1849.5c-0.2,0-0.4,0-0.5-0.1c-0.1,0-0.2-0.2-0.3-0.4l-3.4-8.6h-15.5l-3.4,8.6c-0.1,0.2-0.1,0.4-0.2,0.4
				c-0.1,0-0.3,0.1-0.5,0.1h-4.4c-0.6,0-0.8-0.2-0.6-0.7l13.9-34.7c0.1-0.3,0.2-0.4,0.2-0.5c0,0,0.2-0.1,0.5-0.1h4.4
				c0.3,0,0.5,0,0.5,0.1c0.1,0,0.1,0.2,0.2,0.5l13.9,34.7c0.2,0.4,0,0.7-0.6,0.7H321z M303.3,1835.4h11.6l-5.8-14.7L303.3,1835.4z"
				/>
			<path d="M351.8,1849.5c-0.3,0-0.4,0-0.6-0.1c-0.1-0.1-0.3-0.3-0.5-0.6l-15-25.8v25.8c0,0.3,0,0.5-0.1,0.6
				c-0.1,0.1-0.3,0.1-0.6,0.1h-4c-0.3,0-0.4,0-0.6-0.1c-0.1-0.1-0.2-0.3-0.2-0.6v-34.4c0-0.4,0.1-0.6,0.2-0.7
				c0.1-0.1,0.4-0.2,0.7-0.2h4.4c0.3,0,0.4,0,0.6,0.1c0.1,0.1,0.3,0.3,0.5,0.6l15,25.7v-25.7c0-0.3,0-0.5,0.1-0.6
				c0.1-0.1,0.3-0.1,0.6-0.1h4c0.3,0,0.5,0,0.6,0.1c0.1,0.1,0.1,0.3,0.1,0.6v34.4c0,0.4-0.1,0.6-0.2,0.7c-0.1,0.1-0.3,0.2-0.7,0.2
				H351.8z"/>
			<path d="M366.9,1849.5c-0.6,0-1-0.1-1.1-0.2c-0.1-0.1-0.2-0.5-0.2-1.2v-33.3c0-0.6,0.1-1,0.2-1.1c0.1-0.1,0.5-0.2,1.1-0.2h16.9
				c0.3,0,0.6,0.1,0.6,0.2c0.1,0.1,0.1,0.3,0.1,0.6v3.5c0,0.3,0,0.5-0.1,0.6c-0.1,0.1-0.3,0.2-0.6,0.2h-12.9v9.7h12.3
				c0.5,0,0.7,0.3,0.7,0.8v3.6c0,0.5-0.2,0.8-0.7,0.8h-12.3v10.9h13.5c0.4,0,0.7,0.3,0.7,0.8v3.6c0,0.5-0.2,0.8-0.7,0.8H366.9z"/>
			<path d="M409.1,1846.9c-0.8,0.9-1.9,1.6-3.2,2.3c-1.3,0.6-2.6,1-4.1,1.1c-0.8,0.1-1.6,0.1-2.5,0c-0.9-0.1-1.8-0.2-2.7-0.3
				c-0.9-0.1-1.7-0.3-2.4-0.5c-0.7-0.2-1.2-0.3-1.5-0.5c-0.5-0.2-0.8-0.4-0.9-0.5c-0.1-0.1-0.1-0.3,0-0.7l0.3-3.5
				c0-0.3,0.1-0.4,0.2-0.5c0.1-0.1,0.4,0,0.7,0.1c0.4,0.2,0.9,0.3,1.6,0.5c0.7,0.2,1.5,0.4,2.3,0.5c0.9,0.1,1.7,0.2,2.6,0.3
				c0.9,0,1.7,0,2.4-0.2c0.9-0.2,1.7-0.5,2.2-0.9c0.6-0.4,1-0.8,1.4-1.3c0.3-0.5,0.6-1,0.7-1.6c0.1-0.6,0.2-1.2,0.2-1.8
				c0-0.6-0.4-1.4-1.2-2.5c-0.8-1-1.9-2-3.4-2.9c-1.8-1-3.3-2-4.6-2.9c-1.3-0.9-2.4-1.8-3.2-2.7c-0.8-0.9-1.5-1.8-1.9-2.8
				c-0.4-1-0.6-2-0.6-3.1c0-1.3,0.3-2.5,0.8-3.7c0.6-1.2,1.3-2.2,2.3-3.1c1-0.9,2.1-1.6,3.5-2.1c1.3-0.5,2.8-0.8,4.5-0.8
				c1.7,0,3,0.1,4.1,0.3c1.1,0.2,2,0.5,2.7,0.7c0.3,0.1,0.6,0.3,0.6,0.4c0.1,0.1,0.1,0.3,0,0.5l-0.6,3.1c-0.1,0.3-0.2,0.6-0.3,0.7
				c-0.1,0.1-0.4,0.1-0.7,0c-0.5-0.2-1-0.3-1.6-0.5c-0.6-0.1-1.2-0.3-1.8-0.4c-0.6-0.1-1.2-0.2-1.7-0.2c-0.6,0-1.1,0-1.5,0
				c-1.8,0.3-3,0.9-3.7,1.7c-0.7,0.9-1.1,2-1.1,3.3c0,0.8,0.4,1.7,1.2,2.6c0.8,1,2,1.9,3.6,2.9c2,1.2,3.6,2.3,4.9,3.2
				c1.3,1,2.3,1.9,3,2.7c0.7,0.9,1.3,1.8,1.6,2.6c0.3,0.9,0.5,1.9,0.5,2.9C411.9,1842.5,411,1844.9,409.1,1846.9z"/>
			<path d="M420.3,1849.5c-0.6,0-1-0.1-1.1-0.2c-0.1-0.1-0.2-0.5-0.2-1.2v-33.3c0-0.6,0.1-1,0.2-1.1c0.1-0.1,0.5-0.2,1.1-0.2h16.9
				c0.3,0,0.6,0.1,0.6,0.2c0.1,0.1,0.1,0.3,0.1,0.6v3.5c0,0.3,0,0.5-0.1,0.6c-0.1,0.1-0.3,0.2-0.6,0.2h-12.9v9.7h12.3
				c0.5,0,0.7,0.3,0.7,0.8v3.6c0,0.5-0.2,0.8-0.7,0.8h-12.3v10.9h13.5c0.4,0,0.7,0.3,0.7,0.8v3.6c0,0.5-0.2,0.8-0.7,0.8H420.3z"/>
			<path d="M256,1882.7c0,0.3-0.1,0.4-0.4,0.4h-1.3c-0.3,0-0.4-0.1-0.4-0.4v-20.2c0-0.4,0-0.7,0.1-0.8c0.1-0.1,0.3-0.1,0.7-0.1h5.2
				c2.1,0,3.8,0.5,5,1.5c1.2,1.1,1.9,2.6,1.9,4.6c0,1-0.2,1.9-0.5,2.7c-0.4,0.8-0.9,1.4-1.5,2c-0.6,0.5-1.4,0.9-2.3,1.2
				c-0.9,0.3-1.8,0.4-2.8,0.3H256V1882.7z M264.6,1867.7c0-1.4-0.4-2.4-1.1-3.2c-0.7-0.7-1.8-1.1-3.2-1.1H256v8.7h2.3
				c0.9,0,1.8,0,2.5-0.1c0.7-0.1,1.4-0.3,1.9-0.6c0.5-0.3,1-0.7,1.3-1.3C264.4,1869.4,264.6,1868.7,264.6,1867.7z"/>
			<path d="M282.8,1882.7c0,0.3-0.1,0.4-0.4,0.4h-1.2c-0.3,0-0.4-0.1-0.4-0.4v-8.9c0-0.9-0.1-1.7-0.2-2.4c-0.2-0.6-0.4-1.2-0.7-1.6
				c-0.3-0.4-0.7-0.7-1.1-0.9c-0.4-0.2-0.9-0.3-1.5-0.3c-1.6,0-2.8,0.4-3.6,1.1c-0.8,0.8-1.3,1.8-1.3,3.1v9.7c0,0.3-0.1,0.4-0.4,0.4
				h-1.2c-0.3,0-0.4-0.1-0.4-0.4v-22.3c0-0.3,0.1-0.4,0.4-0.4h1.2c0.3,0,0.4,0.1,0.4,0.4v8.4c0.5-0.6,1.2-1.1,2-1.3
				c0.8-0.3,1.8-0.4,3-0.4c1.9,0,3.2,0.6,4.1,1.7c0.9,1.1,1.3,2.8,1.3,5V1882.7z"/>
			<path d="M295.3,1869.2c-0.3-0.1-0.8-0.2-1.4-0.2c-1.4,0-2.5,0.7-3.2,2.1c-0.5,1.1-0.8,2.5-0.8,4.2v7.3c0,0.3-0.1,0.4-0.4,0.4
				h-1.1c-0.3,0-0.4-0.1-0.4-0.4v-11.8c0-0.7,0-1.3,0-1.7c0-0.4,0-0.9,0-1.4c0-0.3,0.1-0.4,0.4-0.4h1.1c0.3,0,0.4,0.1,0.4,0.4v2.8
				c0.9-2.4,2.3-3.7,4.2-3.7c0.4,0,0.9,0.1,1.3,0.2c0.1,0,0.2,0.1,0.3,0.2c0.1,0.1,0.1,0.2,0.1,0.4v1.2c0,0.1,0,0.2-0.1,0.2
				C295.5,1869.2,295.4,1869.2,295.3,1869.2z"/>
			<path d="M299.2,1869.9c-0.1,0.1-0.2,0.1-0.3,0c-0.1,0-0.1-0.1-0.1-0.2v-1.1c0-0.3,0.1-0.5,0.4-0.6c0.7-0.4,1.4-0.6,2.2-0.8
				c0.8-0.1,1.6-0.2,2.5-0.2c1.9,0,3.3,0.5,4.2,1.4c0.9,0.9,1.3,2.3,1.3,4.2v7.3c0,0.6,0,1.1,0,1.6c0,0.5,0,0.9,0.1,1.3
				c0,0.3-0.1,0.4-0.4,0.4h-1c-0.3,0-0.4-0.1-0.4-0.4v-2.2c-0.4,1-1.1,1.7-2,2.3c-1,0.5-2,0.8-3.1,0.8c-2,0-3.4-0.6-4.3-1.7
				c-0.3-0.4-0.5-0.8-0.7-1.3c-0.2-0.5-0.2-1-0.2-1.5c0-1.2,0.3-2.2,0.8-3c0.6-0.9,1.4-1.5,2.5-1.9c1.4-0.5,3.5-0.8,6.4-0.8h0.4
				v-0.9c0-1.2-0.3-2.1-0.8-2.8c-0.6-0.6-1.5-1-2.8-1c-0.9,0-1.7,0.1-2.5,0.3C300.6,1869.1,299.9,1869.4,299.2,1869.9z
				 M307.4,1874.9h-0.6c-1.1,0-2,0-2.9,0.1c-0.8,0.1-1.5,0.3-2.1,0.5c-0.8,0.3-1.4,0.7-1.8,1.3c-0.4,0.6-0.6,1.3-0.6,2
				c0,0.5,0.1,0.9,0.2,1.3c0.2,0.4,0.4,0.7,0.7,1c0.6,0.5,1.4,0.7,2.3,0.7c0.7,0,1.3-0.1,1.9-0.4c0.6-0.3,1.1-0.7,1.5-1.2
				c0.4-0.5,0.8-1.1,1-1.9c0.2-0.7,0.3-1.6,0.3-2.6V1874.9z"/>
			<path d="M313.5,1881.2c1.2,0.5,2.4,0.7,3.7,0.7c1,0,1.9-0.3,2.6-0.8c0.7-0.5,1-1.2,1-2.1c0-0.5-0.2-1-0.6-1.5
				c-0.4-0.5-0.8-0.9-1.4-1.2c-0.6-0.3-1.2-0.6-1.8-0.9c-0.6-0.3-1.2-0.6-1.8-0.9c-0.7-0.4-1.2-0.9-1.5-1.4
				c-0.3-0.6-0.5-1.2-0.5-1.8c0-0.7,0.1-1.3,0.4-1.9c0.3-0.5,0.6-1,1.1-1.4c0.5-0.4,1-0.6,1.6-0.8s1.3-0.3,2-0.3
				c0.7,0,1.4,0,1.9,0.1c0.5,0.1,1.1,0.2,1.6,0.3c0.1,0,0.2,0.1,0.3,0.2c0.1,0.1,0.1,0.2,0.1,0.3l-0.1,0.9c0,0.2-0.1,0.3-0.2,0.3
				c-0.1,0-0.2,0-0.3,0c-0.5-0.2-1-0.3-1.4-0.4c-0.5-0.1-1.1-0.1-1.7-0.1c-2.2,0-3.4,0.9-3.4,2.7c0,0.4,0.1,0.8,0.4,1.1
				c0.3,0.3,0.8,0.7,1.5,1c0.6,0.3,1.2,0.6,1.8,0.9c0.6,0.3,1.2,0.6,1.9,1c0.6,0.3,1.1,0.8,1.5,1.5c0.4,0.7,0.6,1.4,0.6,2.2
				c0,0.8-0.2,1.4-0.5,2c-0.3,0.6-0.7,1-1.2,1.4c-0.5,0.4-1.1,0.6-1.8,0.8c-0.7,0.2-1.4,0.3-2.1,0.3c-0.4,0-0.8,0-1.1,0
				c-0.3,0-0.7,0-1-0.1c-0.3,0-0.6-0.1-0.9-0.1c-0.3-0.1-0.6-0.1-1-0.2c-0.3-0.1-0.4-0.3-0.4-0.5l0.1-1.1
				C313.1,1881.2,313.2,1881.1,313.5,1881.2z"/>
			<path d="M327.6,1875.8c0,1,0.1,1.8,0.3,2.6c0.2,0.7,0.6,1.4,1.1,1.9c0.5,0.5,1,0.9,1.7,1.2c0.6,0.3,1.4,0.4,2.2,0.4
				c0.8,0,1.5-0.1,2.2-0.2c0.7-0.1,1.3-0.4,1.9-0.7c0.3-0.1,0.4,0,0.4,0.2v1.3c0,0.2-0.1,0.3-0.3,0.4c-0.6,0.3-1.3,0.4-2,0.6
				c-0.7,0.1-1.4,0.2-2.3,0.2c-2.4,0-4.2-0.7-5.4-2.1c-1.2-1.4-1.8-3.5-1.8-6.2c0-2.5,0.6-4.4,1.8-5.9c1.3-1.5,2.9-2.3,4.8-2.3
				c1.1,0,2,0.2,2.8,0.6c0.8,0.4,1.5,1,2,1.7c1,1.4,1.5,3.2,1.5,5.5c0,0.3,0,0.4,0,0.6c0,0.1,0,0.2-0.1,0.3
				c-0.1,0.1-0.2,0.1-0.3,0.1c-0.1,0-0.4,0-0.6,0H327.6z M336.3,1874.2c0-0.8-0.1-1.5-0.2-2.1c-0.2-0.6-0.4-1.2-0.7-1.7
				c-0.7-1.1-1.7-1.7-3.1-1.7c-1.4,0-2.5,0.6-3.4,1.7c-0.3,0.5-0.6,1.1-0.9,1.8c-0.2,0.7-0.4,1.3-0.4,2H336.3z"/>
			<path d="M342.2,1860.4c0-0.3,0.1-0.4,0.4-0.4h1.1c0.3,0,0.4,0.1,0.4,0.4v9.2c0.5-0.8,1.2-1.4,2.1-1.9s1.9-0.7,3-0.7
				c4.3,0,6.5,2.7,6.5,8.2c0,1.1-0.1,2.1-0.3,3.1c-0.2,1-0.6,1.9-1.2,2.6c-0.5,0.8-1.2,1.4-2,1.8c-0.8,0.5-1.8,0.7-2.9,0.7
				c-2.3,0-4-1-5-3v2.3c0,0.3-0.1,0.4-0.4,0.4h-1.1c-0.3,0-0.4-0.1-0.4-0.4V1860.4z M353.6,1875.2c0-0.8-0.1-1.6-0.2-2.4
				c-0.2-0.8-0.4-1.5-0.8-2.1c-0.4-0.6-0.9-1.1-1.5-1.5c-0.6-0.4-1.4-0.6-2.2-0.6c-0.8,0-1.5,0.2-2.1,0.5c-0.6,0.3-1.1,0.8-1.5,1.4
				c-0.4,0.6-0.7,1.3-0.9,2.1c-0.2,0.8-0.3,1.6-0.3,2.5c0,0.9,0.1,1.7,0.4,2.5c0.2,0.8,0.6,1.5,1,2.1c0.4,0.6,0.9,1.1,1.5,1.4
				c0.6,0.4,1.2,0.5,1.9,0.5c0.9,0,1.6-0.2,2.2-0.6c0.6-0.4,1.1-0.9,1.5-1.5c0.4-0.6,0.6-1.3,0.8-2.1
				C353.5,1876.8,353.6,1876,353.6,1875.2z"/>
			<path d="M373.6,1875.3c0,1.1-0.2,2.2-0.5,3.2c-0.3,1-0.8,1.8-1.3,2.6c-0.7,0.8-1.5,1.4-2.4,1.9c-0.9,0.4-2,0.7-3.2,0.7
				c-1.2,0-2.3-0.2-3.2-0.7c-0.9-0.4-1.8-1.1-2.4-1.9c-0.5-0.7-1-1.6-1.3-2.6c-0.3-1-0.5-2-0.5-3.2c0-2.3,0.6-4.3,1.8-5.7
				c1.4-1.7,3.2-2.5,5.7-2.5c1.2,0,2.3,0.2,3.2,0.6c0.9,0.4,1.7,1,2.4,1.9C373,1871.1,373.6,1873,373.6,1875.3z M371.4,1875.3
				c0-0.9-0.1-1.8-0.4-2.6c-0.2-0.8-0.6-1.5-1-2.1c-1-1.2-2.3-1.9-3.9-1.9c-0.8,0-1.5,0.2-2.2,0.5c-0.6,0.3-1.2,0.8-1.7,1.4
				c-0.4,0.6-0.8,1.3-1,2.1c-0.2,0.8-0.4,1.6-0.4,2.6c0,0.9,0.1,1.8,0.4,2.6c0.2,0.8,0.6,1.5,1,2.1c1,1.3,2.3,1.9,3.9,1.9
				c0.8,0,1.5-0.2,2.2-0.5c0.6-0.3,1.2-0.8,1.7-1.4c0.4-0.6,0.8-1.3,1-2.1C371.3,1877.1,371.4,1876.2,371.4,1875.3z"/>
			<path d="M391.1,1875.3c0,1.1-0.2,2.2-0.5,3.2c-0.3,1-0.8,1.8-1.3,2.6c-0.7,0.8-1.5,1.4-2.4,1.9c-0.9,0.4-2,0.7-3.2,0.7
				c-1.2,0-2.3-0.2-3.2-0.7c-0.9-0.4-1.8-1.1-2.4-1.9c-0.5-0.7-1-1.6-1.3-2.6c-0.3-1-0.5-2-0.5-3.2c0-2.3,0.6-4.3,1.8-5.7
				c1.4-1.7,3.2-2.5,5.7-2.5c1.2,0,2.3,0.2,3.2,0.6c0.9,0.4,1.7,1,2.4,1.9C390.5,1871.1,391.1,1873,391.1,1875.3z M389,1875.3
				c0-0.9-0.1-1.8-0.4-2.6c-0.2-0.8-0.6-1.5-1-2.1c-1-1.2-2.3-1.9-3.9-1.9c-0.8,0-1.5,0.2-2.2,0.5c-0.6,0.3-1.2,0.8-1.7,1.4
				c-0.4,0.6-0.8,1.3-1,2.1c-0.2,0.8-0.4,1.6-0.4,2.6c0,0.9,0.1,1.8,0.4,2.6c0.2,0.8,0.6,1.5,1,2.1c1,1.3,2.3,1.9,3.9,1.9
				c0.8,0,1.5-0.2,2.2-0.5c0.6-0.3,1.2-0.8,1.7-1.4c0.4-0.6,0.8-1.3,1-2.1C388.9,1877.1,389,1876.2,389,1875.3z"/>
			<path d="M400.2,1874.4l6.3,8.3c0.1,0.1,0.1,0.2,0.1,0.3c0,0.1-0.1,0.1-0.2,0.1h-1.2c-0.2,0-0.4,0-0.5-0.1
				c-0.2-0.1-0.3-0.2-0.4-0.3l-5.2-6.9l-1.9,2.2v4.7c0,0.3-0.1,0.4-0.4,0.4h-1.2c-0.3,0-0.4-0.1-0.4-0.4v-22.3
				c0-0.3,0.1-0.4,0.4-0.4h1.2c0.3,0,0.4,0.1,0.4,0.4v15.1l6.6-7.7c0.3-0.3,0.6-0.4,1-0.4h1.4c0.1,0,0.2,0,0.2,0.1
				c0,0.1,0,0.2-0.1,0.3L400.2,1874.4z"/>
		</g>
	</g>
</g>
</svg>
