<?xml version="1.0" encoding="utf-8"?>
<!-- Generator: Adobe Illustrator 22.0.0, SVG Export Plug-In . SVG Version: 6.00 Build 0)  -->
<svg version="1.1" id="Layer_1" xmlns="http://www.w3.org/2000/svg" xmlns:xlink="http://www.w3.org/1999/xlink" x="0px" y="0px"
	 viewBox="0 0 600 400" style="enable-background:new 0 0 600 400;" xml:space="preserve">
<g>
	<g>
		<g>
			<path d="M206,246.1l6,0l-3,41.9h33.8c0-29.7-14.6-56-37.1-72.1L206,246.1z"/>
			<path d="M96.2,246.1l6,0l0.2-30.2C80,232,65.4,258.3,65.4,288h33.8L96.2,246.1z"/>
			<path d="M120.3,246.3l6.1,0l-3.7,41.8h62.9l-3.7-41.8l6.1,0l-0.3-40.4c-10.3-4.2-21.6-6.5-33.5-6.5c-11.9,0-23.2,2.3-33.5,6.5
				L120.3,246.3z"/>
		</g>
		<path d="M242.8,110.6c-24.3,9.1-55.8,14.1-88.7,14.1s-64.4-5-88.7-14.1l3.8,20.3c4.9,1.5,10,2.9,15.3,4.1l0,0l1.7,9.3
			c6.8,1.6,13.8,2.9,21,4l-0.1,9.9l-2.7,0l0,4.8c-3.4-0.6-6.8-1.2-10.2-1.9v0l1,10c3.9,0.8,7.8,1.4,11.8,2l-0.6,77.2l-5.7,0
			l2.7,37.6l2.7,0v0l4.7,0l7.6,0.1l3.3-37.6l-5.7,0l0.6-76c10.6,1.2,21.5,1.9,32.7,2.1v5.4h9.6v-5.4c11.2-0.2,22.1-0.9,32.7-2.1
			l0.6,76l-5.7,0l3.3,37.6l7.6-0.1l4.7,0v0l2.7,0l2.7-37.6l-5.7,0l-0.6-77.2c4-0.6,8-1.3,11.8-2l1-10v0c-3.4,0.7-6.8,1.3-10.2,1.9
			l0-4.8l-2.7,0l-0.1-9.9c7.2-1.1,14.3-2.4,21-4l1.7-9.3l0,0c5.3-1.2,10.4-2.6,15.3-4.1L242.8,110.6z M119.4,165.1l0.1-6.7l-2.7,0
			l0.1-8.7c10.5,1.2,21.4,1.9,32.5,2.1V167C139.1,166.8,129.1,166.2,119.4,165.1z M191.5,158.4l-2.7,0l0.1,6.7
			c-9.7,1.1-19.7,1.7-29.9,1.8v-15.2c11-0.2,21.9-0.9,32.5-2.1L191.5,158.4z"/>
	</g>
	<g>
		<path d="M281.4,205.1c-0.7,1-1.7,1.7-2.9,2.2c-1.2,0.4-2.5,0.7-3.9,0.7c-0.5,0-1,0-1.7,0c-0.6,0-1.1-0.1-1.5-0.2
			c-0.6-0.2-1-0.5-1-0.9v-3.5c0-0.1,0-0.3,0-0.4c0-0.1,0-0.2,0.1-0.3c0.1-0.1,0.1-0.1,0.2-0.1c0.1,0,0.3,0,0.5,0.1
			c0.4,0.1,1,0.2,1.5,0.2c0.6,0,1.1,0,1.5,0c1,0,1.8-0.4,2.4-1.1c0.6-0.7,0.9-2.1,0.9-4.1v-25.6c0-0.2,0.1-0.3,0.2-0.4
			c0.1-0.1,0.3-0.2,0.4-0.2h4.2c0.2,0,0.3,0.1,0.4,0.2c0.1,0.1,0.2,0.2,0.2,0.4v25.4c0,1.5-0.1,2.9-0.4,4.3
			C282.4,203.2,282,204.3,281.4,205.1z"/>
		<path d="M316.2,207.6c-0.2,0-0.4,0-0.5-0.1c-0.1,0-0.2-0.2-0.3-0.4l-3.4-8.6h-15.5l-3.4,8.6c-0.1,0.2-0.1,0.4-0.2,0.4
			c-0.1,0-0.3,0.1-0.5,0.1h-4.4c-0.6,0-0.8-0.2-0.6-0.7l13.9-34.7c0.1-0.3,0.2-0.4,0.2-0.5c0,0,0.2-0.1,0.5-0.1h4.4
			c0.3,0,0.5,0,0.5,0.1c0.1,0,0.1,0.2,0.2,0.5l13.9,34.7c0.2,0.4,0,0.7-0.6,0.7H316.2z M298.4,193.5H310l-5.8-14.7L298.4,193.5z"/>
		<path d="M331.4,193v14c0,0.4-0.2,0.6-0.6,0.6h-4.2c-0.4,0-0.6-0.2-0.6-0.6v-34.7c0-0.2,0.1-0.3,0.2-0.4c0.1-0.1,0.2-0.2,0.4-0.2
			h9.6c3.5,0,6.3,0.9,8.4,2.6c2,1.7,3.1,4.4,3.1,8c0,1.7-0.3,3.3-0.9,4.6c-0.6,1.4-1.4,2.5-2.5,3.4c-1.1,0.9-2.3,1.6-3.8,2
			c-1.4,0.5-3,0.7-4.7,0.7H331.4z M331.4,176.6V188h3.9c2.1,0,3.8-0.5,5.1-1.4c1.2-0.9,1.9-2.4,1.9-4.5c0-1.8-0.5-3.2-1.5-4.1
			c-1-0.9-2.3-1.4-3.9-1.4H331.4z"/>
		<path d="M373.9,207.6c-0.2,0-0.4,0-0.5-0.1c-0.1,0-0.2-0.2-0.3-0.4l-3.4-8.6h-15.5l-3.4,8.6c-0.1,0.2-0.1,0.4-0.2,0.4
			c-0.1,0-0.3,0.1-0.5,0.1h-4.4c-0.6,0-0.8-0.2-0.6-0.7l13.9-34.7c0.1-0.3,0.2-0.4,0.2-0.5c0,0,0.2-0.1,0.5-0.1h4.4
			c0.3,0,0.5,0,0.5,0.1c0.1,0,0.1,0.2,0.2,0.5l13.9,34.7c0.2,0.4,0,0.7-0.6,0.7H373.9z M356.1,193.5h11.6l-5.8-14.7L356.1,193.5z"/>
		<path d="M404.7,207.6c-0.3,0-0.4,0-0.6-0.1c-0.1-0.1-0.3-0.3-0.5-0.6l-15-25.8v25.8c0,0.3,0,0.5-0.1,0.6c-0.1,0.1-0.3,0.1-0.6,0.1
			h-4c-0.3,0-0.4,0-0.6-0.1c-0.1-0.1-0.2-0.3-0.2-0.6v-34.4c0-0.4,0.1-0.6,0.2-0.7c0.1-0.1,0.4-0.2,0.7-0.2h4.4c0.3,0,0.4,0,0.6,0.1
			c0.1,0.1,0.3,0.3,0.5,0.6l15,25.7v-25.7c0-0.3,0-0.5,0.1-0.6c0.1-0.1,0.3-0.1,0.6-0.1h4c0.3,0,0.5,0,0.6,0.1
			c0.1,0.1,0.1,0.3,0.1,0.6v34.4c0,0.4-0.1,0.6-0.2,0.7c-0.1,0.1-0.3,0.2-0.7,0.2H404.7z"/>
		<path d="M419.7,207.6c-0.6,0-1-0.1-1.1-0.2c-0.1-0.1-0.2-0.5-0.2-1.2v-33.3c0-0.6,0.1-1,0.2-1.1c0.1-0.1,0.5-0.2,1.1-0.2h16.9
			c0.3,0,0.6,0.1,0.6,0.2c0.1,0.1,0.1,0.3,0.1,0.6v3.5c0,0.3,0,0.5-0.1,0.6c-0.1,0.1-0.3,0.2-0.6,0.2h-12.9v9.7h12.3
			c0.5,0,0.7,0.3,0.7,0.8v3.6c0,0.5-0.2,0.8-0.7,0.8h-12.3v10.9h13.5c0.4,0,0.7,0.3,0.7,0.8v3.6c0,0.5-0.2,0.8-0.7,0.8H419.7z"/>
		<path d="M462,205c-0.8,0.9-1.9,1.6-3.2,2.3c-1.3,0.6-2.6,1-4.1,1.1c-0.8,0.1-1.6,0.1-2.5,0c-0.9-0.1-1.8-0.2-2.7-0.3
			c-0.9-0.1-1.7-0.3-2.4-0.5c-0.7-0.2-1.2-0.3-1.5-0.5c-0.5-0.2-0.8-0.4-0.9-0.5c-0.1-0.1-0.1-0.3,0-0.7l0.3-3.5
			c0-0.3,0.1-0.4,0.2-0.5c0.1-0.1,0.4,0,0.7,0.1c0.4,0.2,0.9,0.3,1.6,0.5c0.7,0.2,1.5,0.4,2.3,0.5c0.9,0.1,1.7,0.2,2.6,0.3
			c0.9,0,1.7,0,2.4-0.2c0.9-0.2,1.7-0.5,2.2-0.9c0.6-0.4,1-0.8,1.4-1.3c0.3-0.5,0.6-1,0.7-1.6c0.1-0.6,0.2-1.2,0.2-1.8
			c0-0.6-0.4-1.4-1.2-2.5c-0.8-1-1.9-2-3.4-2.9c-1.8-1-3.3-2-4.6-2.9c-1.3-0.9-2.4-1.8-3.2-2.7c-0.8-0.9-1.5-1.8-1.9-2.8
			c-0.4-1-0.6-2-0.6-3.1c0-1.3,0.3-2.5,0.8-3.7c0.6-1.2,1.3-2.2,2.3-3.1c1-0.9,2.1-1.6,3.5-2.1c1.3-0.5,2.8-0.8,4.5-0.8
			c1.7,0,3,0.1,4.1,0.3c1.1,0.2,2,0.5,2.7,0.7c0.3,0.1,0.6,0.3,0.6,0.4c0.1,0.1,0.1,0.3,0,0.5l-0.6,3.1c-0.1,0.3-0.2,0.6-0.3,0.7
			c-0.1,0.1-0.4,0.1-0.7,0c-0.5-0.2-1-0.3-1.6-0.5c-0.6-0.1-1.2-0.3-1.8-0.4c-0.6-0.1-1.2-0.2-1.7-0.2c-0.6,0-1.1,0-1.5,0
			c-1.8,0.3-3,0.9-3.7,1.7c-0.7,0.9-1.1,2-1.1,3.3c0,0.8,0.4,1.7,1.2,2.6c0.8,1,2,1.9,3.6,2.9c2,1.2,3.6,2.3,4.9,3.2
			c1.3,1,2.3,1.9,3,2.7c0.7,0.9,1.3,1.8,1.6,2.6c0.3,0.9,0.5,1.9,0.5,2.9C464.8,200.6,463.8,203,462,205z"/>
		<path d="M473.2,207.6c-0.6,0-1-0.1-1.1-0.2c-0.1-0.1-0.2-0.5-0.2-1.2v-33.3c0-0.6,0.1-1,0.2-1.1c0.1-0.1,0.5-0.2,1.1-0.2H490
			c0.3,0,0.6,0.1,0.6,0.2c0.1,0.1,0.1,0.3,0.1,0.6v3.5c0,0.3,0,0.5-0.1,0.6c-0.1,0.1-0.3,0.2-0.6,0.2h-12.9v9.7h12.3
			c0.5,0,0.7,0.3,0.7,0.8v3.6c0,0.5-0.2,0.8-0.7,0.8h-12.3v10.9h13.5c0.4,0,0.7,0.3,0.7,0.8v3.6c0,0.5-0.2,0.8-0.7,0.8H473.2z"/>
		<path d="M308.9,240.8c0,0.3-0.1,0.4-0.4,0.4h-1.3c-0.3,0-0.4-0.1-0.4-0.4v-20.2c0-0.4,0-0.7,0.1-0.8c0.1-0.1,0.3-0.1,0.7-0.1h5.2
			c2.1,0,3.8,0.5,5,1.5c1.2,1.1,1.9,2.6,1.9,4.6c0,1-0.2,1.9-0.5,2.7c-0.4,0.8-0.9,1.4-1.5,2c-0.6,0.5-1.4,0.9-2.3,1.2
			c-0.9,0.3-1.8,0.4-2.8,0.3h-3.7V240.8z M317.5,225.8c0-1.4-0.4-2.4-1.1-3.2c-0.7-0.7-1.8-1.1-3.2-1.1h-4.3v8.7h2.3
			c0.9,0,1.8,0,2.5-0.1c0.7-0.1,1.4-0.3,1.9-0.6c0.5-0.3,1-0.7,1.3-1.3C317.2,227.6,317.4,226.8,317.5,225.8z"/>
		<path d="M335.7,240.8c0,0.3-0.1,0.4-0.4,0.4h-1.2c-0.3,0-0.4-0.1-0.4-0.4v-8.9c0-0.9-0.1-1.7-0.2-2.4c-0.2-0.6-0.4-1.2-0.7-1.6
			c-0.3-0.4-0.7-0.7-1.1-0.9c-0.4-0.2-0.9-0.3-1.5-0.3c-1.6,0-2.8,0.4-3.6,1.1c-0.8,0.8-1.3,1.8-1.3,3.1v9.7c0,0.3-0.1,0.4-0.4,0.4
			h-1.2c-0.3,0-0.4-0.1-0.4-0.4v-22.3c0-0.3,0.1-0.4,0.4-0.4h1.2c0.3,0,0.4,0.1,0.4,0.4v8.4c0.5-0.6,1.2-1.1,2-1.3
			c0.8-0.3,1.8-0.4,3-0.4c1.9,0,3.2,0.6,4.1,1.7c0.9,1.1,1.3,2.8,1.3,5V240.8z"/>
		<path d="M348.2,227.3c-0.3-0.1-0.8-0.2-1.4-0.2c-1.4,0-2.5,0.7-3.2,2.1c-0.5,1.1-0.8,2.5-0.8,4.2v7.3c0,0.3-0.1,0.4-0.4,0.4h-1.1
			c-0.3,0-0.4-0.1-0.4-0.4V229c0-0.7,0-1.3,0-1.7c0-0.4,0-0.9,0-1.4c0-0.3,0.1-0.4,0.4-0.4h1.1c0.3,0,0.4,0.1,0.4,0.4v2.8
			c0.9-2.4,2.3-3.7,4.2-3.7c0.4,0,0.9,0.1,1.3,0.2c0.1,0,0.2,0.1,0.3,0.2c0.1,0.1,0.1,0.2,0.1,0.4v1.2c0,0.1,0,0.2-0.1,0.2
			C348.4,227.3,348.3,227.3,348.2,227.3z"/>
		<path d="M352,228c-0.1,0.1-0.2,0.1-0.3,0c-0.1,0-0.1-0.1-0.1-0.2v-1.1c0-0.3,0.1-0.5,0.4-0.6c0.7-0.4,1.4-0.6,2.2-0.8
			c0.8-0.1,1.6-0.2,2.5-0.2c1.9,0,3.3,0.5,4.2,1.4c0.9,0.9,1.3,2.3,1.3,4.2v7.3c0,0.6,0,1.1,0,1.6c0,0.5,0,0.9,0.1,1.3
			c0,0.3-0.1,0.4-0.4,0.4h-1c-0.3,0-0.4-0.1-0.4-0.4v-2.2c-0.4,1-1.1,1.7-2,2.3c-1,0.5-2,0.8-3.1,0.8c-2,0-3.4-0.6-4.3-1.7
			c-0.3-0.4-0.5-0.8-0.7-1.3c-0.2-0.5-0.2-1-0.2-1.5c0-1.2,0.3-2.2,0.8-3c0.6-0.9,1.4-1.5,2.5-1.9c1.4-0.5,3.5-0.8,6.4-0.8h0.4v-0.9
			c0-1.2-0.3-2.1-0.8-2.8c-0.6-0.6-1.5-1-2.8-1c-0.9,0-1.7,0.1-2.5,0.3C353.4,227.2,352.7,227.5,352,228z M360.3,233h-0.6
			c-1.1,0-2,0-2.9,0.1c-0.8,0.1-1.5,0.3-2.1,0.5c-0.8,0.3-1.4,0.7-1.8,1.3c-0.4,0.6-0.6,1.3-0.6,2c0,0.5,0.1,0.9,0.2,1.3
			c0.2,0.4,0.4,0.7,0.7,1c0.6,0.5,1.4,0.7,2.3,0.7c0.7,0,1.3-0.1,1.9-0.4c0.6-0.3,1.1-0.7,1.5-1.2c0.4-0.5,0.8-1.1,1-1.9
			c0.2-0.7,0.3-1.6,0.3-2.6V233z"/>
		<path d="M366.4,239.3c1.2,0.5,2.4,0.7,3.7,0.7c1,0,1.9-0.3,2.6-0.8c0.7-0.5,1-1.2,1-2.1c0-0.5-0.2-1-0.6-1.5
			c-0.4-0.5-0.8-0.9-1.4-1.2c-0.6-0.3-1.2-0.6-1.8-0.9c-0.6-0.3-1.2-0.6-1.8-0.9c-0.7-0.4-1.2-0.9-1.5-1.4c-0.3-0.6-0.5-1.2-0.5-1.8
			c0-0.7,0.1-1.3,0.4-1.9c0.3-0.5,0.6-1,1.1-1.4c0.5-0.4,1-0.6,1.6-0.8c0.6-0.2,1.3-0.3,2-0.3c0.7,0,1.4,0,1.9,0.1
			c0.5,0.1,1.1,0.2,1.6,0.3c0.1,0,0.2,0.1,0.3,0.2c0.1,0.1,0.1,0.2,0.1,0.3l-0.1,0.9c0,0.2-0.1,0.3-0.2,0.3c-0.1,0-0.2,0-0.3,0
			c-0.5-0.2-1-0.3-1.4-0.4c-0.5-0.1-1.1-0.1-1.7-0.1c-2.2,0-3.4,0.9-3.4,2.7c0,0.4,0.1,0.8,0.4,1.1c0.3,0.3,0.8,0.7,1.5,1
			c0.6,0.3,1.2,0.6,1.8,0.9c0.6,0.3,1.2,0.6,1.9,1c0.6,0.3,1.1,0.8,1.5,1.5c0.4,0.7,0.6,1.4,0.6,2.2c0,0.8-0.2,1.4-0.5,2
			c-0.3,0.6-0.7,1-1.2,1.4c-0.5,0.4-1.1,0.6-1.8,0.8c-0.7,0.2-1.4,0.3-2.1,0.3c-0.4,0-0.8,0-1.1,0c-0.3,0-0.7,0-1-0.1
			c-0.3,0-0.6-0.1-0.9-0.1c-0.3-0.1-0.6-0.1-1-0.2c-0.3-0.1-0.4-0.3-0.4-0.5l0.1-1.1C365.9,239.3,366.1,239.2,366.4,239.3z"/>
		<path d="M380.4,233.9c0,1,0.1,1.8,0.3,2.6c0.2,0.7,0.6,1.4,1.1,1.9c0.5,0.5,1,0.9,1.7,1.2c0.6,0.3,1.4,0.4,2.2,0.4
			c0.8,0,1.5-0.1,2.2-0.2c0.7-0.1,1.3-0.4,1.9-0.7c0.3-0.1,0.4,0,0.4,0.2v1.3c0,0.2-0.1,0.3-0.3,0.4c-0.6,0.3-1.3,0.4-2,0.6
			c-0.7,0.1-1.4,0.2-2.3,0.2c-2.4,0-4.2-0.7-5.4-2.1c-1.2-1.4-1.8-3.5-1.8-6.2c0-2.5,0.6-4.4,1.8-5.9c1.3-1.5,2.9-2.3,4.8-2.3
			c1.1,0,2,0.2,2.8,0.6c0.8,0.4,1.5,1,2,1.7c1,1.4,1.5,3.2,1.5,5.5c0,0.3,0,0.4,0,0.6c0,0.1,0,0.2-0.1,0.3c-0.1,0.1-0.2,0.1-0.3,0.1
			c-0.1,0-0.4,0-0.6,0H380.4z M389.1,232.3c0-0.8-0.1-1.5-0.2-2.1c-0.2-0.6-0.4-1.2-0.7-1.7c-0.7-1.1-1.7-1.7-3.1-1.7
			c-1.4,0-2.5,0.6-3.4,1.7c-0.3,0.5-0.6,1.1-0.9,1.8c-0.2,0.7-0.4,1.3-0.4,2H389.1z"/>
		<path d="M395.1,218.5c0-0.3,0.1-0.4,0.4-0.4h1.1c0.3,0,0.4,0.1,0.4,0.4v9.2c0.5-0.8,1.2-1.4,2.1-1.9c0.9-0.5,1.9-0.7,3-0.7
			c4.3,0,6.5,2.7,6.5,8.2c0,1.1-0.1,2.1-0.3,3.1c-0.2,1-0.6,1.9-1.2,2.6c-0.5,0.8-1.2,1.4-2,1.8c-0.8,0.5-1.8,0.7-2.9,0.7
			c-2.3,0-4-1-5-3v2.3c0,0.3-0.1,0.4-0.4,0.4h-1.1c-0.3,0-0.4-0.1-0.4-0.4V218.5z M406.4,233.3c0-0.8-0.1-1.6-0.2-2.4
			c-0.2-0.8-0.4-1.5-0.8-2.1c-0.4-0.6-0.9-1.1-1.5-1.5c-0.6-0.4-1.4-0.6-2.2-0.6c-0.8,0-1.5,0.2-2.1,0.5c-0.6,0.3-1.1,0.8-1.5,1.4
			c-0.4,0.6-0.7,1.3-0.9,2.1c-0.2,0.8-0.3,1.6-0.3,2.5c0,0.9,0.1,1.7,0.4,2.5c0.2,0.8,0.6,1.5,1,2.1c0.4,0.6,0.9,1.1,1.5,1.4
			c0.6,0.4,1.2,0.5,1.9,0.5c0.9,0,1.6-0.2,2.2-0.6c0.6-0.4,1.1-0.9,1.5-1.5c0.4-0.6,0.6-1.3,0.8-2.1
			C406.4,234.9,406.4,234.1,406.4,233.3z"/>
		<path d="M426.4,233.4c0,1.1-0.2,2.2-0.5,3.2c-0.3,1-0.8,1.8-1.3,2.6c-0.7,0.8-1.5,1.4-2.4,1.9c-0.9,0.4-2,0.7-3.2,0.7
			c-1.2,0-2.3-0.2-3.2-0.7c-0.9-0.4-1.8-1.1-2.4-1.9c-0.5-0.7-1-1.6-1.3-2.6c-0.3-1-0.5-2-0.5-3.2c0-2.3,0.6-4.3,1.8-5.7
			c1.4-1.7,3.2-2.5,5.7-2.5c1.2,0,2.3,0.2,3.2,0.6c0.9,0.4,1.7,1,2.4,1.9C425.8,229.2,426.4,231.1,426.4,233.4z M424.3,233.4
			c0-0.9-0.1-1.8-0.4-2.6c-0.2-0.8-0.6-1.5-1-2.1c-1-1.2-2.3-1.9-3.9-1.9c-0.8,0-1.5,0.2-2.2,0.5c-0.6,0.3-1.2,0.8-1.7,1.4
			c-0.4,0.6-0.8,1.3-1,2.1c-0.2,0.8-0.4,1.6-0.4,2.6c0,0.9,0.1,1.8,0.4,2.6c0.2,0.8,0.6,1.5,1,2.1c1,1.3,2.3,1.9,3.9,1.9
			c0.8,0,1.5-0.2,2.2-0.5c0.6-0.3,1.2-0.8,1.7-1.4c0.4-0.6,0.8-1.3,1-2.1C424.1,235.2,424.3,234.3,424.3,233.4z"/>
		<path d="M444,233.4c0,1.1-0.2,2.2-0.5,3.2c-0.3,1-0.8,1.8-1.3,2.6c-0.7,0.8-1.5,1.4-2.4,1.9c-0.9,0.4-2,0.7-3.2,0.7
			c-1.2,0-2.3-0.2-3.2-0.7c-0.9-0.4-1.8-1.1-2.4-1.9c-0.5-0.7-1-1.6-1.3-2.6c-0.3-1-0.5-2-0.5-3.2c0-2.3,0.6-4.3,1.8-5.7
			c1.4-1.7,3.2-2.5,5.7-2.5c1.2,0,2.3,0.2,3.2,0.6c0.9,0.4,1.7,1,2.4,1.9C443.4,229.2,444,231.1,444,233.4z M441.8,233.4
			c0-0.9-0.1-1.8-0.4-2.6c-0.2-0.8-0.6-1.5-1-2.1c-1-1.2-2.3-1.9-3.9-1.9c-0.8,0-1.5,0.2-2.2,0.5c-0.6,0.3-1.2,0.8-1.7,1.4
			c-0.4,0.6-0.8,1.3-1,2.1c-0.2,0.8-0.4,1.6-0.4,2.6c0,0.9,0.1,1.8,0.4,2.6c0.2,0.8,0.6,1.5,1,2.1c1,1.3,2.3,1.9,3.9,1.9
			c0.8,0,1.5-0.2,2.2-0.5c0.6-0.3,1.2-0.8,1.7-1.4c0.4-0.6,0.8-1.3,1-2.1C441.7,235.2,441.8,234.3,441.8,233.4z"/>
		<path d="M453.1,232.5l6.3,8.3c0.1,0.1,0.1,0.2,0.1,0.3c0,0.1-0.1,0.1-0.2,0.1h-1.2c-0.2,0-0.4,0-0.5-0.1c-0.2-0.1-0.3-0.2-0.4-0.3
			l-5.2-6.9l-1.9,2.2v4.7c0,0.3-0.1,0.4-0.4,0.4h-1.2c-0.3,0-0.4-0.1-0.4-0.4v-22.3c0-0.3,0.1-0.4,0.4-0.4h1.2
			c0.3,0,0.4,0.1,0.4,0.4v15.1l6.6-7.7c0.3-0.3,0.6-0.4,1-0.4h1.4c0.1,0,0.2,0,0.2,0.1c0,0.1,0,0.2-0.1,0.3L453.1,232.5z"/>
	</g>
	<g>
		<polygon points="535,288 531.9,288 531.9,121.5 265.3,121.5 265.3,118.5 535,118.5 		"/>
	</g>
</g>
</svg>
