<?xml version="1.0" standalone="no"?>
<!DOCTYPE svg PUBLIC "-//W3C//DTD SVG 20010904//EN"
 "http://www.w3.org/TR/2001/REC-SVG-20010904/DTD/svg10.dtd">
<svg version="1.0" xmlns="http://www.w3.org/2000/svg"
 width="700.000000pt" height="700.000000pt" viewBox="0 0 700.000000 700.000000"
 preserveAspectRatio="xMidYMid meet">
<metadata>
Created by potrace 1.11, written by Peter Selinger 2001-2013
</metadata>
<g transform="translate(0.000000,700.000000) scale(0.100000,-0.100000)"
fill="#000000" stroke="none">
<path d="M144 6798 c3 -12 8 -35 10 -51 3 -15 7 -35 10 -45 3 -9 7 -33 10 -52
6 -36 52 -286 61 -330 3 -14 8 -41 11 -60 3 -19 13 -73 22 -119 l17 -84 135
-38 c74 -21 191 -52 260 -69 178 -44 186 -47 187 -71 1 -11 7 -44 13 -72 14
-71 17 -87 26 -144 5 -26 9 -51 10 -55 1 -5 2 -14 3 -20 1 -7 5 -18 9 -25 6
-10 295 -77 420 -98 44 -7 83 -14 108 -19 12 -2 39 -7 60 -10 45 -7 148 -25
181 -32 22 -4 23 -5 21 -189 -2 -180 -2 -185 -22 -186 -12 0 -34 -2 -51 -2
l-30 -2 0 -88 0 -88 -40 5 c-22 3 -65 10 -95 16 -30 6 -66 13 -80 15 -14 3
-58 11 -98 19 l-73 14 6 -67 c3 -36 8 -77 10 -91 2 -14 6 -59 10 -100 7 -92 9
-108 17 -115 8 -8 111 -30 244 -50 60 -10 116 -19 124 -20 8 -2 28 -4 44 -4
l28 -1 -6 -847 c-13 -1709 -17 -2067 -22 -2072 -3 -3 -49 -6 -102 -7 -119 -2
-112 0 -107 -23 2 -10 6 -65 10 -122 3 -57 8 -124 10 -149 2 -25 7 -83 10
-130 3 -47 8 -114 10 -150 3 -36 7 -94 10 -130 2 -36 7 -103 10 -150 3 -47 7
-107 10 -135 2 -27 7 -90 10 -140 4 -49 8 -106 10 -125 2 -19 5 -63 6 -97 1
-35 5 -63 8 -64 29 -5 561 -6 562 -1 0 4 2 14 3 22 2 8 6 51 10 95 4 44 9 100
11 125 3 25 7 70 9 100 5 62 17 202 21 240 1 14 5 63 9 110 4 47 9 101 11 120
2 19 7 63 10 97 9 108 14 176 20 243 8 105 16 182 21 222 l5 37 -108 3 -108 3
1 320 c1 176 5 743 9 1260 4 517 8 1018 9 1114 l0 173 76 -6 c41 -3 116 -10
165 -15 50 -6 124 -13 165 -15 41 -3 113 -8 160 -12 47 -3 108 -7 135 -9 65
-4 415 -18 483 -18 l52 -1 0 -103 0 -103 182 2 182 3 1 99 0 100 45 2 c25 1
128 5 230 9 102 3 214 8 250 10 98 6 250 16 295 20 22 2 76 7 120 10 44 4 94
9 110 11 17 1 65 6 108 10 l77 7 1 -114 c0 -63 2 -339 5 -614 10 -1129 16
-1945 14 -2112 l0 -33 -106 0 -105 0 6 -88 c4 -48 8 -98 10 -112 2 -14 7 -65
10 -115 4 -49 8 -101 10 -115 2 -14 7 -63 10 -110 3 -47 8 -101 10 -120 2 -19
6 -66 10 -105 3 -38 8 -92 10 -120 3 -27 7 -77 10 -110 3 -33 8 -85 10 -115 3
-30 8 -89 12 -130 3 -41 7 -86 8 -100 2 -14 3 -37 4 -51 l1 -27 285 2 285 1 1
30 c1 17 2 41 4 55 3 30 16 214 20 286 2 28 6 87 9 130 14 174 15 183 30 414
12 178 18 248 21 280 2 19 7 78 10 131 l6 95 -105 -1 c-65 0 -106 4 -107 10
-4 30 -18 1720 -22 2564 l-2 345 100 18 c55 9 118 20 140 23 72 11 100 15 125
20 14 3 36 7 49 10 31 6 29 2 36 70 3 33 8 74 10 90 3 24 16 175 17 195 1 25
-9 25 -119 4 -144 -27 -177 -33 -225 -41 l-38 -6 0 91 0 91 -40 -2 c-23 -2
-45 0 -50 3 -5 3 -10 86 -12 184 -3 171 -3 179 17 187 11 4 81 18 155 29 148
24 289 51 390 74 36 8 78 17 94 20 122 22 135 27 140 54 3 15 17 92 32 172 15
80 29 148 33 152 3 4 17 9 31 11 51 10 278 69 391 103 64 19 123 34 131 34 9
0 18 10 21 23 5 19 76 397 91 481 3 16 10 52 16 80 16 80 20 98 26 145 5 39 4
43 -12 38 -11 -3 -73 -24 -139 -47 -294 -101 -491 -154 -940 -256 -42 -9 -512
-93 -550 -98 -22 -2 -78 -10 -125 -16 -47 -7 -96 -13 -110 -15 -14 -1 -43 -5
-65 -9 -22 -3 -67 -9 -100 -12 -33 -3 -78 -7 -100 -9 -22 -2 -71 -6 -110 -10
-38 -3 -83 -8 -100 -10 -16 -2 -79 -7 -140 -10 -60 -4 -126 -8 -145 -10 -253
-23 -1068 -24 -1405 0 -27 2 -97 6 -155 10 -58 3 -121 8 -140 10 -33 4 -102
11 -210 20 -111 9 -231 24 -340 40 -14 3 -45 7 -70 10 -25 3 -56 7 -70 10 -14
2 -45 7 -70 10 -25 3 -83 13 -130 21 -47 9 -95 18 -108 20 -122 21 -170 30
-212 39 -14 3 -34 7 -45 9 -69 14 -359 82 -455 107 -180 47 -553 163 -575 179
-5 4 -25 11 -43 15 -31 6 -32 5 -28 -17z m2076 -1463 c36 -4 81 -8 100 -10 19
-2 69 -7 110 -10 41 -3 95 -8 120 -10 25 -2 90 -7 145 -10 55 -3 134 -8 175
-10 41 -3 156 -8 255 -11 99 -3 182 -7 185 -9 3 -2 5 -131 5 -287 l0 -283 -85
1 c-262 5 -690 32 -947 60 -32 4 -68 7 -81 7 -22 1 -22 2 -19 129 l3 128 -51
0 -52 0 1 158 c1 92 5 160 11 164 6 4 21 6 35 3 14 -2 54 -7 90 -10z m2686
-148 l-1 -162 -50 -5 -50 -5 0 -124 c0 -116 -1 -124 -20 -127 -11 -2 -51 -6
-90 -9 -38 -4 -90 -9 -115 -11 -73 -8 -193 -17 -395 -30 -27 -1 -152 -6 -277
-9 -217 -7 -228 -6 -229 11 -3 84 0 546 4 550 3 3 50 7 104 9 206 8 400 16
453 20 216 15 355 25 395 30 17 1 64 6 105 10 41 3 76 7 77 8 1 1 21 3 46 4
l44 3 -1 -163z"/>
<path d="M3298 3465 c-2 -1 -44 -6 -94 -9 -51 -4 -100 -8 -110 -10 -11 -2 -41
-7 -69 -10 -190 -25 -415 -79 -610 -146 -66 -23 -135 -46 -152 -52 l-33 -11
-1 -161 c-1 -183 -8 -909 -12 -1183 -2 -119 1 -184 8 -186 5 -2 57 -3 115 -2
l106 1 -2 -25 c-1 -14 -5 -55 -8 -91 -4 -36 -9 -94 -12 -130 -3 -36 -7 -81 -9
-100 -2 -19 -7 -70 -10 -113 -3 -44 -8 -95 -10 -115 -2 -21 -6 -71 -10 -112
-3 -41 -8 -91 -10 -110 -2 -19 -7 -73 -11 -120 -4 -47 -8 -98 -10 -115 -1 -16
-5 -68 -9 -115 -4 -47 -8 -96 -10 -110 -8 -49 -18 -196 -19 -259 l-1 -65 1170
-1 c644 0 1176 1 1183 4 14 4 13 35 -3 201 -6 61 -16 175 -20 230 -6 80 -23
268 -30 335 -2 22 -7 72 -10 110 -3 39 -7 90 -10 115 -2 25 -7 77 -10 115 -3
39 -8 93 -10 120 -3 28 -8 73 -10 100 -2 28 -7 86 -11 130 -4 44 -7 89 -8 100
-1 19 5 20 106 20 59 0 110 4 114 8 6 6 6 209 0 1184 -1 183 -4 334 -7 337 -9
9 -260 96 -335 116 -208 56 -380 90 -534 105 -36 4 -76 9 -90 12 -27 5 -496
13 -502 8z"/>
<path d="M1463 2788 c-177 -135 -409 -355 -530 -503 -206 -253 -307 -407 -439
-670 -149 -295 -274 -682 -309 -955 -3 -25 -10 -70 -15 -100 -11 -71 -20 -176
-26 -323 l-5 -117 641 0 641 0 -5 38 c-3 20 -8 82 -11 137 -3 55 -8 120 -10
145 -4 52 -13 165 -20 278 -3 42 -7 104 -10 137 -3 33 -7 96 -10 140 -3 44 -7
103 -10 130 -2 28 -7 95 -10 150 -3 55 -8 119 -10 142 -3 24 -7 88 -10 143 -4
55 -8 109 -10 119 -5 26 3 27 123 26 l102 -1 1 126 c0 69 2 324 4 568 2 243 2
442 0 442 -2 0 -34 -23 -72 -52z"/>
<path d="M5446 2618 c1 -123 3 -377 5 -565 2 -231 6 -343 13 -346 6 -2 58 -3
114 -3 l104 1 -7 -95 c-3 -52 -8 -115 -10 -140 -2 -25 -6 -85 -10 -135 -3 -49
-8 -110 -10 -135 -4 -40 -10 -132 -20 -280 -1 -25 -6 -90 -10 -145 -9 -111
-10 -126 -19 -274 -4 -58 -9 -121 -11 -140 -2 -20 -6 -82 -10 -139 l-7 -102
638 2 639 3 -1 55 c-5 229 -34 468 -90 720 -26 120 -97 338 -161 495 -222 543
-602 1034 -1080 1398 -34 26 -63 47 -65 47 -2 0 -3 -100 -2 -222z"/>
</g>
</svg>
