<svg xmlns="http://www.w3.org/2000/svg" viewBox="0 0 500 500">
  <style>
    .sun { fill: #fff; }
    .gate { fill: #000; }
  </style>
  <!--<circle class="sun" cx="250" cy="500" r="250"/>-->
  <path class="sun" d="M394.8 382.48h16.8l-8.4 117.32h94.64c0-83.16-40.88-156.8-103.88-201.88l.84 84.56zM87.36 382.48h16.8l.56-84.56C42 343 1.12 416.64 1.12 499.8h94.64l-8.4-117.32zM154.84 383.04h17.08l-10.36 117.04h176.12l-10.36-117.04h17.08l-.84-113.12c-28.84-11.76-60.48-18.2-93.8-18.2s-64.96 6.44-93.8 18.2l-1.12 113.12z"/>
  <path class="gate" d="M497.84 3.08C429.8 28.56 341.6 42.56 249.48 42.56S69.16 28.56 1.12 3.08l10.64 56.84c13.72 4.2 28 8.12 42.84 11.48l4.76 26.04c19.04 4.48 38.64 8.12 58.8 11.2l-.28 27.72h-7.56v13.44c-9.52-1.68-19.04-3.36-28.56-5.32l2.8 28c10.92 2.24 21.84 3.92 33.04 5.6l-1.68 216.16H99.96l7.56 105.28h20.72l21.28.28 9.24-105.28H142.8l1.68-212.8c29.68 3.36 60.2 5.32 91.56 5.88v15.12h26.88V187.6c31.36-.56 61.88-2.52 91.56-5.88l1.68 212.8H340.2l9.24 105.28 21.28-.28h20.72L399 394.24h-15.96l-1.68-216.16c11.2-1.68 22.4-3.64 33.04-5.6l2.8-28c-9.52 1.96-19.04 3.64-28.56 5.32v-13.44h-7.56l-.28-27.72c20.16-3.08 40.04-6.72 58.8-11.2l4.76-26.04c14.84-3.36 29.12-7.28 42.84-11.48l10.64-56.84zm-345.52 152.6l.28-18.76h-7.56l.28-24.36c29.4 3.36 59.92 5.32 91 5.88V161c-28.84-.56-56.84-2.24-84-5.32zm201.88-18.76h-7.56l.28 18.76c-27.16 3.08-55.16 4.76-83.72 5.04v-42.56c30.8-.56 61.32-2.52 91-5.88v24.64z"/>
</svg>
