<?xml version="1.0" encoding="utf-8"?>
<!-- Generator: Adobe Illustrator 22.0.0, SVG Export Plug-In . SVG Version: 6.00 Build 0)  -->
<svg version="1.1" id="Layer_1" xmlns="http://www.w3.org/2000/svg" xmlns:xlink="http://www.w3.org/1999/xlink" x="0px" y="0px"
	 viewBox="0 0 500 500" style="enable-background:new 0 0 500 500;" xml:space="preserve">
<style type="text/css">
	.st0{fill:#ED2939;}
</style>
<g>
	<g>
		<g>
			<path class="st0" d="M192.3,250.2l6,0l0.2-30.2c-22.4,16.1-37.1,42.4-37.1,72.1h33.8L192.3,250.2z"/>
			<path class="st0" d="M302.1,250.3l6,0l-3,41.9h33.8c0-29.7-14.6-56-37.1-72.1L302.1,250.3z"/>
			<path class="st0" d="M216.4,250.4l6.1,0l-3.7,41.8h62.9l-3.7-41.8l6.1,0l-0.3-40.4c-10.3-4.2-21.6-6.5-33.5-6.5
				c-11.9,0-23.2,2.3-33.5,6.5L216.4,250.4z"/>
		</g>
		<path d="M338.9,114.8c-24.3,9.1-55.8,14.1-88.7,14.1s-64.4-5-88.7-14.1l3.8,20.3c4.9,1.5,10,2.9,15.3,4.1l0,0l1.7,9.3
			c6.8,1.6,13.8,2.9,21,4l-0.1,9.9l-2.7,0l0,4.8c-3.4-0.6-6.8-1.2-10.2-1.9v0l1,10c3.9,0.8,7.8,1.4,11.8,2l-0.6,77.2l-5.7,0
			l2.7,37.6l2.7,0v0l4.7,0l7.6,0.1l3.3-37.6l-5.7,0l0.6-76c10.6,1.2,21.5,1.9,32.7,2.1v5.4h9.6v-5.4c11.2-0.2,22.1-0.9,32.7-2.1
			l0.6,76l-5.7,0l3.3,37.6l7.6-0.1l4.7,0v0l2.7,0l2.7-37.6l-5.7,0l-0.6-77.2c4-0.6,8-1.3,11.8-2l1-10v0c-3.4,0.7-6.8,1.3-10.2,1.9
			l0-4.8l-2.7,0l-0.1-9.9c7.2-1.1,14.3-2.4,21-4l1.7-9.3l0,0c5.3-1.2,10.4-2.6,15.3-4.1L338.9,114.8z M215.5,169.3l0.1-6.7l-2.7,0
			l0.1-8.7c10.5,1.2,21.4,1.9,32.5,2.1v15.2C235.2,171,225.2,170.3,215.5,169.3z M287.5,162.5l-2.7,0l0.1,6.7
			c-9.7,1.1-19.7,1.7-29.9,1.8v-15.2c11-0.2,21.9-0.9,32.5-2.1L287.5,162.5z"/>
	</g>
	<g>
		<g>
			<path d="M150.7,347.4c-0.7,1-1.7,1.7-2.9,2.2c-1.2,0.4-2.5,0.7-3.9,0.7c-0.5,0-1,0-1.7,0c-0.6,0-1.1-0.1-1.5-0.2
				c-0.6-0.2-1-0.5-1-0.9v-3.5c0-0.1,0-0.3,0-0.4c0-0.1,0-0.2,0.1-0.3c0.1-0.1,0.1-0.1,0.2-0.1c0.1,0,0.3,0,0.5,0.1
				c0.4,0.1,1,0.2,1.5,0.2c0.6,0,1.1,0,1.5,0c1,0,1.8-0.4,2.4-1.1c0.6-0.7,0.9-2.1,0.9-4.1v-25.6c0-0.2,0.1-0.3,0.2-0.4
				c0.1-0.1,0.3-0.2,0.4-0.2h4.2c0.2,0,0.3,0.1,0.4,0.2c0.1,0.1,0.2,0.2,0.2,0.4v25.4c0,1.5-0.1,2.9-0.4,4.3
				C151.7,345.4,151.3,346.5,150.7,347.4z"/>
			<path d="M185.5,349.8c-0.2,0-0.4,0-0.5-0.1c-0.1,0-0.2-0.2-0.3-0.4l-3.4-8.6h-15.5l-3.4,8.6c-0.1,0.2-0.1,0.4-0.2,0.4
				c-0.1,0-0.3,0.1-0.5,0.1h-4.4c-0.6,0-0.8-0.2-0.6-0.7l13.9-34.7c0.1-0.3,0.2-0.4,0.2-0.5c0,0,0.2-0.1,0.5-0.1h4.4
				c0.3,0,0.5,0,0.5,0.1c0.1,0,0.1,0.2,0.2,0.5l13.9,34.7c0.2,0.4,0,0.7-0.6,0.7H185.5z M167.7,335.7h11.6l-5.8-14.7L167.7,335.7z"
				/>
			<path d="M200.8,335.2v14c0,0.4-0.2,0.6-0.6,0.6h-4.2c-0.4,0-0.6-0.2-0.6-0.6v-34.7c0-0.2,0.1-0.3,0.2-0.4
				c0.1-0.1,0.2-0.2,0.4-0.2h9.6c3.5,0,6.3,0.9,8.4,2.6c2,1.7,3.1,4.4,3.1,8c0,1.7-0.3,3.3-0.9,4.6c-0.6,1.4-1.4,2.5-2.5,3.4
				c-1.1,0.9-2.3,1.6-3.8,2c-1.4,0.5-3,0.7-4.7,0.7H200.8z M200.8,318.8v11.4h3.9c2.1,0,3.8-0.5,5.1-1.4c1.2-0.9,1.9-2.4,1.9-4.5
				c0-1.8-0.5-3.2-1.5-4.1c-1-0.9-2.3-1.4-3.9-1.4H200.8z"/>
			<path d="M243.2,349.8c-0.2,0-0.4,0-0.5-0.1c-0.1,0-0.2-0.2-0.3-0.4l-3.4-8.6h-15.5l-3.4,8.6c-0.1,0.2-0.1,0.4-0.2,0.4
				c-0.1,0-0.3,0.1-0.5,0.1H215c-0.6,0-0.8-0.2-0.6-0.7l13.9-34.7c0.1-0.3,0.2-0.4,0.2-0.5c0,0,0.2-0.1,0.5-0.1h4.4
				c0.3,0,0.5,0,0.5,0.1c0.1,0,0.1,0.2,0.2,0.5l13.9,34.7c0.2,0.4,0,0.7-0.6,0.7H243.2z M225.4,335.7H237l-5.8-14.7L225.4,335.7z"/>
			<path d="M274,349.8c-0.3,0-0.4,0-0.6-0.1c-0.1-0.1-0.3-0.3-0.5-0.6l-15-25.8V349c0,0.3,0,0.5-0.1,0.6c-0.1,0.1-0.3,0.1-0.6,0.1
				h-4c-0.3,0-0.4,0-0.6-0.1c-0.1-0.1-0.2-0.3-0.2-0.6v-34.4c0-0.4,0.1-0.6,0.2-0.7c0.1-0.1,0.4-0.2,0.7-0.2h4.4
				c0.3,0,0.4,0,0.6,0.1c0.1,0.1,0.3,0.3,0.5,0.6l15,25.7v-25.7c0-0.3,0-0.5,0.1-0.6c0.1-0.1,0.3-0.1,0.6-0.1h4c0.3,0,0.5,0,0.6,0.1
				c0.1,0.1,0.1,0.3,0.1,0.6v34.4c0,0.4-0.1,0.6-0.2,0.7c-0.1,0.1-0.3,0.2-0.7,0.2H274z"/>
			<path d="M289.1,349.8c-0.6,0-1-0.1-1.1-0.2c-0.1-0.1-0.2-0.5-0.2-1.2v-33.3c0-0.6,0.1-1,0.2-1.1c0.1-0.1,0.5-0.2,1.1-0.2h16.9
				c0.3,0,0.6,0.1,0.6,0.2c0.1,0.1,0.1,0.3,0.1,0.6v3.5c0,0.3,0,0.5-0.1,0.6c-0.1,0.1-0.3,0.2-0.6,0.2H293v9.7h12.3
				c0.5,0,0.7,0.3,0.7,0.8v3.6c0,0.5-0.2,0.8-0.7,0.8H293v10.9h13.5c0.4,0,0.7,0.3,0.7,0.8v3.6c0,0.5-0.2,0.8-0.7,0.8H289.1z"/>
			<path d="M331.3,347.2c-0.8,0.9-1.9,1.6-3.2,2.3c-1.3,0.6-2.6,1-4.1,1.1c-0.8,0.1-1.6,0.1-2.5,0c-0.9-0.1-1.8-0.2-2.7-0.3
				c-0.9-0.1-1.7-0.3-2.4-0.5c-0.7-0.2-1.2-0.3-1.5-0.5c-0.5-0.2-0.8-0.4-0.9-0.5c-0.1-0.1-0.1-0.3,0-0.7l0.3-3.5
				c0-0.3,0.1-0.4,0.2-0.5c0.1-0.1,0.4,0,0.7,0.1c0.4,0.2,0.9,0.3,1.6,0.5c0.7,0.2,1.5,0.4,2.3,0.5c0.9,0.1,1.7,0.2,2.6,0.3
				c0.9,0,1.7,0,2.4-0.2c0.9-0.2,1.7-0.5,2.2-0.9c0.6-0.4,1-0.8,1.4-1.3c0.3-0.5,0.6-1,0.7-1.6c0.1-0.6,0.2-1.2,0.2-1.8
				c0-0.6-0.4-1.4-1.2-2.5c-0.8-1-1.9-2-3.4-2.9c-1.8-1-3.3-2-4.6-2.9c-1.3-0.9-2.4-1.8-3.2-2.7c-0.8-0.9-1.5-1.8-1.9-2.8
				c-0.4-1-0.6-2-0.6-3.1c0-1.3,0.3-2.5,0.8-3.7c0.6-1.2,1.3-2.2,2.3-3.1c1-0.9,2.1-1.6,3.5-2.1c1.3-0.5,2.8-0.8,4.5-0.8
				c1.7,0,3,0.1,4.1,0.3c1.1,0.2,2,0.5,2.7,0.7c0.3,0.1,0.6,0.3,0.6,0.4c0.1,0.1,0.1,0.3,0,0.5l-0.6,3.1c-0.1,0.3-0.2,0.6-0.3,0.7
				c-0.1,0.1-0.4,0.1-0.7,0c-0.5-0.2-1-0.3-1.6-0.5c-0.6-0.1-1.2-0.3-1.8-0.4c-0.6-0.1-1.2-0.2-1.7-0.2c-0.6,0-1.1,0-1.5,0
				c-1.8,0.3-3,0.9-3.7,1.7c-0.7,0.9-1.1,2-1.1,3.3c0,0.8,0.4,1.7,1.2,2.6c0.8,1,2,1.9,3.6,2.9c2,1.2,3.6,2.3,4.9,3.2
				c1.3,1,2.3,1.9,3,2.7c0.7,0.9,1.3,1.8,1.6,2.6c0.3,0.9,0.5,1.9,0.5,2.9C334.1,342.9,333.2,345.2,331.3,347.2z"/>
			<path d="M342.5,349.8c-0.6,0-1-0.1-1.1-0.2c-0.1-0.1-0.2-0.5-0.2-1.2v-33.3c0-0.6,0.1-1,0.2-1.1c0.1-0.1,0.5-0.2,1.1-0.2h16.9
				c0.3,0,0.6,0.1,0.6,0.2c0.1,0.1,0.1,0.3,0.1,0.6v3.5c0,0.3,0,0.5-0.1,0.6c-0.1,0.1-0.3,0.2-0.6,0.2h-12.9v9.7h12.3
				c0.5,0,0.7,0.3,0.7,0.8v3.6c0,0.5-0.2,0.8-0.7,0.8h-12.3v10.9h13.5c0.4,0,0.7,0.3,0.7,0.8v3.6c0,0.5-0.2,0.8-0.7,0.8H342.5z"/>
			<path d="M178.2,383c0,0.3-0.1,0.4-0.4,0.4h-1.3c-0.3,0-0.4-0.1-0.4-0.4v-20.2c0-0.4,0-0.7,0.1-0.8c0.1-0.1,0.3-0.1,0.7-0.1h5.2
				c2.1,0,3.8,0.5,5,1.5c1.2,1.1,1.9,2.6,1.9,4.6c0,1-0.2,1.9-0.5,2.7c-0.4,0.8-0.9,1.4-1.5,2c-0.6,0.5-1.4,0.9-2.3,1.2
				c-0.9,0.3-1.8,0.4-2.8,0.3h-3.7V383z M186.8,368c0-1.4-0.4-2.4-1.1-3.2c-0.7-0.7-1.8-1.1-3.2-1.1h-4.3v8.7h2.3
				c0.9,0,1.8,0,2.5-0.1c0.7-0.1,1.4-0.3,1.9-0.6c0.5-0.3,1-0.7,1.3-1.3C186.5,369.8,186.7,369,186.8,368z"/>
			<path d="M205,383c0,0.3-0.1,0.4-0.4,0.4h-1.2c-0.3,0-0.4-0.1-0.4-0.4v-8.9c0-0.9-0.1-1.7-0.2-2.4c-0.2-0.6-0.4-1.2-0.7-1.6
				c-0.3-0.4-0.7-0.7-1.1-0.9c-0.4-0.2-0.9-0.3-1.5-0.3c-1.6,0-2.8,0.4-3.6,1.1c-0.8,0.8-1.3,1.8-1.3,3.1v9.7c0,0.3-0.1,0.4-0.4,0.4
				H193c-0.3,0-0.4-0.1-0.4-0.4v-22.3c0-0.3,0.1-0.4,0.4-0.4h1.2c0.3,0,0.4,0.1,0.4,0.4v8.4c0.5-0.6,1.2-1.1,2-1.3
				c0.8-0.3,1.8-0.4,3-0.4c1.9,0,3.2,0.6,4.1,1.7c0.9,1.1,1.3,2.8,1.3,5V383z"/>
			<path d="M217.5,369.5c-0.3-0.1-0.8-0.2-1.4-0.2c-1.4,0-2.5,0.7-3.2,2.1c-0.5,1.1-0.8,2.5-0.8,4.2v7.3c0,0.3-0.1,0.4-0.4,0.4h-1.1
				c-0.3,0-0.4-0.1-0.4-0.4v-11.8c0-0.7,0-1.3,0-1.7c0-0.4,0-0.9,0-1.4c0-0.3,0.1-0.4,0.4-0.4h1.1c0.3,0,0.4,0.1,0.4,0.4v2.8
				c0.9-2.4,2.3-3.7,4.2-3.7c0.4,0,0.9,0.1,1.3,0.2c0.1,0,0.2,0.1,0.3,0.2c0.1,0.1,0.1,0.2,0.1,0.4v1.2c0,0.1,0,0.2-0.1,0.2
				C217.7,369.6,217.6,369.6,217.5,369.5z"/>
			<path d="M221.3,370.2c-0.1,0.1-0.2,0.1-0.3,0c-0.1,0-0.1-0.1-0.1-0.2v-1.1c0-0.3,0.1-0.5,0.4-0.6c0.7-0.4,1.4-0.6,2.2-0.8
				c0.8-0.1,1.6-0.2,2.5-0.2c1.9,0,3.3,0.5,4.2,1.4c0.9,0.9,1.3,2.3,1.3,4.2v7.3c0,0.6,0,1.1,0,1.6c0,0.5,0,0.9,0.1,1.3
				c0,0.3-0.1,0.4-0.4,0.4h-1c-0.3,0-0.4-0.1-0.4-0.4v-2.2c-0.4,1-1.1,1.7-2,2.3c-1,0.5-2,0.8-3.1,0.8c-2,0-3.4-0.6-4.3-1.7
				c-0.3-0.4-0.5-0.8-0.7-1.3c-0.2-0.5-0.2-1-0.2-1.5c0-1.2,0.3-2.2,0.8-3c0.6-0.9,1.4-1.5,2.5-1.9c1.4-0.5,3.5-0.8,6.4-0.8h0.4
				v-0.9c0-1.2-0.3-2.1-0.8-2.8c-0.6-0.6-1.5-1-2.8-1c-0.9,0-1.7,0.1-2.5,0.3C222.8,369.5,222,369.8,221.3,370.2z M229.6,375.3h-0.6
				c-1.1,0-2,0-2.9,0.1c-0.8,0.1-1.5,0.3-2.1,0.5c-0.8,0.3-1.4,0.7-1.8,1.3c-0.4,0.6-0.6,1.3-0.6,2c0,0.5,0.1,0.9,0.2,1.3
				c0.2,0.4,0.4,0.7,0.7,1c0.6,0.5,1.4,0.7,2.3,0.7c0.7,0,1.3-0.1,1.9-0.4c0.6-0.3,1.1-0.7,1.5-1.2c0.4-0.5,0.8-1.1,1-1.9
				c0.2-0.7,0.3-1.6,0.3-2.6V375.3z"/>
			<path d="M235.7,381.5c1.2,0.5,2.4,0.7,3.7,0.7c1,0,1.9-0.3,2.6-0.8c0.7-0.5,1-1.2,1-2.1c0-0.5-0.2-1-0.6-1.5
				c-0.4-0.5-0.8-0.9-1.4-1.2c-0.6-0.3-1.2-0.6-1.8-0.9c-0.6-0.3-1.2-0.6-1.8-0.9c-0.7-0.4-1.2-0.9-1.5-1.4
				c-0.3-0.6-0.5-1.2-0.5-1.8c0-0.7,0.1-1.3,0.4-1.9c0.3-0.5,0.6-1,1.1-1.4c0.5-0.4,1-0.6,1.6-0.8c0.6-0.2,1.3-0.3,2-0.3
				c0.7,0,1.4,0,1.9,0.1c0.5,0.1,1.1,0.2,1.6,0.3c0.1,0,0.2,0.1,0.3,0.2c0.1,0.1,0.1,0.2,0.1,0.3l-0.1,0.9c0,0.2-0.1,0.3-0.2,0.3
				c-0.1,0-0.2,0-0.3,0c-0.5-0.2-1-0.3-1.4-0.4c-0.5-0.1-1.1-0.1-1.7-0.1c-2.2,0-3.4,0.9-3.4,2.7c0,0.4,0.1,0.8,0.4,1.1
				c0.3,0.3,0.8,0.7,1.5,1c0.6,0.3,1.2,0.6,1.8,0.9c0.6,0.3,1.2,0.6,1.9,1c0.6,0.3,1.1,0.8,1.5,1.5c0.4,0.7,0.6,1.4,0.6,2.2
				c0,0.8-0.2,1.4-0.5,2c-0.3,0.6-0.7,1-1.2,1.4c-0.5,0.4-1.1,0.6-1.8,0.8c-0.7,0.2-1.4,0.3-2.1,0.3c-0.4,0-0.8,0-1.1,0
				c-0.3,0-0.7,0-1-0.1c-0.3,0-0.6-0.1-0.9-0.1c-0.3-0.1-0.6-0.1-1-0.2c-0.3-0.1-0.4-0.3-0.4-0.5l0.1-1.1
				C235.3,381.5,235.4,381.4,235.7,381.5z"/>
			<path d="M249.7,376.2c0,1,0.1,1.8,0.3,2.6c0.2,0.7,0.6,1.4,1.1,1.9c0.5,0.5,1,0.9,1.7,1.2c0.6,0.3,1.4,0.4,2.2,0.4
				c0.8,0,1.5-0.1,2.2-0.2c0.7-0.1,1.3-0.4,1.9-0.7c0.3-0.1,0.4,0,0.4,0.2v1.3c0,0.2-0.1,0.3-0.3,0.4c-0.6,0.3-1.3,0.4-2,0.6
				c-0.7,0.1-1.4,0.2-2.3,0.2c-2.4,0-4.2-0.7-5.4-2.1c-1.2-1.4-1.8-3.5-1.8-6.2c0-2.5,0.6-4.4,1.8-5.9c1.3-1.5,2.9-2.3,4.8-2.3
				c1.1,0,2,0.2,2.8,0.6c0.8,0.4,1.5,1,2,1.7c1,1.4,1.5,3.2,1.5,5.5c0,0.3,0,0.4,0,0.6c0,0.1,0,0.2-0.1,0.3
				c-0.1,0.1-0.2,0.1-0.3,0.1c-0.1,0-0.4,0-0.6,0H249.7z M258.4,374.5c0-0.8-0.1-1.5-0.2-2.1c-0.2-0.6-0.4-1.2-0.7-1.7
				c-0.7-1.1-1.7-1.7-3.1-1.7c-1.4,0-2.5,0.6-3.4,1.7c-0.3,0.5-0.6,1.1-0.9,1.8c-0.2,0.7-0.4,1.3-0.4,2H258.4z"/>
			<path d="M264.4,360.7c0-0.3,0.1-0.4,0.4-0.4h1.1c0.3,0,0.4,0.1,0.4,0.4v9.2c0.5-0.8,1.2-1.4,2.1-1.9s1.9-0.7,3-0.7
				c4.3,0,6.5,2.7,6.5,8.2c0,1.1-0.1,2.1-0.3,3.1c-0.2,1-0.6,1.9-1.2,2.6c-0.5,0.8-1.2,1.4-2,1.8c-0.8,0.5-1.8,0.7-2.9,0.7
				c-2.3,0-4-1-5-3v2.3c0,0.3-0.1,0.4-0.4,0.4h-1.1c-0.3,0-0.4-0.1-0.4-0.4V360.7z M275.7,375.5c0-0.8-0.1-1.6-0.2-2.4
				c-0.2-0.8-0.4-1.5-0.8-2.1c-0.4-0.6-0.9-1.1-1.5-1.5c-0.6-0.4-1.4-0.6-2.2-0.6c-0.8,0-1.5,0.2-2.1,0.5c-0.6,0.3-1.1,0.8-1.5,1.4
				c-0.4,0.6-0.7,1.3-0.9,2.1c-0.2,0.8-0.3,1.6-0.3,2.5c0,0.9,0.1,1.7,0.4,2.5c0.2,0.8,0.6,1.5,1,2.1c0.4,0.6,0.9,1.1,1.5,1.4
				c0.6,0.4,1.2,0.5,1.9,0.5c0.9,0,1.6-0.2,2.2-0.6c0.6-0.4,1.1-0.9,1.5-1.5c0.4-0.6,0.6-1.3,0.8-2.1
				C275.7,377.1,275.8,376.3,275.7,375.5z"/>
			<path d="M295.7,375.6c0,1.1-0.2,2.2-0.5,3.2c-0.3,1-0.8,1.8-1.3,2.6c-0.7,0.8-1.5,1.4-2.4,1.9c-0.9,0.4-2,0.7-3.2,0.7
				c-1.2,0-2.3-0.2-3.2-0.7c-0.9-0.4-1.8-1.1-2.4-1.9c-0.5-0.7-1-1.6-1.3-2.6c-0.3-1-0.5-2-0.5-3.2c0-2.3,0.6-4.3,1.8-5.7
				c1.4-1.7,3.2-2.5,5.7-2.5c1.2,0,2.3,0.2,3.2,0.6c0.9,0.4,1.7,1,2.4,1.9C295.1,371.4,295.7,373.3,295.7,375.6z M293.6,375.6
				c0-0.9-0.1-1.8-0.4-2.6c-0.2-0.8-0.6-1.5-1-2.1c-1-1.2-2.3-1.9-3.9-1.9c-0.8,0-1.5,0.2-2.2,0.5c-0.6,0.3-1.2,0.8-1.7,1.4
				c-0.4,0.6-0.8,1.3-1,2.1c-0.2,0.8-0.4,1.6-0.4,2.6c0,0.9,0.1,1.8,0.4,2.6c0.2,0.8,0.6,1.5,1,2.1c1,1.3,2.3,1.9,3.9,1.9
				c0.8,0,1.5-0.2,2.2-0.5c0.6-0.3,1.2-0.8,1.7-1.4c0.4-0.6,0.8-1.3,1-2.1C293.5,377.4,293.6,376.5,293.6,375.6z"/>
			<path d="M313.3,375.6c0,1.1-0.2,2.2-0.5,3.2c-0.3,1-0.8,1.8-1.3,2.6c-0.7,0.8-1.5,1.4-2.4,1.9c-0.9,0.4-2,0.7-3.2,0.7
				c-1.2,0-2.3-0.2-3.2-0.7c-0.9-0.4-1.8-1.1-2.4-1.9c-0.5-0.7-1-1.6-1.3-2.6c-0.3-1-0.5-2-0.5-3.2c0-2.3,0.6-4.3,1.8-5.7
				c1.4-1.7,3.2-2.5,5.7-2.5c1.2,0,2.3,0.2,3.2,0.6c0.9,0.4,1.7,1,2.4,1.9C312.7,371.4,313.3,373.3,313.3,375.6z M311.2,375.6
				c0-0.9-0.1-1.8-0.4-2.6c-0.2-0.8-0.6-1.5-1-2.1c-1-1.2-2.3-1.9-3.9-1.9c-0.8,0-1.5,0.2-2.2,0.5c-0.6,0.3-1.2,0.8-1.7,1.4
				c-0.4,0.6-0.8,1.3-1,2.1c-0.2,0.8-0.4,1.6-0.4,2.6c0,0.9,0.1,1.8,0.4,2.6c0.2,0.8,0.6,1.5,1,2.1c1,1.3,2.3,1.9,3.9,1.9
				c0.8,0,1.5-0.2,2.2-0.5c0.6-0.3,1.2-0.8,1.7-1.4c0.4-0.6,0.8-1.3,1-2.1C311,377.4,311.2,376.5,311.2,375.6z"/>
			<path d="M322.4,374.7l6.3,8.3c0.1,0.1,0.1,0.2,0.1,0.3c0,0.1-0.1,0.1-0.2,0.1h-1.2c-0.2,0-0.4,0-0.5-0.1
				c-0.2-0.1-0.3-0.2-0.4-0.3l-5.2-6.9l-1.9,2.2v4.7c0,0.3-0.1,0.4-0.4,0.4h-1.2c-0.3,0-0.4-0.1-0.4-0.4v-22.3
				c0-0.3,0.1-0.4,0.4-0.4h1.2c0.3,0,0.4,0.1,0.4,0.4v15.1l6.6-7.7c0.3-0.3,0.6-0.4,1-0.4h1.4c0.1,0,0.2,0,0.2,0.1
				c0,0.1,0,0.2-0.1,0.3L322.4,374.7z"/>
		</g>
	</g>
</g>
</svg>
